<svg viewBox="0 0 512 512" xml:space="preserve" xmlns="http://www.w3.org/2000/svg" enable-background="new 0 0 512 512"><path d="M151.546 427.56V301.751H48.888c-6.3 0-11.409 5.122-11.409 11.436V427.56c0 6.313 5.109 11.439 11.409 11.439h114.063c-6.296 0-11.405-5.127-11.405-11.439zM302.063 427.56V187.375h-103.39c-6.296 0-11.405 5.124-11.405 11.439V427.56c0 6.313 5.109 11.439 11.405 11.439h114.065c.125 0 .244-.015.367-.019-6.128-.196-11.042-5.232-11.042-11.42zM463.113 73.001H349.051c-6.301 0-11.41 5.123-11.41 11.44V427.56c0 6.188 4.914 11.225 11.043 11.421.123.004.242.019.367.019h114.063c6.297 0 11.408-5.127 11.408-11.439V84.441c-.001-6.317-5.112-11.44-11.409-11.44z" fill="none" stroke="#747474" stroke-width="20" stroke-linecap="round" stroke-linejoin="round" stroke-miterlimit="10" class="stroke-000000"></path></svg>