<svg width="706" height="128" viewBox="0 0 706 128" fill="none" xmlns="http://www.w3.org/2000/svg">
<path d="M49.7545 48.4568V36.9707C35.7469 37.4527 24.5393 48.9601 24.5393 63.0846V64.9136H0V63.0846C0 35.4067 22.1927 12.9118 49.7545 12.4238V0L91.8115 24.6855L49.7545 48.4568Z" fill="#1B1B1B"/>
<path d="M71.3132 63.0859V64.9149C71.3132 79.0401 60.107 90.5463 46.0997 91.0291V79.5441L4.04297 103.315L46.0997 128.001V115.576C73.6605 115.088 95.8534 92.5935 95.8534 64.9149V63.0859H71.3132Z" fill="#1B1B1B"/>
<path d="M183.369 83.6775H155.325L150.684 97.0953H135.854L161.175 26.5781H177.619L202.942 97.0953H188.01L183.369 83.6775ZM179.537 72.3794L169.348 42.9212L159.157 72.3794H179.537Z" fill="#1B1B1B"/>
<path d="M261.133 41.2109V97.1H246.908V90.0393C245.092 92.4607 242.706 94.3768 239.745 95.7893C236.854 97.1351 233.692 97.8071 230.263 97.8071C225.891 97.8071 222.024 96.8982 218.662 95.0822C215.298 93.1994 212.642 90.4763 210.69 86.9108C208.808 83.2787 207.867 78.9746 207.867 73.9985V41.2109H221.99V71.9806C221.99 76.4198 223.099 79.8502 225.319 82.2716C227.538 84.6245 230.565 85.8019 234.399 85.8019C238.3 85.8019 241.36 84.6245 243.579 82.2716C245.799 79.8502 246.908 76.4198 246.908 71.9806V41.2109H261.133Z" fill="#1B1B1B"/>
<path d="M287.477 52.7978V79.8353C287.477 81.7181 287.914 83.0972 288.789 83.971C289.73 84.7782 291.277 85.1817 293.428 85.1817H299.987V97.0852H291.109C279.205 97.0852 273.252 91.3019 273.252 79.7336V52.7978H266.595V41.1961H273.252V27.375H287.477V41.1961H299.987V52.7978H287.477Z" fill="#1B1B1B"/>
<path d="M330.927 98.0027C325.547 98.0027 320.705 96.8253 316.4 94.4706C312.096 92.051 308.699 88.654 306.211 84.2814C303.79 79.9106 302.579 74.866 302.579 69.1494C302.579 63.4328 303.823 58.3882 306.311 54.0171C308.868 49.6454 312.331 46.2826 316.702 43.9286C321.075 41.5074 325.951 40.2969 331.331 40.2969C336.712 40.2969 341.588 41.5074 345.959 43.9286C350.332 46.2826 353.76 49.6454 356.25 54.0171C358.805 58.3882 360.082 63.4328 360.082 69.1494C360.082 74.866 358.771 79.9106 356.148 84.2814C353.593 88.654 350.095 92.051 345.657 94.4706C341.285 96.8253 336.375 98.0027 330.927 98.0027ZM330.927 85.6939C333.484 85.6939 335.872 85.0886 338.089 83.8779C340.378 82.6005 342.194 80.7178 343.538 78.2297C344.883 75.7399 345.555 72.7149 345.555 69.1494C345.555 63.8364 344.143 59.7674 341.318 56.9424C338.561 54.0506 335.164 52.6046 331.129 52.6046C327.093 52.6046 323.698 54.0506 320.94 56.9424C318.25 59.7674 316.904 63.8364 316.904 69.1494C316.904 74.4625 318.216 78.5648 320.84 81.4582C323.529 84.2814 326.891 85.6939 330.927 85.6939Z" fill="#1B1B1B"/>
<path d="M435.814 40.4062C442.675 40.4062 448.19 42.5248 452.359 46.7619C456.596 50.9318 458.716 56.7825 458.716 64.3151V97.1023H444.591V66.2329C444.591 61.8604 443.482 58.5318 441.263 56.2455C439.043 53.891 436.016 52.714 432.182 52.714C428.348 52.714 425.288 53.891 423.002 56.2455C420.782 58.5318 419.674 61.8604 419.674 66.2329V97.1023H405.549V66.2329C405.549 61.8604 404.44 58.5318 402.22 56.2455C400.001 53.891 396.974 52.714 393.142 52.714C389.239 52.714 386.146 53.891 383.86 56.2455C381.64 58.5318 380.531 61.8604 380.531 66.2329V97.1023H366.406V41.2132H380.531V47.9724C382.345 45.6186 384.667 43.769 387.492 42.4239C390.383 41.0788 393.543 40.4062 396.974 40.4062C401.346 40.4062 405.247 41.3478 408.677 43.2309C412.108 45.0469 414.764 47.6698 416.647 51.0999C418.463 47.8715 421.086 45.2822 424.516 43.3318C428.013 41.3813 431.779 40.4062 435.814 40.4062Z" fill="#1B1B1B"/>
<path d="M464.45 68.9476C464.45 63.2977 465.561 58.2882 467.781 53.9162C470.067 49.5445 473.127 46.1818 476.961 43.8277C480.861 41.4737 485.199 40.2969 489.975 40.2969C494.144 40.2969 497.776 41.1375 500.869 42.8188C504.031 44.5003 506.553 46.6188 508.435 49.1746V41.2047H522.66V97.0938H508.435V88.9224C506.621 91.5456 504.098 93.7319 500.869 95.4795C497.709 97.1622 494.044 98.0027 489.873 98.0027C485.165 98.0027 480.861 96.792 476.961 94.3706C473.127 91.9492 470.067 88.5522 467.781 84.1814C465.561 79.7422 464.45 74.6643 464.45 68.9476ZM508.435 69.1494C508.435 65.7191 507.763 62.7941 506.419 60.3727C505.074 57.8847 503.258 56.0019 500.971 54.7228C498.685 53.378 496.228 52.7055 493.607 52.7055C490.984 52.7055 488.562 53.3445 486.343 54.6228C484.123 55.9002 482.307 57.7829 480.895 60.271C479.551 62.6924 478.877 65.5858 478.877 68.9476C478.877 72.3113 479.551 75.2696 480.895 77.8261C482.307 80.3142 484.123 82.2303 486.343 83.5761C488.629 84.9219 491.051 85.5939 493.607 85.5939C496.228 85.5939 498.685 84.9552 500.971 83.6761C503.258 82.332 505.074 80.4493 506.419 78.0279C507.763 75.5381 508.435 72.5797 508.435 69.1494Z" fill="#1B1B1B"/>
<path d="M548.865 52.7978V79.8353C548.865 81.7181 549.302 83.0972 550.176 83.971C551.118 84.7782 552.666 85.1817 554.817 85.1817H561.374V97.0852H552.497C540.592 97.0852 534.64 91.3019 534.64 79.7336V52.7978H527.981V41.1961H534.64V27.375H548.865V41.1961H561.374V52.7978H548.865Z" fill="#1B1B1B"/>
<path d="M574.66 34.545C572.172 34.545 570.088 33.7716 568.407 32.2247C566.792 30.6106 565.985 28.6264 565.985 26.2726C565.985 23.9186 566.792 21.9681 568.407 20.4212C570.088 18.8071 572.172 18 574.66 18C577.148 18 579.201 18.8071 580.814 20.4212C582.497 21.9681 583.337 23.9186 583.337 26.2726C583.337 28.6264 582.497 30.6106 580.814 32.2247C579.201 33.7716 577.148 34.545 574.66 34.545ZM581.621 41.2033V97.0924H567.498V41.2033H581.621Z" fill="#1B1B1B"/>
<path d="M616.358 98.0027C610.978 98.0027 606.135 96.8253 601.831 94.4706C597.527 92.051 594.13 88.654 591.642 84.2814C589.22 79.9106 588.01 74.866 588.01 69.1494C588.01 63.4328 589.254 58.3882 591.742 54.0171C594.298 49.6454 597.762 46.2826 602.133 43.9286C606.505 41.5074 611.382 40.2969 616.761 40.2969C622.143 40.2969 627.019 41.5074 631.39 43.9286C635.762 46.2826 639.193 49.6454 641.681 54.0171C644.235 58.3882 645.515 63.4328 645.515 69.1494C645.515 74.866 644.202 79.9106 641.579 84.2814C639.024 88.654 635.527 92.051 631.088 94.4706C626.715 96.8253 621.806 98.0027 616.358 98.0027ZM616.358 85.6939C618.914 85.6939 621.302 85.0886 623.522 83.8779C625.808 82.6005 627.624 80.7178 628.968 78.2297C630.314 75.7399 630.986 72.7149 630.986 69.1494C630.986 63.8364 629.574 59.7674 626.749 56.9424C623.992 54.0506 620.595 52.6046 616.559 52.6046C612.526 52.6046 609.129 54.0506 606.37 56.9424C603.68 59.7674 602.335 63.8364 602.335 69.1494C602.335 74.4625 603.647 78.5648 606.27 81.4582C608.96 84.2814 612.324 85.6939 616.358 85.6939Z" fill="#1B1B1B"/>
<path d="M682.808 40.4062C689.467 40.4062 694.848 42.5248 698.951 46.7619C703.053 50.9318 705.104 56.7825 705.104 64.3151V97.1023H690.981V66.2329C690.981 61.7937 689.87 58.3967 687.651 56.0438C685.431 53.622 682.404 52.4113 678.572 52.4113C674.67 52.4113 671.577 53.622 669.29 56.0438C667.071 58.3967 665.962 61.7937 665.962 66.2329V97.1023H651.837V41.2132H665.962V48.1742C667.844 45.753 670.233 43.8699 673.124 42.5248C676.082 41.1123 679.311 40.4062 682.808 40.4062Z" fill="#1B1B1B"/>
</svg>
