<svg xmlns="http://www.w3.org/2000/svg" viewBox="55.32 65.72 398.05 359.28"><g data-name="1"><path d="M354.9 322h-55.76a15 15 0 0 1 0-30h55.76a70.13 70.13 0 0 0 0-140.25c-1.89 0-3.9.09-6.14.29a15 15 0 0 1-14.25-7.42 98.17 98.17 0 0 0-181.68 32.6 15 15 0 0 1-15.35 12.47h-1.06a51.17 51.17 0 1 0 0 102.34h74.71a15 15 0 0 1 0 30h-74.71a81.18 81.18 0 0 1-10.56-161.66 128.17 128.17 0 0 1 229.67-38.59A100.13 100.13 0 0 1 354.9 322ZM255.13 425a15 15 0 0 1-10.6-4.4l-48.18-48.17a15 15 0 1 1 21.21-21.22l37.57 37.58 37.58-37.58a15 15 0 0 1 21.21 21.22l-48.18 48.17a15 15 0 0 1-10.61 4.4Z" fill="#747474" class="fill-000000"/><path d="M255.13 425a15 15 0 0 1-15-15V245.24a15 15 0 0 1 30 0V410a15 15 0 0 1-15 15Z" fill="#747474" class="fill-000000"/></g></svg>