<svg id="Layer_1" enable-background="new 0 0 100 100" viewBox="0 0 100 100" xmlns="http://www.w3.org/2000/svg" width="300" height="300" version="1.1" xmlns:xlink="http://www.w3.org/1999/xlink" xmlns:svgjs="http://svgjs.dev/svgjs"><g width="100%" height="100%" transform="matrix(1,0,0,1,0,0)"><path d="m57.7608261 61.9498024c-2.3936996 1.5147667-5.0866165 2.281498-7.7795296 2.281498-2.6555099 0-5.3110199-.7293282-7.6112175-2.2066879l-38.3927166-25.8444901c-.6358268-.4301186-1.4773624.0186996-1.4773624.7854309v46.2844467c0 2.6181107 2.1318898 4.75 4.75 4.75h85.5c2.6181107 0 4.75-2.1318893 4.75-4.75v-46.2844467c0-.7667313-.8415375-1.2155495-1.4773636-.7854309z" fill="#1b1b1b" fill-opacity="1" data-original-color="#000000ff" stroke="none" stroke-opacity="1"/><path d="m47.5501976 54.0767708c1.4399567.9163399 3.4409409.9163399 4.9931107-.0748024l44.545269-29.9960613c.2618103-.1683064.4114227-.4675198.4114227-.7854329v-6.4704723c0-2.6181107-2.1318893-4.750001-4.75-4.750001h-85.5c-2.6181102.000001-4.75 2.1318903-4.75 4.750001v6.4704723c0 .3179131.1496062.6171265.4114172.7854328z" fill="#1b1b1b" fill-opacity="1" data-original-color="#000000ff" stroke="none" stroke-opacity="1"/></g></svg>