<svg width="160" height="160" viewBox="0 0 160 160" fill="none" xmlns="http://www.w3.org/2000/svg">
<g filter="url(#filter0_i_7566_5912)">
<rect width="160" height="160" rx="24" fill="#F5F5F5"/>
<rect x="5" y="5" width="150" height="150" rx="19" stroke="#0161FE" stroke-width="10"/>
<path d="M60.0608 114.47C57.4614 114.47 55.075 113.831 52.9017 112.553C50.7284 111.253 49.0026 109.527 47.7242 107.375C46.4458 105.202 45.8066 102.815 45.8066 100.216C45.8066 97.5952 46.4458 95.2088 47.7242 93.0568C49.0026 90.8835 50.7284 89.147 52.9017 87.8473C55.075 86.5476 57.4614 85.8977 60.0608 85.8977H67.0921V74.5838H60.0608C57.4614 74.5838 55.075 73.9446 52.9017 72.6662C50.7284 71.3878 49.0026 69.6726 47.7242 67.5206C46.4458 65.3473 45.8066 62.9503 45.8066 60.3295C45.8066 57.7088 46.4458 55.3224 47.7242 53.1705C49.0026 51.0185 50.7284 49.3033 52.9017 48.0249C55.075 46.7251 57.4614 46.0753 60.0608 46.0753C62.6816 46.0753 65.0679 46.7251 67.2199 48.0249C69.3932 49.3033 71.1191 51.0185 72.3975 53.1705C73.6972 55.3224 74.347 57.7088 74.347 60.3295V67.2969H85.6929V60.3295C85.6929 57.7088 86.3321 55.3224 87.6105 53.1705C88.8889 51.0185 90.6041 49.3033 92.7561 48.0249C94.9294 46.7251 97.3264 46.0753 99.9472 46.0753C102.568 46.0753 104.954 46.7251 107.106 48.0249C109.258 49.3033 110.973 51.0185 112.252 53.1705C113.53 55.3224 114.169 57.7088 114.169 60.3295C114.169 62.9503 113.53 65.3473 112.252 67.5206C110.973 69.6726 109.258 71.3878 107.106 72.6662C104.954 73.9446 102.568 74.5838 99.9472 74.5838H92.9479V85.8977H99.9472C102.568 85.8977 104.954 86.5476 107.106 87.8473C109.258 89.147 110.973 90.8835 112.252 93.0568C113.53 95.2088 114.169 97.5952 114.169 100.216C114.169 102.815 113.53 105.202 112.252 107.375C110.973 109.527 109.258 111.253 107.106 112.553C104.954 113.831 102.568 114.47 99.9472 114.47C97.3264 114.47 94.9294 113.831 92.7561 112.553C90.6041 111.253 88.8889 109.527 87.6105 107.375C86.3321 105.202 85.6929 102.815 85.6929 100.216V93.1847H74.347V100.216C74.347 102.815 73.6972 105.202 72.3975 107.375C71.1191 109.527 69.3932 111.253 67.2199 112.553C65.0679 113.831 62.6816 114.47 60.0608 114.47ZM60.0608 107.183C61.3605 107.183 62.5324 106.874 63.5764 106.256C64.6418 105.638 65.4941 104.797 66.1333 103.732C66.7725 102.666 67.0921 101.494 67.0921 100.216V93.1847H60.0608C58.7824 93.1847 57.6105 93.5043 56.5452 94.1435C55.4798 94.7614 54.6276 95.603 53.9884 96.6683C53.3705 97.7337 53.0615 98.9162 53.0615 100.216C53.0615 101.494 53.3705 102.666 53.9884 103.732C54.6276 104.797 55.4798 105.638 56.5452 106.256C57.6105 106.874 58.7824 107.183 60.0608 107.183ZM60.0608 67.2969H67.0921V60.3295C67.0921 59.0298 66.7725 57.858 66.1333 56.8139C65.4941 55.7486 64.6418 54.907 63.5764 54.2891C62.5324 53.6712 61.3605 53.3622 60.0608 53.3622C58.7824 53.3622 57.6105 53.6712 56.5452 54.2891C55.4798 54.907 54.6276 55.7486 53.9884 56.8139C53.3705 57.858 53.0615 59.0298 53.0615 60.3295C53.0615 61.6293 53.3705 62.8118 53.9884 63.8771C54.6276 64.9212 55.4798 65.7521 56.5452 66.37C57.6105 66.9879 58.7824 67.2969 60.0608 67.2969ZM92.9479 67.2969H99.9472C101.247 67.2969 102.419 66.9879 103.463 66.37C104.507 65.7521 105.338 64.9212 105.956 63.8771C106.595 62.8118 106.915 61.6293 106.915 60.3295C106.915 59.0298 106.595 57.858 105.956 56.8139C105.338 55.7486 104.507 54.907 103.463 54.2891C102.419 53.6712 101.247 53.3622 99.9472 53.3622C98.6475 53.3622 97.4649 53.6712 96.3996 54.2891C95.3343 54.907 94.4926 55.7486 93.8747 56.8139C93.2568 57.858 92.9479 59.0298 92.9479 60.3295V67.2969ZM99.9472 107.183C101.247 107.183 102.419 106.874 103.463 106.256C104.507 105.638 105.338 104.797 105.956 103.732C106.595 102.666 106.915 101.494 106.915 100.216C106.915 98.9162 106.595 97.7337 105.956 96.6683C105.338 95.603 104.507 94.7614 103.463 94.1435C102.419 93.5043 101.247 93.1847 99.9472 93.1847H92.9479V100.216C92.9479 101.494 93.2568 102.666 93.8747 103.732C94.4926 104.797 95.3343 105.638 96.3996 106.256C97.4649 106.874 98.6475 107.183 99.9472 107.183ZM74.347 85.8977H85.6929V74.5838H74.347V85.8977Z" fill="#0161FE"/>
</g>
<defs>
<filter id="filter0_i_7566_5912" x="0" y="0" width="168" height="168" filterUnits="userSpaceOnUse" color-interpolation-filters="sRGB">
<feFlood flood-opacity="0" result="BackgroundImageFix"/>
<feBlend mode="normal" in="SourceGraphic" in2="BackgroundImageFix" result="shape"/>
<feColorMatrix in="SourceAlpha" type="matrix" values="0 0 0 0 0 0 0 0 0 0 0 0 0 0 0 0 0 0 127 0" result="hardAlpha"/>
<feOffset dx="8" dy="8"/>
<feGaussianBlur stdDeviation="6"/>
<feComposite in2="hardAlpha" operator="arithmetic" k2="-1" k3="1"/>
<feColorMatrix type="matrix" values="0 0 0 0 0 0 0 0 0 0 0 0 0 0 0 0 0 0 0.3 0"/>
<feBlend mode="normal" in2="shape" result="effect1_innerShadow_7566_5912"/>
</filter>
</defs>
</svg>
