<svg xmlns="http://www.w3.org/2000/svg" id="Layer_1" data-name="Layer 1" viewBox="654.21 663.36 691.64 673.3"><defs><style>.cls-1{fill:#818181;}</style></defs><title>All sVG</title><path class="cls-1" d="M1000,1059H948.39V955.74H1000a51.61,51.61,0,0,1,0,103.22"/><polygon class="cls-1" points="1156 955.74 1156 1058.96 1052.78 1058.96 1052.78 955.74 1104.39 1007.35 1156 955.74"/><polygon class="cls-1" points="947.22 1058.96 844 1058.96 844 955.74 947.22 1058.96"/><polygon class="cls-1" points="858.3 1093.28 855.45 1093.28 846.86 1080.27 846.86 1093.28 844 1093.28 844 1075.84 846.86 1075.84 855.45 1088.82 855.45 1075.84 858.3 1075.84 858.3 1093.28"/><path class="cls-1" d="M868,1092.31a8.43,8.43,0,0,1-3.23-3.18,9.45,9.45,0,0,1,0-9.18,8.48,8.48,0,0,1,3.23-3.17,9.39,9.39,0,0,1,9,0,8.45,8.45,0,0,1,3.22,3.17,9.52,9.52,0,0,1,0,9.18,8.41,8.41,0,0,1-3.22,3.18,9.39,9.39,0,0,1-9,0m7.55-2.13a5.36,5.36,0,0,0,2.12-2.25,7.25,7.25,0,0,0,.76-3.4,7.17,7.17,0,0,0-.76-3.38,5.37,5.37,0,0,0-2.12-2.23,6.54,6.54,0,0,0-6.16,0,5.43,5.43,0,0,0-2.12,2.23,7.17,7.17,0,0,0-.76,3.38,7.25,7.25,0,0,0,.76,3.4,5.43,5.43,0,0,0,2.12,2.25,6.4,6.4,0,0,0,6.16,0"/><path class="cls-1" d="M895.76,1093.28l-4-7h-2.18v7h-2.85v-17.42h6a7.46,7.46,0,0,1,3.4.71,4.75,4.75,0,0,1,2.07,1.88,5.09,5.09,0,0,1,.69,2.63,5.22,5.22,0,0,1-1,3.09,5,5,0,0,1-3,1.89l4.31,7.22Zm-6.19-9.25h3.16a3.29,3.29,0,0,0,2.42-.8,2.88,2.88,0,0,0,.81-2.15,2.76,2.76,0,0,0-.8-2.12,3.39,3.39,0,0,0-2.43-.77h-3.16Z"/><path class="cls-1" d="M915.62,1076.93a7.64,7.64,0,0,1,3.23,3.06,9.15,9.15,0,0,1,1.14,4.64,9,9,0,0,1-1.14,4.61,7.56,7.56,0,0,1-3.23,3,10.89,10.89,0,0,1-4.88,1h-5.68v-17.42h5.68a10.63,10.63,0,0,1,4.88,1.07m-.19,12.36a6.33,6.33,0,0,0,1.63-4.66,6.55,6.55,0,0,0-1.63-4.73,6.18,6.18,0,0,0-4.69-1.71h-2.83V1091h2.83a6.27,6.27,0,0,0,4.69-1.66"/><path class="cls-1" d="M927.91,1092.84a5.22,5.22,0,0,1-2.21-1.74,4.45,4.45,0,0,1-.8-2.63H928a2.7,2.7,0,0,0,.89,1.85,3.1,3.1,0,0,0,2.21.73,3.4,3.4,0,0,0,2.31-.72,2.32,2.32,0,0,0,.83-1.84,2,2,0,0,0-.52-1.43,3.5,3.5,0,0,0-1.28-.85,20.87,20.87,0,0,0-2.11-.65,19.53,19.53,0,0,1-2.77-.91,4.6,4.6,0,0,1-1.82-1.44,4.19,4.19,0,0,1-.75-2.61,4.64,4.64,0,0,1,.75-2.63,4.77,4.77,0,0,1,2.11-1.73,7.63,7.63,0,0,1,3.13-.6,6.53,6.53,0,0,1,4.14,1.26,4.69,4.69,0,0,1,1.8,3.47h-3.16a2.28,2.28,0,0,0-.9-1.62,3.34,3.34,0,0,0-2.18-.68,3.1,3.1,0,0,0-2,.63,2.16,2.16,0,0,0-.77,1.8,1.82,1.82,0,0,0,.48,1.31,3.36,3.36,0,0,0,1.25.82,18.24,18.24,0,0,0,2,.65,23.47,23.47,0,0,1,2.82,1,4.76,4.76,0,0,1,1.85,1.47,4.21,4.21,0,0,1,.77,2.64,4.74,4.74,0,0,1-.72,2.51,5.18,5.18,0,0,1-2.08,1.89,6.8,6.8,0,0,1-3.22.71,7.73,7.73,0,0,1-3.15-.61"/><path class="cls-1" d="M962.54,1076.93a7.6,7.6,0,0,1,3.24,3.06,9.15,9.15,0,0,1,1.14,4.64,9,9,0,0,1-1.14,4.61,7.53,7.53,0,0,1-3.24,3,10.82,10.82,0,0,1-4.87,1H952v-17.42h5.69a10.56,10.56,0,0,1,4.87,1.07m-.18,12.36a6.37,6.37,0,0,0,1.62-4.66,6.59,6.59,0,0,0-1.62-4.73,6.18,6.18,0,0,0-4.69-1.71h-2.83V1091h2.83a6.27,6.27,0,0,0,4.69-1.66"/><rect class="cls-1" x="972.25" y="1075.87" width="2.86" height="17.41"/><path class="cls-1" d="M994,1080.88a4.65,4.65,0,0,0-1.88-2,5.72,5.72,0,0,0-2.79-.66,6.07,6.07,0,0,0-3.08.77,5.42,5.42,0,0,0-2.11,2.21,6.87,6.87,0,0,0-.77,3.3,7,7,0,0,0,.77,3.32,5.45,5.45,0,0,0,2.11,2.22,6.08,6.08,0,0,0,3.08.78,5.46,5.46,0,0,0,3.79-1.31,5.63,5.63,0,0,0,1.78-3.53h-6.54v-2.28h9.59V1086a8.61,8.61,0,0,1-8.62,7.47,9,9,0,0,1-4.48-1.14,8.52,8.52,0,0,1-3.22-3.17,9.43,9.43,0,0,1,0-9.17,8.48,8.48,0,0,1,3.23-3.17,9.52,9.52,0,0,1,9.42.22,7.82,7.82,0,0,1,3.15,3.88Z"/><rect class="cls-1" x="1003.24" y="1075.87" width="2.86" height="17.41"/><polygon class="cls-1" points="1023.61 1075.87 1023.61 1078.19 1018.98 1078.19 1018.98 1093.28 1016.12 1093.28 1016.12 1078.19 1011.46 1078.19 1011.46 1075.87 1023.61 1075.87"/><path class="cls-1" d="M1039.5,1089.72h-7.29l-1.26,3.56h-3l6.24-17.44h3.31l6.24,17.44h-3Zm-.8-2.33-2.83-8.09-2.86,8.09Z"/><polygon class="cls-1" points="1051.83 1090.97 1057.71 1090.97 1057.71 1093.28 1048.97 1093.28 1048.97 1075.87 1051.83 1075.87 1051.83 1090.97"/><polygon class="cls-1" points="1089.96 1075.87 1089.96 1093.28 1087.1 1093.28 1087.1 1081.35 1081.79 1093.28 1079.81 1093.28 1074.47 1081.35 1074.47 1093.28 1071.62 1093.28 1071.62 1075.87 1074.7 1075.87 1080.81 1089.52 1086.9 1075.87 1089.96 1075.87"/><polygon class="cls-1" points="1099.08 1078.17 1099.08 1083.28 1105.09 1083.28 1105.09 1085.61 1099.08 1085.61 1099.08 1090.95 1105.84 1090.95 1105.84 1093.28 1096.22 1093.28 1096.22 1075.84 1105.84 1075.84 1105.84 1078.17 1099.08 1078.17"/><path class="cls-1" d="M1122.42,1076.93a7.64,7.64,0,0,1,3.23,3.06,9.15,9.15,0,0,1,1.14,4.64,9,9,0,0,1-1.14,4.61,7.56,7.56,0,0,1-3.23,3,10.89,10.89,0,0,1-4.88,1h-5.69v-17.42h5.69a10.63,10.63,0,0,1,4.88,1.07m-.19,12.36a6.37,6.37,0,0,0,1.63-4.66,6.59,6.59,0,0,0-1.63-4.73,6.18,6.18,0,0,0-4.69-1.71h-2.83V1091h2.83a6.27,6.27,0,0,0,4.69-1.66"/><rect class="cls-1" x="1132.12" y="1075.87" width="2.86" height="17.41"/><path class="cls-1" d="M1151.74,1089.72h-7.29l-1.25,3.56h-3l6.23-17.44h3.31l6.24,17.44h-3Zm-.8-2.33-2.83-8.09-2.86,8.09Z"/><rect class="cls-1" x="725.94" y="907.83" width="85.98" height="21.44"/><rect class="cls-1" x="725.99" y="868.22" width="241.72" height="21.75"/><rect class="cls-1" x="726.02" y="828.38" width="241.78" height="21.61"/><rect class="cls-1" x="1026.85" y="907.92" width="38.68" height="21.27"/><rect class="cls-1" x="1026.83" y="828.5" width="241.56" height="21.52"/><rect class="cls-1" x="1026.97" y="868.25" width="241.58" height="21.52"/><path class="cls-1" d="M1345.5,707.1c0-3.35.19-6.67-.74-10a45.24,45.24,0,0,0-44-33.74H701.21c-28.25,0-47.07,18.91-47,47.3q.08,227.53.17,455c0,30.08,18.65,48.64,48.86,48.64q169.11,0,338.25,0c2.37,0,4.93-.87,7.21.9,0,15.31.33,30.61-.09,45.92-.56,19.61,4,37.39,17.73,53.23H939c14.29-18.12,17.56-38.21,15.59-59.82H932.32c0,6.45.31,12.52,0,18.52-1.16,19.8-16.83,41.72-39.95,41.52-8.44-.06-16.86,0-25.24,0v22.09h278.44V1314.9c-8.13,0-16,.11-23.77,0-27.52-.48-48.22-16.2-50-40.17-1.43-19.84-.28-39.9-.28-60.41h18.2c69.32,0,138.65-.25,208,.15,24.44.14,48.25-18,48.13-47.58C1345.16,1013.62,1345.52,860.37,1345.5,707.1ZM677.35,702c.45-9.65,11.73-17.78,22.76-18.43,1.57-.08,3.15,0,4.73,0h590.63c18.88,0,27.91,9.09,27.91,28.11q0,21.55-.08,43.18a5.43,5.43,0,0,1-.65,1.52H677.12C677.12,738.27,676.53,720.1,677.35,702Zm-.48,76.47h646.46V1106H676.87Zm646.77,392.71c-.29,12.38-10.33,22.06-23.1,22.82-2,.11-4,0-6.08,0H705.23c-20,0-28.84-8.78-28.84-28.64v-36h647.3C1323.69,1143.79,1323.92,1157.49,1323.64,1171.19ZM804.37,733.77c7-.08,12-4.87,12-11.65,0-7.17-5-11.84-12.55-11.76-7.15.09-12.16,4.84-12.18,11.59S797.11,733.86,804.37,733.77Zm-45.07,0c7,0,12.3-4.87,12.44-11.39.19-7-5-12-12.41-12-7.6,0-12.41,4.73-12.27,12C747.2,729.21,752.1,733.77,759.3,733.77Zm-45.43,0c7.09-.06,12-4.78,12-11.62.05-7.17-4.93-11.87-12.52-11.79-7.18.06-12.13,4.79-12.21,11.57S706.58,733.86,713.87,733.77Z"/><rect class="cls-1" x="725.94" y="907.83" width="85.98" height="21.44"/><rect class="cls-1" x="725.99" y="868.22" width="241.72" height="21.75"/><rect class="cls-1" x="726.02" y="828.38" width="241.78" height="21.61"/><rect class="cls-1" x="1026.85" y="907.92" width="38.68" height="21.27"/><rect class="cls-1" x="1026.83" y="828.5" width="241.56" height="21.52"/><rect class="cls-1" x="1026.97" y="868.25" width="241.58" height="21.52"/><path class="cls-1" d="M725.91,722.15c-.06,6.84-4.95,11.56-12,11.62-7.29.09-12.75-5-12.69-11.84s5-11.51,12.21-11.57C721,710.28,726,715,725.91,722.15Z"/><path class="cls-1" d="M771.74,722.38c-.14,6.52-5.46,11.39-12.44,11.39-7.2,0-12.1-4.56-12.24-11.42-.14-7.26,4.67-12,12.27-12C766.76,710.36,771.93,715.34,771.74,722.38Z"/><path class="cls-1" d="M816.39,722.12c0,6.78-5,11.57-12,11.65-7.26.09-12.74-5-12.71-11.82s5-11.5,12.18-11.59C811.43,710.28,816.41,715,816.39,722.12Z"/><rect class="cls-1" x="726.02" y="828.38" width="241.78" height="21.61"/><rect class="cls-1" x="725.99" y="868.22" width="241.72" height="21.75"/><rect class="cls-1" x="1026.83" y="828.5" width="241.56" height="21.52"/><rect class="cls-1" x="1026.97" y="868.25" width="241.58" height="21.52"/><rect class="cls-1" x="725.94" y="907.83" width="85.98" height="21.44"/><rect class="cls-1" x="1026.85" y="907.92" width="38.68" height="21.27"/><path class="cls-1" d="M725.91,722.15c-.06,6.84-4.95,11.56-12,11.62-7.29.09-12.75-5-12.69-11.84s5-11.51,12.21-11.57C721,710.28,726,715,725.91,722.15Z"/><path class="cls-1" d="M771.74,722.38c-.14,6.52-5.46,11.39-12.44,11.39-7.2,0-12.1-4.56-12.24-11.42-.14-7.26,4.67-12,12.27-12C766.76,710.36,771.93,715.34,771.74,722.38Z"/><path class="cls-1" d="M816.39,722.12c0,6.78-5,11.57-12,11.65-7.26.09-12.74-5-12.71-11.82s5-11.5,12.18-11.59C811.43,710.28,816.41,715,816.39,722.12Z"/></svg>