<svg xmlns="http://www.w3.org/2000/svg" viewBox="56.79 65.76 398.41 380.48"><path d="M380.97 224.59h-68.455a74.486 74.486 0 0 0 .88-11.415v-73.178a74.32 74.32 0 0 0-74.236-74.236H131.03a74.32 74.32 0 0 0-74.236 74.236v73.178a74.32 74.32 0 0 0 74.236 74.236h68.472a73.82 73.82 0 0 0-.896 11.414v73.179a74.32 74.32 0 0 0 74.236 74.235h108.13a74.32 74.32 0 0 0 74.235-74.235v-73.179a74.32 74.32 0 0 0-74.236-74.235ZM72.795 213.175v-73.178A58.302 58.302 0 0 1 131.03 81.76h108.129a58.302 58.302 0 0 1 58.236 58.236v73.178a58.301 58.301 0 0 1-58.236 58.236H131.03a58.302 58.302 0 0 1-58.236-58.236ZM386.97 316.809h-19.5a120.722 120.722 0 0 1-28.823 50.691 124.523 124.523 0 0 0 22.002 14.08l10.884 5.465a8 8 0 1 1-7.18 14.3l-10.884-5.466a140.143 140.143 0 0 1-26.6-17.308 139.38 139.38 0 0 1-26.529 17.308l-10.883 5.465a8 8 0 0 1-7.18-14.3l10.883-5.464a123.73 123.73 0 0 0 21.943-14.064 123.957 123.957 0 0 1-20.202-28.643 8 8 0 1 1 14.256-7.265 107.983 107.983 0 0 0 17.714 25.062 105.445 105.445 0 0 0 23.895-39.86h-83.926a8 8 0 0 1 0-16h52.065v-24.175a8 8 0 0 1 16 0v24.174h52.065a8 8 0 0 1 0 16Z" fill="#747474" class="fill-000000"/><path d="M199.407 133.608c-2.612-6.461-8.096-10.475-14.313-10.475s-11.7 4.014-14.313 10.476l-34.535 85.431a8 8 0 1 0 14.834 5.997l12.948-32.03h42.133l12.947 32.03a8 8 0 1 0 14.834-5.997Zm-28.912 43.4 14.6-36.115 14.598 36.115Z" fill="#747474" class="fill-000000"/></svg>