<svg id="Layer_1" enable-background="new 0 0 100 100" viewBox="0 0 100 100" xmlns="http://www.w3.org/2000/svg" width="300" height="300" version="1.1" xmlns:xlink="http://www.w3.org/1999/xlink" xmlns:svgjs="http://svgjs.dev/svgjs"><g width="100%" height="100%" transform="matrix(1,0,0,1,0,0)"><path clip-rule="evenodd" d="m49.9999962 2.5c21.2234612 0 38.4523888 17.2289295 38.4523888 38.4523811 0 11.0516701-5.514534 22.4267883-12.4382172 31.9788094-9.6673889 13.3407211-21.7572556 23.0669022-21.7572556 23.0669022v.0022583c-2.4858475 1.9995346-6.0279808 1.9995346-8.5138283 0v-.0022583s-12.0898666-9.726181-21.7572517-23.0669022c-6.9236927-9.552021-12.4382162-20.9271393-12.4382162-31.9788094 0-21.2234516 17.2289305-38.4523811 38.4523802-38.4523811zm0 22.6190472c8.7377396 0 15.8333397 7.0955982 15.8333397 15.833334s-7.0956001 15.8333321-15.8333397 15.8333321-15.8333321-7.0955963-15.8333321-15.8333321 7.0955963-15.833334 15.8333321-15.833334z" fill-rule="evenodd" fill="#1b1b1b" fill-opacity="1" data-original-color="#000000ff" stroke="none" stroke-opacity="1"/></g></svg>