<svg width="1080" height="1080" viewBox="0 0 1080 1080" fill="none" xmlns="http://www.w3.org/2000/svg">
<path d="M1078.51 580.492H885.608C717.104 580.492 580.508 717.091 580.508 885.592V1078.5C846.455 1058.78 1058.79 846.439 1078.51 580.492Z" fill="#1B1B1B"/>
<path d="M499.509 1078.5V885.592C499.509 717.091 362.911 580.492 194.408 580.492H1.50391C21.2229 846.439 233.561 1058.78 499.509 1078.5Z" fill="#1B1B1B"/>
<path d="M1078.51 499.497C1058.79 233.549 846.455 21.2112 580.508 1.49219V194.396C580.508 362.899 717.104 499.497 885.608 499.497H1078.51Z" fill="#1B1B1B"/>
<path d="M499.509 1.49219C233.561 21.2112 21.2229 233.549 1.50391 499.497H194.408C362.911 499.497 499.509 362.899 499.509 194.396V1.49219Z" fill="#1B1B1B"/>
<path d="M366.742 539.994C441.6 502.591 502.606 441.584 540.007 366.727C577.41 441.584 638.413 502.591 713.274 539.994C638.413 577.394 577.41 638.401 540.007 713.258C502.606 638.401 441.6 577.394 366.742 539.994Z" fill="#1B1B1B"/>
</svg>
