<svg width="1067" height="1080" viewBox="0 0 1067 1080" fill="none" xmlns="http://www.w3.org/2000/svg">
<g clip-path="url(#clip0_7511_4602)">
<path fill-rule="evenodd" clip-rule="evenodd" d="M681.698 315.503C637.831 285.835 586.258 270 533.5 270V0C639.016 0 742.162 31.6705 829.896 91.0065C917.631 150.342 986.009 234.679 1026.39 333.35C1066.77 432.022 1077.33 540.599 1056.75 645.349C1036.16 750.098 985.353 846.318 910.74 921.837C836.13 997.358 741.069 1048.79 637.58 1069.62C534.092 1090.46 426.821 1079.76 329.337 1038.9C231.854 998.022 148.533 928.811 89.911 840.008C31.2892 751.205 0 646.801 0 540H266.75C266.75 593.401 282.395 645.602 311.705 690.004C341.016 734.405 382.677 769.011 431.42 789.447C480.161 809.884 533.796 815.23 585.54 804.81C637.284 794.394 684.814 768.679 722.121 730.92C759.426 693.157 784.832 645.049 795.123 592.674C805.417 540.3 800.135 486.011 779.945 436.676C759.755 387.339 725.565 345.171 681.698 315.503Z" fill="#1B1B1B"/>
<path fill-rule="evenodd" clip-rule="evenodd" d="M266.75 0.000116944C266.75 35.457 259.85 70.5668 246.445 103.325C233.039 136.083 213.391 165.847 188.621 190.919C163.851 215.991 134.445 235.879 102.081 249.448C69.7171 263.016 35.03 270 1.16599e-05 270L0 540C70.0602 540 139.434 526.033 204.162 498.895C268.889 471.758 327.702 431.981 377.24 381.837C426.781 331.695 466.079 272.165 492.89 206.649C519.701 141.133 533.5 70.9137 533.5 0L266.75 0.000116944Z" fill="#1B1B1B"/>
</g>
<defs>
<clipPath id="clip0_7511_4602">
<rect width="1067" height="1080" fill="white"/>
</clipPath>
</defs>
</svg>
