<svg width="1103" height="1080" viewBox="0 0 1103 1080" fill="none" xmlns="http://www.w3.org/2000/svg">
<path d="M44.668 659.022C44.668 608.172 54.6879 557.817 74.157 510.839C93.6263 463.857 122.162 421.17 158.136 385.213C194.109 349.255 236.815 320.732 283.816 301.272C330.82 281.814 381.195 271.797 432.071 271.797V659.022H44.668Z" fill="#1B1B1B"/>
<path d="M44.668 659.023C44.668 709.876 54.6879 760.228 74.157 807.211C93.6263 854.191 122.162 896.878 158.136 932.835C194.109 968.792 236.815 997.315 283.816 1016.78C330.82 1036.24 381.195 1046.25 432.071 1046.25V659.023H44.668Z" fill="#1B1B1B"/>
<path d="M819.466 659.023C819.466 709.876 809.454 760.228 789.987 807.211C770.518 854.191 741.984 896.878 706.004 932.835C670.03 968.792 627.324 997.315 580.32 1016.78C533.321 1036.24 482.943 1046.25 432.07 1046.25V659.023H819.466Z" fill="#1B1B1B"/>
<path d="M1058.33 324.495C1058.33 485.068 928.097 615.24 767.453 615.24H476.578V324.495C476.578 163.921 606.809 33.75 767.453 33.75C928.097 33.75 1058.33 163.921 1058.33 324.495Z" fill="#1B1B1B"/>
</svg>
