<svg width="1103" height="1080" viewBox="0 0 1103 1080" fill="none" xmlns="http://www.w3.org/2000/svg">
<path d="M551.499 286.875C551.499 426.672 438.12 540 298.259 540H45.0195V286.875C45.0195 147.078 158.399 33.75 298.259 33.75C438.12 33.75 551.499 147.078 551.499 286.875Z" fill="#1B1B1B"/>
<path d="M551.5 793.125C551.5 653.328 664.879 540 804.74 540H1057.98V793.125C1057.98 932.922 944.6 1046.25 804.74 1046.25C664.879 1046.25 551.5 932.922 551.5 793.125Z" fill="#1B1B1B"/>
<path d="M45.0195 793.125C45.0195 932.922 158.399 1046.25 298.259 1046.25H551.499V793.125C551.499 653.328 438.12 540 298.259 540C158.399 540 45.0195 653.328 45.0195 793.125Z" fill="#1B1B1B"/>
<path d="M1057.98 286.875C1057.98 147.078 944.6 33.75 804.74 33.75H551.5V286.875C551.5 426.672 664.879 540 804.74 540C944.6 540 1057.98 426.672 1057.98 286.875Z" fill="#1B1B1B"/>
</svg>
