<svg width="1139" height="1080" viewBox="0 0 1139 1080" fill="none" xmlns="http://www.w3.org/2000/svg">
<path fill-rule="evenodd" clip-rule="evenodd" d="M626.478 227.414C589.074 227.414 552.037 234.766 517.48 249.049C482.925 263.332 451.525 284.266 425.077 310.658C398.629 337.049 377.649 368.38 363.334 402.861C350.604 433.528 343.369 466.153 341.924 499.252C341.593 506.828 337.368 513.763 330.585 517.146L238.794 562.944C232.011 566.328 227.663 573.262 227.994 580.838C229.439 613.937 236.675 646.562 249.405 677.228C263.719 711.71 284.699 743.041 311.148 769.432C337.595 795.824 368.995 816.758 403.551 831.041C438.107 845.324 475.144 852.676 512.548 852.676C549.952 852.676 586.989 845.324 621.546 831.041C656.102 816.758 687.501 795.824 713.949 769.432C740.397 743.041 761.377 711.71 775.692 677.228C788.422 646.562 795.657 613.937 797.102 580.838C797.433 573.262 801.658 566.328 808.441 562.944L900.233 517.146C907.015 513.763 911.363 506.828 911.032 499.252C909.587 466.153 902.351 433.528 889.621 402.861C875.307 368.38 854.327 337.049 827.878 310.658C801.431 284.266 770.032 263.332 735.475 249.049C700.919 234.766 663.882 227.414 626.478 227.414ZM758.049 457.243C763.621 470.665 767.088 484.838 768.35 499.264C769.011 506.818 764.603 513.763 757.821 517.146L666.029 562.944C659.247 566.328 655.081 573.272 654.421 580.826C653.158 595.252 649.691 609.425 644.12 622.847C636.963 640.088 626.473 655.754 613.249 668.949C600.024 682.144 584.325 692.612 567.047 699.753C549.769 706.895 531.25 710.57 512.548 710.57C493.847 710.57 475.328 706.895 458.05 699.753C440.772 692.612 425.072 682.144 411.848 668.949C398.624 655.754 388.134 640.088 380.977 622.847C375.405 609.425 371.938 595.252 370.676 580.826C370.015 573.272 374.423 566.328 381.205 562.944L472.997 517.146C479.779 513.763 483.945 506.818 484.606 499.264C485.868 484.838 489.335 470.665 494.906 457.243C502.063 440.002 512.553 424.336 525.777 411.14C539.002 397.945 554.701 387.477 571.98 380.337C589.258 373.195 607.776 369.52 626.478 369.52C645.179 369.52 663.699 373.195 680.976 380.337C698.254 387.477 713.954 397.945 727.178 411.14C740.402 424.336 750.893 440.002 758.049 457.243Z" fill="#1B1B1B"/>
<path fill-rule="evenodd" clip-rule="evenodd" d="M626.468 0C559.142 0 492.474 13.2323 430.272 38.9415C368.071 64.6506 311.554 102.334 263.946 149.837C216.34 197.342 178.576 253.738 152.811 315.805C128.629 374.059 115.462 436.238 113.935 499.202C113.751 506.783 109.499 513.716 102.716 517.099L10.9243 562.897C4.14193 566.281 -0.178182 573.213 0.00564457 580.794C1.53244 643.758 14.6996 705.937 38.8813 764.191C64.646 826.259 102.41 882.655 150.017 930.159C197.624 977.662 254.141 1015.35 316.344 1041.05C378.545 1066.76 445.212 1080 512.538 1080C579.865 1080 646.533 1066.76 708.734 1041.05C770.936 1015.35 827.453 977.662 875.06 930.159C922.667 882.655 960.431 826.259 986.195 764.191C1010.38 705.937 1023.54 643.758 1025.07 580.794C1025.25 573.213 1029.51 566.281 1036.29 562.897L1128.08 517.099C1134.86 513.716 1139.18 506.783 1139 499.202C1137.47 436.238 1124.31 374.059 1100.13 315.805C1074.36 253.738 1036.6 197.342 988.99 149.837C941.382 102.334 884.865 64.6507 822.664 38.9415C760.462 13.2324 693.794 0 626.468 0ZM882.602 580.793C882.856 573.214 887.096 566.281 893.879 562.897L985.67 517.099C992.453 513.716 996.79 506.782 996.53 499.203C995.041 454.904 985.578 411.198 968.553 370.187C949.946 325.36 922.672 284.629 888.289 250.321C853.906 216.012 813.088 188.797 768.164 170.229C723.241 151.661 675.093 142.104 626.468 142.104C577.843 142.104 529.695 151.661 484.772 170.229C439.848 188.797 399.03 216.012 364.647 250.321C330.264 284.629 302.99 325.36 284.383 370.187C267.358 411.198 257.892 454.904 256.405 499.203C256.15 506.782 251.911 513.716 245.128 517.099L153.337 562.897C146.554 566.281 142.221 573.214 142.475 580.793C143.962 625.092 153.429 668.797 170.453 709.81C189.061 754.636 216.335 795.367 250.717 829.675C285.1 863.984 325.919 891.199 370.842 909.767C415.765 928.334 463.914 937.891 512.538 937.891C561.163 937.891 609.312 928.334 654.235 909.767C699.158 891.199 739.977 863.984 774.36 829.675C808.742 795.367 836.016 754.636 854.625 709.81C871.649 668.797 881.114 625.092 882.602 580.793Z" fill="#1B1B1B"/>
</svg>
