<svg width="1083" height="1080" viewBox="0 0 1083 1080" fill="none" xmlns="http://www.w3.org/2000/svg">
<path d="M541.136 719.974C640.75 719.974 721.5 639.388 721.5 539.975C721.5 440.563 640.75 359.977 541.136 359.977C441.523 359.977 360.773 440.563 360.773 539.975C360.773 639.388 441.523 719.974 541.136 719.974Z" fill="#1B1B1B"/>
<path d="M541.092 0C470.036 0 399.672 13.969 334.024 41.1048C268.376 68.2436 208.729 108.018 158.481 158.161C108.237 208.307 68.3817 267.834 41.1879 333.35C13.9973 398.865 0 469.087 0 540C0 610.913 13.9973 681.134 41.1879 746.65C68.3817 812.166 108.237 871.692 158.481 921.838C208.729 971.981 268.376 1011.76 334.024 1038.89C399.672 1066.03 470.036 1080 541.092 1080V810C505.563 810 470.382 803.017 437.558 789.446C404.734 775.878 374.909 755.99 349.787 730.919C324.665 705.848 304.737 676.083 291.142 643.325C277.543 610.567 270.546 575.458 270.546 540C270.546 504.542 277.543 469.433 291.142 436.675C304.737 403.917 324.665 374.152 349.787 349.081C374.909 324.009 404.734 304.122 437.558 290.554C470.382 276.983 505.563 270 541.092 270V0Z" fill="#1B1B1B"/>
<path d="M0 540C0 610.913 13.9973 681.134 41.1879 746.65C68.3817 812.166 108.237 871.693 158.481 921.838C208.729 971.981 268.376 1011.76 334.024 1038.9C399.672 1066.03 470.036 1080 541.092 1080C612.149 1080 682.512 1066.03 748.161 1038.9C813.809 1011.76 873.456 971.981 923.703 921.838C973.948 871.693 1013.8 812.166 1041 746.65C1068.19 681.134 1082.18 610.913 1082.18 540H811.638C811.638 575.458 804.641 610.567 791.043 643.325C777.448 676.083 757.52 705.848 732.398 730.919C707.276 755.991 677.451 775.878 644.626 789.446C611.802 803.017 576.622 810 541.092 810C505.563 810 470.382 803.017 437.558 789.446C404.734 775.878 374.909 755.991 349.787 730.919C324.665 705.848 304.737 676.083 291.142 643.325C277.543 610.567 270.546 575.458 270.546 540H0Z" fill="#1B1B1B"/>
<path d="M721.432 539.979C721.432 492.239 702.429 446.457 668.606 412.699C634.78 378.941 588.905 359.977 541.069 359.977C493.234 359.977 447.358 378.941 413.532 412.699C379.706 446.457 360.703 492.239 360.703 539.979H541.069H721.432Z" fill="#1B1B1B"/>
</svg>
