<svg width="1327" height="1080" viewBox="0 0 1327 1080" fill="none" xmlns="http://www.w3.org/2000/svg">
<g clip-path="url(#clip0_7511_4586)">
<path d="M1012.71 1080C1186.92 1076.46 1327 934.397 1327 759.75C1327 674.814 1293.18 593.357 1232.98 533.299L698.422 0V331.482C698.422 386.918 720.496 440.086 759.791 479.288L885.014 604.217L885.355 604.549L1095.32 814.023C1102.14 820.824 1102.14 831.854 1095.32 838.655C1088.51 845.459 1077.45 845.459 1070.63 838.655L998.256 766.452H328.744L256.37 838.655C249.551 845.459 238.495 845.459 231.677 838.655C224.858 831.854 224.858 820.824 231.677 814.023L441.645 604.549L441.986 604.217L567.209 479.288C606.504 440.086 628.578 386.918 628.578 331.482V0L94.0207 533.299C33.8201 593.357 0 674.814 0 759.75C0 934.397 140.08 1076.46 314.29 1080H1012.71Z" fill="#1B1B1B"/>
</g>
<defs>
<clipPath id="clip0_7511_4586">
<rect width="1327" height="1080" fill="white"/>
</clipPath>
</defs>
</svg>
