<svg xmlns="http://www.w3.org/2000/svg" id="Layer_1" data-name="Layer 1" viewBox="629.84 639.42 740.32 721.16"><defs><style>.cls-1{fill:#818181;}</style></defs><title>All sVG</title><path class="cls-1" d="M1199.25,1131.28h-42.86v-85.73h42.86a42.87,42.87,0,1,1,0,85.73"/><polygon class="cls-1" points="1328.81 1045.55 1328.81 1131.28 1243.09 1131.28 1243.09 1045.55 1285.95 1088.41 1328.81 1045.55"/><polygon class="cls-1" points="1155.42 1131.28 1069.7 1131.28 1069.7 1045.55 1155.42 1131.28"/><path class="cls-1" d="M706.48,702.77c-.24,7.26-5.67,12.22-13.29,12.14-8-.06-13.44-5.48-13.2-13,.24-7.24,5.59-12.09,13.32-12.07C701.29,689.88,706.72,695.21,706.48,702.77Z"/><path class="cls-1" d="M755.4,702.65c-.14,7.14-5.67,12.26-13.18,12.26-7.8,0-13.57-5.52-13.41-12.86.16-7.1,5.67-12.15,13.29-12.19C750.09,689.8,755.56,695.05,755.4,702.65Z"/><path class="cls-1" d="M803.36,702.81c-.24,7.22-5.7,12.18-13.32,12.1-7.92-.06-13.4-5.5-13.16-13,.26-7.24,5.6-12.07,13.34-12C798.16,689.88,803.6,695.25,803.36,702.81Z"/><polygon class="cls-1" points="1076.52 1207.87 1076.28 1207.87 1076.28 1207.63 1076.52 1207.87"/><path class="cls-1" d="M1370.16,689c.16-31-25.58-49.6-49.83-49.58q-320.28.18-640.54.08c-29.31,0-49.95,20.7-49.95,49.94v488c0,32.21,19.92,52,52.31,52q181.1,0,362.2.06c2.54,0,5.27-1,7.72.93,0,19,0,38.09,0,57.12a72.69,72.69,0,0,0,7.72,32.69c2.83,5.74,6.68,10.83,10.69,16.37h-136c15.43-19.36,18.76-40.92,16.89-64.06H927.49c0,6.9.36,13.38-.06,19.83-1.52,22.85-19.43,44.87-42.76,44.49-9.06-.14-18.13,0-27.34,0v23.71h298.31V1337.2c-8.74,0-16.94.1-25.11,0-34.78-.56-54.39-20.44-54.37-55.1q0-37.1.12-74.21l-391.6-.1c-2.15,0-4.35.1-6.5,0-12.41-.7-23.36-9.26-24-20.84-.92-16-.22-32.15-.22-48.84H999.66v-24H653.77V762.82h692.8V771q0,99,0,198.1c0,2.57-.8,5.34,1,7.7,8.39,11.26,15.33,23.43,22.35,35.83v-7C1369.94,900.1,1369.59,794.55,1370.16,689Zm-23.67,48.44a6.06,6.06,0,0,1-.66,1.69H653.65c0-18.82-.52-37.33.18-55.78.48-12.06,11.27-21.34,23.69-22.15,1.91-.14,3.85,0,5.78,0h633.14c20.24,0,30.13,9.83,30.13,30Q1346.57,714.33,1346.49,737.45Z"/><path class="cls-1" d="M1076.52,1207.86l-.13-.15-.1-.07Z"/><path class="cls-1" d="M1339.58,1185.23a163.25,163.25,0,0,0,28.49-72.21c6.62-42.9-2.75-88.68-32.23-127.44-.54-.71-.94-1.77-1.79-2.08-47.11-60-132.9-84.11-205.46-51l-1,.46-1.41.65c-77.64,35.88-116.77,129-88.66,210a162.15,162.15,0,0,0,37.71,62.62l1.17,1.42.68.48a172.74,172.74,0,0,0,46.46,33.17,160.4,160.4,0,0,0,45.48,15,166.75,166.75,0,0,0,101-12.51,164.6,164.6,0,0,0,42.19-27.4q3.19-2.58,6.35-5.2a39.11,39.11,0,0,1,2.38-3.17A171.5,171.5,0,0,0,1339.58,1185.23ZM1124.85,961.61c2.31-1.36,4.68-2.6,7.07-3.8.67-.27,1.35-.56,2-.9A142.67,142.67,0,0,1,1208,942c82.57,5.37,143.8,77,137.37,158.08-.08,1-.16,1.94-.26,2.91-.12,1.22-.27,2.45-.42,3.67a146.82,146.82,0,0,1-36.58,79.68l-.85.93q-1.9,2.07-3.89,4.08l-1.1,1.1q-4.85,4.8-10.12,9.14l-1.17.94q-2.22,1.79-4.51,3.49l-1,.71a146,146,0,0,1-107.12,26.77c-61.32-8.68-111.11-56.17-123.41-117.69C1043,1055.77,1071.42,993,1124.85,961.61Z"/><path class="cls-1" d="M1318.48,1211.37l.23-.23-.16.13A.61.61,0,0,1,1318.48,1211.37Z"/><path class="cls-1" d="M964.84,839.75H706.76V816.4H964.84Z"/><path class="cls-1" d="M1028.72,839.42v-23.1h258.69v23.1Z"/><path class="cls-1" d="M706.44,882.11V859H965v23.09Z"/><path class="cls-1" d="M1028.83,882.07V858.8h258.54v23.27Z"/><path class="cls-1" d="M798.74,901.4v22.77h-92V901.4Z"/><path class="cls-1" d="M1028.71,924.18V901.39h41.44v22.79Z"/><path class="cls-1" d="M706.48,702.77c-.24,7.26-5.67,12.22-13.29,12.14-8-.06-13.44-5.48-13.2-13,.24-7.24,5.59-12.09,13.32-12.07C701.29,689.88,706.72,695.21,706.48,702.77Z"/><path class="cls-1" d="M755.4,702.65c-.14,7.14-5.67,12.26-13.18,12.26-7.8,0-13.57-5.52-13.41-12.86.16-7.1,5.67-12.15,13.29-12.19C750.09,689.8,755.56,695.05,755.4,702.65Z"/><path class="cls-1" d="M803.36,702.81c-.24,7.22-5.7,12.18-13.32,12.1-7.92-.06-13.4-5.5-13.16-13,.26-7.24,5.6-12.07,13.34-12C798.16,689.88,803.6,695.25,803.36,702.81Z"/><path class="cls-1" d="M755.4,702.65c-.14,7.14-5.67,12.26-13.18,12.26-7.8,0-13.57-5.52-13.41-12.86.16-7.1,5.67-12.15,13.29-12.19C750.09,689.8,755.56,695.05,755.4,702.65Z"/><path class="cls-1" d="M706.48,702.77c-.24,7.26-5.67,12.22-13.29,12.14-8-.06-13.44-5.48-13.2-13,.24-7.24,5.59-12.09,13.32-12.07C701.29,689.88,706.72,695.21,706.48,702.77Z"/><path class="cls-1" d="M803.36,702.81c-.24,7.22-5.7,12.18-13.32,12.1-7.92-.06-13.4-5.5-13.16-13,.26-7.24,5.6-12.07,13.34-12C798.16,689.88,803.6,695.25,803.36,702.81Z"/></svg>