<svg width="1074" height="1080" viewBox="0 0 1074 1080" fill="none" xmlns="http://www.w3.org/2000/svg">
<path d="M820.31 473.948C805.031 489.391 793.332 508.031 786.044 528.533C778.755 549.039 776.058 570.907 778.142 592.58L777.417 591.851C779.561 617.363 776.135 643.034 767.383 667.08C758.631 691.123 744.763 712.957 726.747 731.062C708.726 749.163 686.993 763.1 663.059 771.889C639.129 780.682 613.574 784.125 588.185 781.97L588.91 782.699C558.538 779.86 528.033 786.498 501.551 801.715C475.073 816.932 453.908 839.982 440.948 867.726C427.987 895.47 423.855 926.552 429.12 956.742C434.389 986.929 448.793 1014.75 470.372 1036.41C491.952 1058.07 519.656 1072.52 549.705 1077.78C579.759 1083.05 610.692 1078.87 638.295 1065.82C665.897 1052.77 688.82 1031.49 703.941 1004.87C719.063 978.253 725.646 947.601 722.792 917.086L723.558 917.815C721.413 892.307 724.836 866.632 733.588 842.586C742.34 818.544 756.212 796.709 774.228 778.604C792.248 760.503 813.981 746.566 837.911 737.777C861.845 728.984 887.396 725.542 912.79 727.696L912.024 726.967C936.833 729.207 961.807 725.12 984.628 715.084C1007.45 705.047 1027.38 689.385 1042.57 669.551C1057.76 649.717 1067.72 626.347 1071.53 601.616C1075.34 576.881 1072.87 551.583 1064.36 528.059C1055.84 504.539 1041.56 483.559 1022.82 467.062C1004.09 450.566 981.512 439.087 957.187 433.692C932.862 428.297 907.573 429.156 883.667 436.191C859.761 443.231 838.012 456.216 820.431 473.948H820.31Z" fill="#1B1B1B"/>
<path d="M522.973 687.262L522.207 686.533C543.787 688.716 565.581 686.055 586.016 678.74C606.446 671.425 625.007 659.643 640.35 644.24C655.689 628.837 667.437 610.198 674.73 589.675C682.026 569.152 684.691 547.261 682.534 525.576L683.3 526.305C681.155 500.792 684.582 475.121 693.33 451.075C702.082 427.033 715.954 405.198 733.97 387.093C751.99 368.993 773.724 355.056 797.654 346.267C821.588 337.472 847.138 334.032 872.532 336.185L871.766 335.456C902.142 338.324 932.656 331.704 959.15 316.505C985.648 301.306 1006.83 278.266 1019.81 250.526C1032.79 222.788 1036.94 191.701 1031.69 161.506C1026.44 131.311 1012.05 103.478 990.473 81.8036C968.902 60.1295 941.198 45.6684 911.144 40.3942C881.091 35.1195 850.15 39.2877 822.539 52.3303C794.928 65.3726 771.998 86.6546 756.868 113.273C741.739 139.892 735.151 170.551 738.006 201.069L737.28 200.299C739.429 225.811 736.01 251.488 727.262 275.535C718.514 299.582 704.642 321.421 686.626 339.527C668.606 357.627 646.869 371.564 622.935 380.354C598.997 389.143 573.442 392.577 548.048 390.418L548.774 391.188C527.194 389.005 505.397 391.666 484.966 398.981C464.535 406.291 445.974 418.078 430.631 433.481C415.288 448.884 403.544 467.523 396.248 488.046C388.955 508.568 386.29 530.46 388.447 552.145L387.721 551.416C389.858 576.925 386.427 602.595 377.675 626.638C368.919 650.676 355.051 672.511 337.035 690.611C319.017 708.712 297.287 722.645 273.358 731.442C249.43 740.235 223.879 743.682 198.489 741.535L199.215 742.264C168.84 739.397 138.323 746.015 111.829 761.216C85.3349 776.416 64.1522 799.454 51.1708 827.194C38.189 854.935 34.04 886.02 39.29 916.215C44.54 946.41 58.9336 974.243 80.5066 995.916C102.08 1017.59 129.783 1032.05 159.837 1037.33C189.891 1042.6 220.833 1038.43 248.442 1025.39C276.051 1012.35 298.985 991.068 314.113 964.449C329.242 937.827 335.83 907.171 332.975 876.652L333.741 877.381C331.597 851.868 335.023 826.198 343.775 802.152C352.523 778.109 366.395 756.274 384.412 738.17C402.432 720.069 424.165 706.132 448.095 697.343C472.029 688.55 497.58 685.107 522.973 687.262Z" fill="#1B1B1B"/>
<path d="M252.762 605.958C268.042 590.518 279.74 571.879 287.022 551.373C294.304 530.866 296.991 508.995 294.89 487.326L295.655 488.055C293.51 462.538 296.935 436.856 305.692 412.805C314.448 388.755 328.326 366.916 346.354 348.811C364.382 330.707 386.123 316.775 410.065 307.988C434.008 299.2 459.57 295.77 484.968 297.936L484.202 297.207C514.566 300.065 545.071 293.443 571.553 278.245C598.035 263.047 619.204 240.012 632.181 212.282C645.154 184.552 649.298 153.476 644.049 123.292C638.8 93.1086 624.408 65.2865 602.845 43.6201C581.281 21.9536 553.586 7.49745 523.544 2.22321C493.502 -3.05145 462.57 1.11303 434.971 14.1476C407.368 27.1821 384.442 48.4529 369.316 75.059C354.187 101.665 347.595 132.312 350.442 162.819L349.716 162.09C351.861 187.601 348.434 213.274 339.682 237.318C330.93 261.362 317.063 283.197 299.044 301.3C281.026 319.403 259.292 333.338 235.361 342.128C211.429 350.921 185.876 354.364 160.484 352.209L161.21 352.938C136.4 350.703 111.429 354.797 88.6124 364.838C65.7957 374.879 45.8707 390.545 30.6842 410.383C15.4977 430.217 5.54105 453.587 1.73626 478.318C-2.06813 503.053 0.402688 528.351 8.91973 551.867C17.4368 575.387 31.7251 596.363 50.46 612.856C69.1949 629.352 91.7705 640.827 116.095 646.222C140.419 651.613 165.705 650.75 189.609 643.714C213.514 636.675 235.263 623.69 252.842 605.958H252.762Z" fill="#1B1B1B"/>
</svg>
