<svg width="578" height="128" viewBox="0 0 578 128" fill="none" xmlns="http://www.w3.org/2000/svg">
<path d="M16.2921 14.2538C25.2978 5.65557 37.5264 0.636973 49.9204 0.0127213C54.1622 0.0127213 58.4166 0.0381798 62.6584 0C62.4418 4.5475 62.6584 9.10772 62.5309 13.655C61.9323 23.8199 58.1745 33.7555 51.8438 41.7295C43.6151 52.455 31.03 59.6518 17.6679 61.5116C11.8339 62.4542 5.91064 61.8554 0.038494 62.0211C0.140307 57.015 -0.178077 51.9964 0.21688 47.0031C1.36335 34.6218 7.21005 22.7627 16.2921 14.2538Z" fill="#1B1B1B"/>
<path d="M66.5869 0C71.1344 0.0509065 75.6819 -0.0254557 80.2421 0.0254508C91.5917 0.827875 102.788 5.18426 111.335 12.738C120.761 20.8266 127.219 32.3927 128.876 44.7485C129.601 50.4804 129.143 56.2762 129.424 62.0338C125.448 62.0211 121.488 62.0084 117.513 62.0338C107.743 61.7664 98.139 58.6074 89.9612 53.2829C86.1906 50.5825 82.3183 47.8439 79.4906 44.0988C73.2871 37.1693 69.071 28.4694 67.4786 19.2981C66.2813 12.9289 66.7653 6.43276 66.5869 0Z" fill="#1B1B1B"/>
<path d="M0.0470618 65.6719C4.08507 65.9012 8.13579 65.4808 12.1609 65.9266C29.3953 66.2959 46.1204 75.9768 55.0496 90.7146C60.1704 98.9688 62.9217 108.752 62.5652 118.47C62.5522 121.656 62.6033 124.827 62.514 128C56.1197 127.808 49.6614 128.33 43.3307 127.094C29.268 124.725 16.3391 116.356 8.55599 104.408C2.65839 95.7207 -0.284052 85.1099 0.0216028 74.6267C0.0216028 71.6331 0.0216086 68.6525 0.0470618 65.6719Z" fill="#1B1B1B"/>
<path d="M107.901 67.029C114.831 65.4875 121.975 65.7423 129.02 65.7423L129.327 66.0482C129.173 72.71 129.695 79.4484 128.358 86.0339C125.543 100.81 115.761 114.006 102.602 121.253C94.4115 125.816 85.0108 128.057 75.6484 127.955C72.655 127.968 69.6487 127.904 66.6554 127.992C66.6554 122.476 66.4261 116.937 67.0503 111.445C68.5025 98.1604 75.6865 85.7919 86.0171 77.4359C92.4115 72.3916 99.9269 68.7359 107.901 67.029Z" fill="#1B1B1B"/>
<path d="M182.222 96.4205C182.222 98.2692 181.582 99.833 180.303 101.113C179.094 102.323 177.565 102.927 175.717 102.927C173.939 102.927 172.445 102.323 171.238 101.113C170.028 99.833 169.424 98.2692 169.424 96.4205V30.506C169.424 28.6573 170.028 27.1285 171.238 25.9198C172.516 24.64 174.081 24 175.931 24C177.778 24 179.272 24.64 180.41 25.9198C181.617 27.1285 182.222 28.6573 182.222 30.506V96.4205Z" fill="#1B1B1B"/>
<path d="M233.595 45.875C235.443 45.875 236.972 46.5148 238.182 47.7948C239.389 49.0035 239.994 50.5323 239.994 52.381V79.4721C239.994 87.0091 237.897 92.982 233.702 97.3906C229.505 101.799 223.463 104.003 215.569 104.003C207.677 104.003 201.633 101.799 197.438 97.3906C193.314 92.982 191.251 87.0091 191.251 79.4721V52.381C191.251 50.5323 191.856 49.0035 193.065 47.7948C194.274 46.5148 195.802 45.875 197.651 45.875C199.5 45.875 201.028 46.5148 202.237 47.7948C203.446 49.0035 204.051 50.5323 204.051 52.381V79.4721C204.051 83.8095 205.011 87.0447 206.93 89.1779C208.851 91.24 211.73 92.2709 215.569 92.2709C219.481 92.2709 222.396 91.24 224.316 89.1779C226.235 87.0447 227.195 83.8095 227.195 79.4721V52.381C227.195 50.5323 227.8 49.0035 229.009 47.7948C230.217 46.5148 231.746 45.875 233.595 45.875Z" fill="#1B1B1B"/>
<path d="M278.488 44.7969C284.176 44.7969 288.371 46.1834 291.074 48.9565C293.776 51.6586 295.554 55.1781 296.406 59.5155L294.594 58.5556L295.447 56.8492C296.299 55.2137 297.615 53.4717 299.393 51.623C301.17 49.7032 303.304 48.1032 305.791 46.8234C308.352 45.4723 311.196 44.7969 314.325 44.7969C319.445 44.7969 323.32 45.8991 325.95 48.1032C328.653 50.3074 330.501 53.2583 331.497 56.9559C332.492 60.5821 332.99 64.6352 332.99 69.1147V96.4191C332.99 98.2678 332.386 99.8317 331.176 101.112C329.967 102.321 328.44 102.926 326.59 102.926C324.743 102.926 323.213 102.321 322.004 101.112C320.795 99.8317 320.19 98.2678 320.19 96.4191V69.1147C320.19 66.7683 319.907 64.6708 319.338 62.8219C318.769 60.9021 317.738 59.3735 316.244 58.2357C314.752 57.098 312.618 56.5291 309.846 56.5291C307.143 56.5291 304.833 57.098 302.912 58.2357C300.992 59.3735 299.535 60.9021 298.54 62.8219C297.615 64.6708 297.153 66.7683 297.153 69.1147V96.4191C297.153 98.2678 296.548 99.8317 295.341 101.112C294.131 102.321 292.602 102.926 290.754 102.926C288.905 102.926 287.376 102.321 286.168 101.112C284.959 99.8317 284.354 98.2678 284.354 96.4191V69.1147C284.354 66.7683 284.07 64.6708 283.501 62.8219C282.932 60.9021 281.9 59.3735 280.408 58.2357C278.915 57.098 276.781 56.5291 274.008 56.5291C271.307 56.5291 268.995 57.098 267.075 58.2357C265.156 59.3735 263.698 60.9021 262.702 62.8219C261.779 64.6708 261.317 66.7683 261.317 69.1147V96.4191C261.317 98.2678 260.712 99.8317 259.503 101.112C258.294 102.321 256.766 102.926 254.917 102.926C253.067 102.926 251.54 102.321 250.33 101.112C249.121 99.8317 248.517 98.2678 248.517 96.4191V52.3695C248.517 50.5208 249.121 48.992 250.33 47.7833C251.54 46.5033 253.067 45.8635 254.917 45.8635C256.766 45.8635 258.294 46.5033 259.503 47.7833C260.712 48.992 261.317 50.5208 261.317 52.3695V56.9559L259.716 56.6358C260.356 55.4271 261.246 54.1471 262.382 52.7961C263.52 51.374 264.907 50.0586 266.543 48.8498C268.177 47.6411 269.991 46.6812 271.981 45.97C273.973 45.1879 276.142 44.7969 278.488 44.7969Z" fill="#1B1B1B"/>
<path d="M353.562 96.4229C353.562 98.2716 352.957 99.8355 351.748 101.116C350.54 102.325 349.011 102.93 347.162 102.93C345.314 102.93 343.785 102.325 342.576 101.116C341.368 99.8355 340.763 98.2716 340.763 96.4229V52.3733C340.763 50.5246 341.368 48.9958 342.576 47.7871C343.785 46.5071 345.314 45.8673 347.162 45.8673C349.011 45.8673 350.54 46.5071 351.748 47.7871C352.957 48.9958 353.562 50.5246 353.562 52.3733V96.4229ZM347.055 38.9345C344.638 38.9345 342.931 38.5435 341.935 37.7612C340.941 36.9791 340.443 35.5926 340.443 33.6016V31.5751C340.443 29.5132 340.977 28.1265 342.042 27.4155C343.18 26.6332 344.887 26.2422 347.162 26.2422C349.651 26.2422 351.394 26.6332 352.388 27.4155C353.384 28.1976 353.882 29.5841 353.882 31.5751V33.6016C353.882 35.6637 353.348 37.0858 352.281 37.8679C351.216 38.579 349.473 38.9345 347.055 38.9345Z" fill="#1B1B1B"/>
<path d="M391.887 44.7969C397.149 44.7969 401.131 45.8991 403.832 48.1032C406.606 50.3074 408.489 53.2583 409.485 56.9559C410.552 60.5821 411.086 64.6352 411.086 69.1147V96.4191C411.086 98.2678 410.481 99.8317 409.272 101.112C408.063 102.321 406.535 102.926 404.686 102.926C402.838 102.926 401.309 102.321 400.1 101.112C398.89 99.8317 398.286 98.2678 398.286 96.4191V69.1147C398.286 66.7683 397.967 64.6708 397.327 62.8219C396.758 60.9021 395.691 59.3735 394.126 58.2357C392.563 57.098 390.323 56.5291 387.408 56.5291C384.563 56.5291 382.146 57.098 380.154 58.2357C378.236 59.3735 376.742 60.9021 375.675 62.8219C374.679 64.6708 374.181 66.7683 374.181 69.1147V96.4191C374.181 98.2678 373.578 99.8317 372.369 101.112C371.16 102.321 369.63 102.926 367.783 102.926C365.933 102.926 364.404 102.321 363.197 101.112C361.987 99.8317 361.383 98.2678 361.383 96.4191V52.3695C361.383 50.5208 361.987 48.992 363.197 47.7833C364.404 46.5033 365.933 45.8635 367.783 45.8635C369.63 45.8635 371.16 46.5033 372.369 47.7833C373.578 48.992 374.181 50.5208 374.181 52.3695V56.9559L372.582 56.6358C373.223 55.4271 374.146 54.1471 375.355 52.7961C376.564 51.374 377.987 50.0586 379.621 48.8498C381.257 47.6411 383.106 46.6812 385.167 45.97C387.23 45.1879 389.469 44.7969 391.887 44.7969Z" fill="#1B1B1B"/>
<path d="M474.407 74.4476C474.407 80.2782 473.092 85.4335 470.461 89.9129C467.901 94.3215 464.417 97.7701 460.009 100.258C455.671 102.748 450.801 103.991 445.397 103.991C439.992 103.991 435.086 102.748 430.678 100.258C426.341 97.7701 422.857 94.3215 420.225 89.9129C417.666 85.4335 416.386 80.2782 416.386 74.4476C416.386 68.617 417.666 63.4975 420.225 59.0889C422.857 54.6093 426.341 51.1252 430.678 48.6365C435.086 46.0767 439.992 44.7969 445.397 44.7969C450.801 44.7969 455.671 46.0767 460.009 48.6365C464.417 51.1252 467.901 54.6093 470.461 59.0889C473.092 63.4975 474.407 68.617 474.407 74.4476ZM461.609 74.4476C461.609 70.8213 460.862 67.6926 459.369 65.0618C457.946 62.3597 455.992 60.2622 453.502 58.769C451.085 57.2758 448.382 56.5291 445.397 56.5291C442.411 56.5291 439.672 57.2758 437.184 58.769C434.766 60.2622 432.81 62.3597 431.318 65.0618C429.895 67.6926 429.184 70.8213 429.184 74.4476C429.184 78.0029 429.895 81.1314 431.318 83.8335C432.81 86.4643 434.766 88.5264 437.184 90.0196C439.672 91.5129 442.411 92.2594 445.397 92.2594C448.382 92.2594 451.085 91.5129 453.502 90.0196C455.992 88.5264 457.946 86.4643 459.369 83.8335C460.862 81.1314 461.609 78.0029 461.609 74.4476Z" fill="#1B1B1B"/>
<path d="M522.11 45.875C523.96 45.875 525.489 46.5148 526.698 47.7948C527.906 49.0035 528.51 50.5323 528.51 52.381V79.4721C528.51 87.0091 526.414 92.982 522.217 97.3906C518.022 101.799 511.979 104.003 504.086 104.003C496.194 104.003 490.149 101.799 485.954 97.3906C481.83 92.982 479.768 87.0091 479.768 79.4721V52.381C479.768 50.5323 480.372 49.0035 481.581 47.7948C482.791 46.5148 484.318 45.875 486.168 45.875C488.017 45.875 489.545 46.5148 490.754 47.7948C491.963 49.0035 492.568 50.5323 492.568 52.381V79.4721C492.568 83.8095 493.526 87.0447 495.447 89.1779C497.367 91.24 500.246 92.2709 504.086 92.2709C507.996 92.2709 510.912 91.24 512.831 89.1779C514.752 87.0447 515.712 83.8095 515.712 79.4721V52.381C515.712 50.5323 516.317 49.0035 517.524 47.7948C518.733 46.5148 520.263 45.875 522.11 45.875Z" fill="#1B1B1B"/>
<path d="M533.728 94.0727C533.016 93.0772 532.696 91.7972 532.768 90.233C532.839 88.6687 533.763 87.3177 535.542 86.18C536.678 85.4688 537.887 85.1845 539.168 85.3267C540.446 85.3979 541.691 86.0377 542.9 87.2466C544.963 89.3085 547.131 90.9084 549.407 92.0462C551.681 93.1837 554.527 93.7526 557.939 93.7526C559.006 93.6815 560.178 93.5394 561.458 93.326C562.739 93.0416 563.841 92.4728 564.764 91.6195C565.76 90.6952 566.258 89.3085 566.258 87.4598C566.258 85.8956 565.724 84.6512 564.657 83.7268C563.592 82.8025 562.17 82.0204 560.391 81.3804C558.686 80.7404 556.765 80.1361 554.633 79.5673C552.428 78.9272 550.152 78.2163 547.806 77.434C545.53 76.6519 543.434 75.6565 541.513 74.4476C539.594 73.1678 538.029 71.4967 536.82 69.4348C535.613 67.3727 535.008 64.7773 535.008 61.6488C535.008 58.0934 536.002 55.0716 537.994 52.5829C539.986 50.0942 542.544 48.1744 545.672 46.8234C548.873 45.4723 552.215 44.7969 555.698 44.7969C557.903 44.7969 560.214 45.0812 562.632 45.6501C565.049 46.1478 567.36 47.0011 569.564 48.2099C571.769 49.3475 573.618 50.8763 575.11 52.7961C575.893 53.8627 576.355 55.1426 576.497 56.6358C576.639 58.129 575.964 59.48 574.47 60.6888C573.405 61.5421 572.16 61.9331 570.737 61.862C569.317 61.7199 568.143 61.2222 567.218 60.3689C566.009 58.8046 564.375 57.5601 562.312 56.6358C560.32 55.7114 558.01 55.2493 555.378 55.2493C554.313 55.2493 553.139 55.3915 551.859 55.6759C550.65 55.8893 549.585 56.4226 548.66 57.2758C547.735 58.0579 547.273 59.3379 547.273 61.1155C547.273 62.7509 547.806 64.0663 548.873 65.0618C549.94 65.9862 551.361 66.7683 553.139 67.4083C554.987 67.9771 556.943 68.546 559.006 69.1147C561.138 69.6836 563.308 70.3591 565.511 71.1412C567.716 71.9235 569.742 72.9544 571.591 74.2344C573.44 75.5142 574.932 77.1852 576.07 79.2472C577.209 81.2381 577.778 83.798 577.778 86.9265C577.778 90.5529 576.711 93.6461 574.577 96.2057C572.445 98.7656 569.777 100.721 566.578 102.072C563.379 103.353 560.107 103.991 556.765 103.991C552.57 103.991 548.375 103.282 544.181 101.859C539.986 100.365 536.5 97.7701 533.728 94.0727Z" fill="#1B1B1B"/>
</svg>
