<svg xmlns="http://www.w3.org/2000/svg" xmlns:xlink="http://www.w3.org/1999/xlink" version="1.1" id="Layer_1" x="0px" y="0px" style="enable-background:new 0 0 1080 1080;" xml:space="preserve" viewBox="192.07 440.13 656.67 185.49">
<g>
	<g>
		<path d="M205.34,606.55l-2.48-5.62l-1.13,5.62l-3.67,18.52h-5.99l8.21-39.69h0.65l10.91,21.44l3.24,7.18l3.24-7.18l10.69-21.44    h0.59l8.53,39.69h-5.94l-4-18.52l-1.19-5.62l-2.16,5.62l-9.61,18.52h-0.32L205.34,606.55z"/>
		<path d="M284.66,621.13c-2.23-2.99-3.35-7.33-3.35-13.01v-22.73h6.05v22.84c0,4.21,0.63,7.23,1.89,9.04    c1.26,1.82,3.33,2.73,6.21,2.73c2.88,0,4.94-0.89,6.18-2.67c1.24-1.78,1.86-4.81,1.86-9.1v-22.84h6.1v22.73    c0,5.65-1.18,9.98-3.54,12.99c-2.36,3.01-5.9,4.51-10.61,4.51C290.49,625.61,286.89,624.12,284.66,621.13z"/>
		<path d="M358.59,624.48c-2.12-0.76-3.65-1.6-4.59-2.54l2.86-5.13c0.76,0.68,1.93,1.4,3.54,2.13c1.6,0.74,3.14,1.11,4.62,1.11    c1.91,0,3.46-0.45,4.67-1.35c1.21-0.9,1.81-2.14,1.81-3.73c0-1.22-0.32-2.29-0.97-3.19c-0.65-0.9-1.44-1.65-2.38-2.24    c-0.94-0.59-2.27-1.32-4-2.19c-2.05-1.01-3.46-1.76-4.21-2.27c-3.49-2.34-5.24-5.58-5.24-9.72c0-3.42,1.13-6.04,3.4-7.86    c2.27-1.82,5.13-2.73,8.59-2.73c3.71,0,6.86,1.06,9.45,3.19l-2.86,4.91c-0.68-0.72-1.65-1.34-2.89-1.86    c-1.24-0.52-2.56-0.78-3.97-0.78c-1.8,0-3.21,0.41-4.24,1.21c-1.03,0.81-1.54,2.01-1.54,3.59c0,1.12,0.32,2.12,0.97,3    c0.65,0.88,1.47,1.65,2.46,2.29c0.99,0.65,2.33,1.44,4.02,2.38c1.62,0.9,2.86,1.61,3.73,2.13c0.86,0.52,1.67,1.14,2.43,1.86    c1.04,0.94,1.89,2.05,2.54,3.35s0.97,2.72,0.97,4.27c0,2.41-0.55,4.46-1.65,6.16c-1.1,1.69-2.61,2.97-4.54,3.83    c-1.93,0.86-4.11,1.3-6.56,1.3C362.85,625.61,360.71,625.23,358.59,624.48z"/>
		<path d="M437.1,585.33l19.12,39.74h-6.97l-3.4-7.78h-18.2l-3.4,7.78h-6.75l19.01-39.74H437.1z M434.4,602.23l-4.32,9.61h13.39    l-4.27-9.56l-2.32-5.45h-0.11L434.4,602.23z"/>
		<path d="M502.23,590.67h-10.15v-5.29h26.41v5.29h-10.26v34.4h-5.99V590.67z"/>
		<path d="M563.35,585.38h6.05v39.69h-6.05V585.38z"/>
		<path d="M616.87,585.38h6.1v34.29h11.39v5.4h-17.5V585.38z"/>
		<path d="M693.06,585.33l19.12,39.74h-6.97l-3.4-7.78h-18.2l-3.4,7.78h-6.75l19.01-39.74H693.06z M690.36,602.23l-4.32,9.61h13.39    l-4.27-9.56l-2.32-5.45h-0.11L690.36,602.23z"/>
		<path d="M755.65,621.13c-2.23-2.99-3.35-7.33-3.35-13.01v-22.73h6.05v22.84c0,4.21,0.63,7.23,1.89,9.04    c1.26,1.82,3.33,2.73,6.21,2.73c2.88,0,4.94-0.89,6.18-2.67c1.24-1.78,1.86-4.81,1.86-9.1v-22.84h6.1v22.73    c0,5.65-1.18,9.98-3.54,12.99c-2.36,3.01-5.9,4.51-10.61,4.51C761.48,625.61,757.88,624.12,755.65,621.13z"/>
		<path d="M829.57,624.48c-2.13-0.76-3.65-1.6-4.59-2.54l2.86-5.13c0.76,0.68,1.94,1.4,3.54,2.13c1.6,0.74,3.14,1.11,4.62,1.11    c1.91,0,3.46-0.45,4.67-1.35c1.21-0.9,1.81-2.14,1.81-3.73c0-1.22-0.32-2.29-0.97-3.19c-0.65-0.9-1.44-1.65-2.38-2.24    c-0.94-0.59-2.27-1.32-4-2.19c-2.05-1.01-3.46-1.76-4.21-2.27c-3.49-2.34-5.24-5.58-5.24-9.72c0-3.42,1.13-6.04,3.4-7.86    c2.27-1.82,5.13-2.73,8.59-2.73c3.71,0,6.86,1.06,9.45,3.19l-2.86,4.91c-0.68-0.72-1.65-1.34-2.89-1.86    c-1.24-0.52-2.56-0.78-3.97-0.78c-1.8,0-3.21,0.41-4.24,1.21c-1.03,0.81-1.54,2.01-1.54,3.59c0,1.12,0.32,2.12,0.97,3    c0.65,0.88,1.47,1.65,2.46,2.29c0.99,0.65,2.33,1.44,4.02,2.38c1.62,0.9,2.86,1.61,3.73,2.13c0.86,0.52,1.67,1.14,2.43,1.86    c1.04,0.94,1.89,2.05,2.54,3.35c0.65,1.3,0.97,2.72,0.97,4.27c0,2.41-0.55,4.46-1.65,6.16c-1.1,1.69-2.61,2.97-4.54,3.83    c-1.93,0.86-4.11,1.3-6.56,1.3C833.84,625.61,831.7,625.23,829.57,624.48z"/>
	</g>
	<g>
		<g>
			<path d="M602.67,475.01c-1.07,1.75-2.17,3.5-3.31,5.24l-3.42,5.25c-1.85,2.81-3.62,5.58-5.32,8.3c-1.86,2.97-3.63,5.89-5.31,8.76     c-0.34,0.56-0.67,1.13-0.99,1.69c-3.5,6.04-6.73,12.1-9.69,18.18c-2.96,6.08-5.72,12.36-8.26,18.86c-2.55,6.5-5,13.47-7.36,20.92     c-0.15,0.6-0.38,0.91-0.68,0.91c-0.46,0-1.07-0.27-1.82-0.8c-1.3-0.84-2.15-1.82-2.57-2.96c-0.42-1.14-0.63-2.47-0.63-3.99     c0-3.04,1.33-8.78,3.99-17.21c2.81-9.27,7.56-19.49,14.25-30.66c1.64-2.77,3.18-5.38,4.64-7.82c1.93-3.23,3.7-6.17,5.32-8.82     c2.05-3.36,3.86-6.25,5.43-8.67l13.56-21.54c0.23-1.06,0-1.6-0.68-1.6c-0.31,0-0.53,0.04-0.68,0.12     c-1.68,0.83-3.33,1.67-4.96,2.51c-1.64,0.83-3.29,1.67-4.96,2.5c-4.56,2.66-9.6,5.82-15.1,9.46c-4.81,3.19-10.02,6.81-15.6,10.86     c-0.82,0.59-1.64,1.19-2.47,1.8c-2.73,1.99-5.45,3.99-8.16,6.01c-7.61,5.65-15.13,11.38-22.56,17.18     c-10.07,7.86-20.08,15.94-30.03,24.22c-10.87,9.27-17.25,13.91-19.15,13.91c-0.84,0-1.58-0.21-2.22-0.63     c-0.65-0.42-1.2-0.97-1.66-1.65c-0.45-0.69-0.81-1.43-1.08-2.23c-0.27-0.79-0.4-1.57-0.4-2.33c0-1.98,1.79-5.43,5.36-10.37     c1.21-1.75,3.49-4.92,6.84-9.52c3.34-4.6,7.79-10.7,13.33-18.3c4.5-5.99,8.58-11.56,12.23-16.69c2.33-3.28,4.49-6.38,6.47-9.3     c6.94-10.2,11.76-18.25,14.47-24.16c0.23-0.83,0.34-1.55,0.34-2.16c0-1.07-0.57-1.6-1.71-1.6c-0.22,0-0.64,0.08-1.25,0.23     c-5.17,1.52-11.59,4.37-19.26,8.55c-7.53,4.1-16.37,9.48-26.53,16.13c-0.2,0.13-0.4,0.26-0.6,0.39     c-4.5,2.96-8.98,5.96-13.42,8.98c-5.27-0.18-10.38-0.25-15.35-0.23c4.77-3.42,9.47-6.69,14.09-9.81     c17.43-11.8,33.84-21.51,49.22-29.14c3.42-1.52,6.95-2.66,10.6-3.42c0.38-0.07,0.76-0.13,1.14-0.17     c0.38-0.04,0.76-0.06,1.14-0.06c1.44,0,2.75,0.31,3.93,0.91c1.18,0.61,2.18,1.43,3.02,2.46c0.83,1.02,1.48,2.16,1.94,3.41     c0.45,1.26,0.68,2.57,0.68,3.94c0,5.01-3.08,12.31-9.23,21.88c-1.12,1.75-2.26,3.48-3.4,5.21c-2.05,3.11-4.12,6.18-6.23,9.21     c-0.58,0.86-1.17,1.71-1.77,2.56c-3.87,5.55-7.9,11.06-12.08,16.53c-2.89,3.73-5.21,6.95-6.95,9.69     c-1.75,2.74-2.06,4.03-0.92,3.88c0.31,0,1.22-0.61,2.74-1.83c0.61-0.38,1.27-0.87,1.99-1.48c0.73-0.61,1.58-1.29,2.57-2.05     c10.26-8.28,20.61-16.36,31.06-24.22c0.16-0.12,0.33-0.25,0.49-0.36c3.6-2.71,7.22-5.4,10.86-8.06     c6.79-4.96,13.66-9.84,20.62-14.66c12.92-9.05,23.94-15.16,33.05-18.35c0.84-0.23,1.6-0.35,2.28-0.35c1.98,0,3.73,0.88,5.25,2.62     c1.52,1.75,2.39,3.92,2.62,6.5C610.65,460.16,608.06,465.97,602.67,475.01z"/>
		</g>
		<g>
			<path d="M590.62,493.8c-2.98-1-6.01-1.98-9.11-2.94c-7.37-2.28-15.04-4.42-22.99-6.36c-3.91-0.95-7.88-1.86-11.92-2.69     c-3.67-0.78-7.38-1.5-11.14-2.16c-3.5-0.61-7.04-1.19-10.62-1.71c-3.23-0.49-6.5-0.94-9.82-1.34c-6.65-0.84-13.5-1.52-20.63-2.09     c-4.56-0.36-8.99-0.67-13.31-0.92c-5.26-0.31-10.34-0.53-15.28-0.67c-15.86-0.47-30.25-0.09-44.05,1.12     c-24.47,2.14-48.06,5.18-67.7,18.67c-5.01,3.44-21.44,15.9-22.43,31.85c-0.47,7.45,2.67,14.39,9.06,20.07     c4.32,3.83,10.1,5.77,17.19,5.77c1.84,0,3.74-0.13,5.69-0.39c15.97-2.13,29.3-11.86,41.64-21.52     c14.23-11.16,28.58-22.12,43.31-32.61c1.55-1.11,3.1-2.21,4.66-3.31c2.3-1.62,4.61-3.23,6.92-4.83c1.36-0.94,5.39-4.83,6.97-4.78     c8.37,0.26,17.18,0.77,26.54,1.52c5.12,0.41,10.09,0.88,14.95,1.42c3.41,0.38,6.76,0.79,10.06,1.25     c5.14,0.69,10.17,1.48,15.12,2.35c0.67,0.12,1.34,0.24,2.01,0.37c4.11,0.74,8.16,1.56,12.15,2.44c9.84,2.15,19.3,4.65,28.3,7.37     c3.09,0.94,6.14,1.9,9.12,2.88c13.63,4.48,26.07,9.39,37.03,14.21l4.69-8.85C616.23,503.15,604,498.29,590.62,493.8z      M451.19,483.1c-14.26,10.23-28.57,20.4-42.64,30.88c-9.65,7.18-18.82,15.21-29.64,20.62c-8.4,4.21-23.3,9.9-31.59,2.55     c-4.12-3.66-6-7.58-5.72-11.97c0.56-9.09,10.11-18.73,18.11-24.23c17.64-12.11,39.82-14.93,62.91-16.95     c9.31-0.82,18.92-1.24,29.09-1.27C451.54,482.85,451.36,482.97,451.19,483.1z"/>
		</g>
		<g>
			<g>
				<path d="M709.84,553.92c-1.53-0.17-2.94,0.01-3.92-0.55c-0.87-0.49-1.26-1.81-2.01-2.99c-1.34,2.53-2.52,4.75-3.84,7.24      c1.37-0.02,2.7-0.42,3.58,0.05c1.06,0.56,1.74,1.86,2.69,2.96c2.08-0.28,4.48,0.55,6.69-0.59      C713.1,557.44,710.74,555.91,709.84,553.92z"/>
			</g>
			<g>
				<path d="M695.63,546.27c-1.23,2.33-2.39,4.5-3.55,6.68c2.32,1.25,4.52,2.44,6.78,3.66c1.2-2.26,2.35-4.43,3.55-6.68      C700.13,548.69,697.92,547.51,695.63,546.27z"/>
			</g>
			<g>
				<path d="M694.24,545.55c-1.19,2.24-2.33,4.38-3.52,6.63c-5.51-2.97-11-5.93-16.55-8.92l-2.23,4.19l-51.23-27.61l1.63-3.07      l4.69-8.85l1.64-3.09l51.24,27.61l-2.23,4.19C683.14,539.57,688.62,542.52,694.24,545.55z"/>
			</g>
		</g>
	</g>
</g>
</svg>