<svg xmlns="http://www.w3.org/2000/svg" xmlns:xlink="http://www.w3.org/1999/xlink" version="1.1" id="Layer_1" x="0px" y="0px" style="enable-background:new 0 0 1080 468.63;" xml:space="preserve" viewBox="152.39 177.26 771.55 114.12">
<g>
	<g>
		<path d="M227.71,183.17c-1.37-0.18-2.71-0.1-3.97,0.18c-4.58,1.04-8.22,4.83-8.85,9.75l-4.02,31.68l-10.71-39.08    c-1.22-4.44-4.87-7.55-9.14-8.28c-1.6-0.27-3.28-0.21-4.96,0.25c-6.11,1.68-9.7,7.98-8.03,14.09l9.8,35.77    c-0.08,0.08-0.15,0.18-0.21,0.27c-1.75-2.62-4.51-4.39-7.59-4.92c-1.6-0.28-3.29-0.21-4.96,0.24c-6.1,1.68-9.69,7.99-8.03,14.09    l0.01,0.04c-1.71-0.25-3.13-0.52-4.91,0.05c-3.26,1.03-6.37,2.94-8.16,5.94c-0.9,1.51-1.34,3.23-1.51,5v0.03    c-0.07,0.75-0.09,1.5-0.07,2.25c-0.01,0.05-0.01,0.1,0,0.14c-0.38,30.8,21.34,37.33,22.02,37.52c0.01,0.01,0.01,0.01,0.01,0.01    c5.5,2.35,11.67,3.3,17.54,3.18c5.28-0.11,10.61-1.17,15.48-3.25c3.56-1.51,6.89-3.59,9.75-6.24    c6.28-5.78,10.55-13.23,12.93-21.29c0.48-1.65,0.88-3.31,1.21-5c0.03-0.15,0.05-0.31,0.08-0.46c0.75-4.05,1.08-8.2,0.9-12.32    c0-0.04,0-0.06-0.01-0.1v-0.01c-0.04-0.91-0.12-1.85-0.28-2.77l0.4-3.15v-0.02l5.17-40.79    C238.43,189.7,233.99,183.96,227.71,183.17z M183.38,190.28c-0.86-3.15,0.99-6.41,4.15-7.28c0.85-0.23,1.71-0.27,2.56-0.13    c2.26,0.39,4.12,2.07,4.73,4.28l10.58,38.62l-4.28-1.73c-0.79-0.32-1.59-0.55-2.4-0.69c-2.09-0.36-4.2-0.12-6.1,0.63    L183.38,190.28z M176.54,228.46c0.85-0.23,1.71-0.27,2.56-0.12c2.26,0.38,4.12,2.06,4.72,4.27l4.64,16.92    c0.86,3.15-0.99,6.42-4.15,7.27c-0.85,0.23-1.71,0.28-2.56,0.13c-1.69-0.29-3.15-1.3-4.04-2.71c-0.3-0.48-0.54-1.01-0.7-1.58    l-0.27-0.98l-2.23-8.15l-0.01-0.03l-2.12-7.73C171.53,232.59,173.38,229.32,176.54,228.46z M227.34,251.45    c-0.01,0.09-0.02,0.18-0.04,0.27c-0.09,0.54-0.19,1.08-0.3,1.62c-0.36,1.81-0.84,3.63-1.43,5.4c-0.27,0.83-0.56,1.65-0.88,2.45    c-3.14,8.03-8.53,15.26-16,19.61c-0.62,0.37-1.25,0.71-1.91,1.03c-8.11,3.98-17.74,4.24-26.41,2.04c-1.49-0.38-2.97-0.86-4.4-1.46    c-0.09-0.04-0.18-0.08-0.26-0.12c-0.36-0.15-0.71-0.32-1.06-0.49c-1.01-0.49-1.96-1.01-2.86-1.57    c-15.76-9.72-14.52-28.73-14.52-28.73c-0.05-1.1,0.01-2.2,0.23-3.28c0.36-1.78,1.65-3.26,3.14-4.25c1.86-1.23,4.37-1.77,6.33-0.71    c1.16,0.63,1.72,1.62,2.7,3.37c0.16,0.29,0.32,0.58,0.45,0.86c0.65,1.3,1.01,2.45,1.36,3.56c0.87,2.84,1.15,4.01,1.76,6.45    c0.23,0.89,0.49,1.96,0.86,3.34c0.41,1.56,0.78,3.15,0.71,4.77c-0.05,1.18-0.28,2.85-1.43,3.5c-0.36,0.2-0.78,0.26-1.19,0.23    c-0.57-0.05-1.15-0.26-1.62-0.5c-1.05-0.54-1.96-1.34-2.75-2.2c-3.28-3.54-4.52-8.29-6.95-12.35c0.08,0.14-0.16,0.87-0.19,1.06    c-0.05,0.35-0.1,0.7-0.12,1.05c-0.06,0.73-0.08,1.47-0.05,2.21c0.06,1.47,0.3,2.93,0.68,4.35c0.65,2.41,1.7,4.74,3.08,6.82    c0.22,0.33,0.45,0.65,0.68,0.97c1.57,2.14,3.6,4.32,6.26,5c2.49,0.64,4.7-0.99,5.35-1.46c2.78-2.03,3.21-5.33,3.61-8.37    c0,0,0.21-1.6-0.2-3.43c-0.01-0.03-0.02-0.06-0.02-0.06c-0.01-0.03-0.02-0.05-0.1-0.25c0.02,0.01,0.04,0.01,0.06,0.01    c0.3,0.08,0.61,0.15,0.92,0.2c1.6,0.27,3.28,0.21,4.96-0.25c5.75-1.58,9.27-7.27,8.25-13.04c-0.05-0.35-0.13-0.7-0.23-1.04    l-0.69-2.52l5.92,2.41l0,0c-1.85,3.44-4.24,10.18-1.84,19.58c0.32,1.25,1.45,2.09,2.68,2.09c0.23,0,0.46-0.03,0.69-0.09    c1.48-0.38,2.38-1.89,2-3.37c-2.13-8.36,0.3-13.89,1.64-16.12c0,0,0,0,0,0c1.01,0.41,2,0.82,3.01,1.21    c1.26,0.51,7.63,3.1,9.02,2.6c0.78-0.27,1.42-0.9,1.71-1.69c0.12-0.31,0.18-0.64,0.18-1c0-0.12-0.01-0.23-0.03-0.33    c-0.1-0.59-0.31-1.18-0.73-1.61c-0.38-0.4-0.95-0.56-1.45-0.77c-0.97-0.41-1.97-0.79-2.95-1.19l-15.61-5.99l-2.78-1.13    c-3.03-1.23-4.5-4.69-3.26-7.72c0.55-1.34,1.56-2.41,2.79-3.04c1.1-0.57,2.4-0.8,3.69-0.58c0.42,0.08,0.84,0.19,1.24,0.36    l8.22,3.33l2.51,1.02l3.95,1.61l1.36,0.56l1.13,0.46l9.49,3.85c0.24,0.32,0.46,0.66,0.65,1.01c0.47,0.82,0.83,1.73,1.04,2.75    C227.91,246.29,227.75,248.93,227.34,251.45z M232.14,195.29l-4.82,37.98l-0.17,1.35l-3.59-1.46v0l1.04-1.26l-1.05,1.26    l-6.42-2.61L215.8,230l4.59-36.2c0.31-2.47,2.15-4.5,4.56-5.04c0.68-0.15,1.36-0.18,2.06-0.1    C230.25,189.07,232.55,192.04,232.14,195.29z"/>
		<polygon points="310.9,257.25 276.83,205.75 265.54,205.75 265.54,278.17 277.37,278.17 277.37,226.67 311.44,278.17     322.73,278.17 322.73,205.75 310.9,205.75   "/>
		<path d="M371.68,230.53c-3.85-2.23-8.32-3.36-13.28-3.36c-4.97,0-9.45,1.13-13.33,3.35c-3.88,2.23-6.98,5.34-9.21,9.26    c-2.22,3.91-3.35,8.44-3.35,13.47c0,5.03,1.13,9.56,3.35,13.47c2.23,3.91,5.32,7.03,9.21,9.26c3.88,2.23,8.36,3.35,13.33,3.35    s9.44-1.13,13.28-3.36c3.85-2.23,6.93-5.34,9.15-9.25c2.22-3.91,3.35-8.44,3.35-13.47c0-5.03-1.13-9.56-3.35-13.47    C378.61,235.87,375.53,232.76,371.68,230.53z M372.74,253.25c0,3.09-0.62,5.84-1.85,8.18c-1.22,2.32-2.92,4.16-5.05,5.46    c-2.13,1.3-4.63,1.96-7.44,1.96c-2.81,0-5.31-0.66-7.44-1.96c-2.14-1.3-3.83-3.14-5.05-5.46c-1.23-2.34-1.85-5.09-1.85-8.18    c0-3.15,0.62-5.92,1.85-8.23c1.22-2.29,2.92-4.11,5.06-5.42c2.13-1.3,4.63-1.96,7.44-1.96c2.8,0,5.31,0.66,7.44,1.96    c2.13,1.3,3.83,3.13,5.06,5.42C372.12,247.34,372.74,250.1,372.74,253.25z"/>
		<path d="M418.41,227.62c-0.79-0.1-1.64-0.16-2.53-0.16c-3.94,0-7.28,1.08-9.94,3.21c-0.91,0.73-1.7,1.53-2.38,2.4l-0.37-4.55    h-10.77v49.63h11.44v-26.27c0-4.25,1.14-7.54,3.39-9.79s5.41-3.39,9.4-3.39h5.24v-10.44l-0.92-0.2    C420.04,227.87,419.18,227.72,418.41,227.62z"/>
		<path d="M462.8,233.5c-1.41-1.65-3.09-2.99-5.03-4.01c-3.03-1.6-6.53-2.41-10.38-2.41c-4.86,0-9.12,1.17-12.66,3.49    c-3.53,2.31-6.28,5.48-8.17,9.44c-1.88,3.92-2.83,8.44-2.83,13.44c0,4.94,0.93,9.41,2.78,13.29c1.86,3.93,4.57,7.05,8.04,9.26    c3.47,2.21,7.66,3.33,12.45,3.33c4,0,7.63-0.9,10.79-2.67c2.15-1.2,3.96-2.77,5.42-4.69l0.56,6.2h10.37v-73.67H462.8V233.5z     M460.98,244.99c1.14,2.32,1.72,5.06,1.72,8.16c0,3.1-0.58,5.86-1.72,8.21c-1.13,2.31-2.73,4.14-4.76,5.44    c-2.03,1.29-4.51,1.95-7.37,1.95c-2.86,0-5.32-0.65-7.32-1.95c-2-1.29-3.55-3.12-4.61-5.42c-1.09-2.35-1.64-5.13-1.64-8.24    c0-3.04,0.55-5.76,1.64-8.08c1.07-2.28,2.62-4.11,4.63-5.43c1.99-1.32,4.45-1.99,7.31-1.99c2.86,0,5.34,0.66,7.37,1.95    C458.25,240.9,459.85,242.71,460.98,244.99z"/>
		<path d="M517.81,254.32c-2.15-2.19-5.38-3.78-9.57-4.73l-8.33-2.03c-6.1-1.52-6.1-4.41-6.1-5.36c0-1.77,0.62-3.12,1.88-4.13    c1.33-1.06,3.31-1.59,5.87-1.59c2.48,0,4.4,0.59,5.73,1.75c1.31,1.14,1.97,2.74,2.03,4.87l0.03,1.13h11.05l-0.03-1.19    c-0.07-3.25-0.9-6.1-2.47-8.47c-1.56-2.36-3.74-4.23-6.48-5.54c-2.7-1.3-5.92-1.96-9.57-1.96c-3.64,0-6.91,0.62-9.72,1.84    c-2.87,1.24-5.15,3.04-6.79,5.34c-1.66,2.32-2.49,5.09-2.49,8.24c0,3.78,1.14,6.89,3.38,9.24c2.18,2.29,5.52,4,9.93,5.08l8.3,1.93    c2.77,0.73,3.99,1.59,4.52,2.17c0.74,0.82,1.1,1.83,1.1,3.1c0,1.75-0.7,3.11-2.13,4.14c-1.53,1.11-3.82,1.67-6.78,1.67    c-2.69,0-4.83-0.62-6.35-1.83c-1.47-1.17-2.18-2.72-2.18-4.76v-1.17H481.6v1.17c0,4.87,1.81,8.82,5.37,11.76    c3.49,2.88,8.21,4.34,14.02,4.34c3.95,0,7.45-0.64,10.39-1.89c2.99-1.27,5.39-3.13,7.13-5.53c1.75-2.42,2.64-5.28,2.64-8.49    C521.15,259.64,520.03,256.58,517.81,254.32z"/>
	</g>
	<g>
		<g>
			<g>
				<path d="M593.87,238.25h-8.98v-3.7h22.35v3.7h-9v27.42h-4.37V238.25z"/>
				<path d="M612.6,242.7c3.39,10.87,5.19,16.4,5.73,19.14h0.04c0.68-2.58,2.73-9.8,5.63-19.14h4.29l-7.99,24      c-2.36,7.06-4.44,8.4-8.46,8.4c-0.48,0-1.47-0.07-2.04-0.18v-3.55c0.53,0.09,1.42,0.14,1.99,0.14c2.6,0,3.48-2.02,4.48-5.05      l-8.17-23.76H612.6z"/>
				<path d="M633.68,242.7c3.39,10.87,5.19,16.4,5.73,19.14h0.04c0.68-2.58,2.73-9.8,5.63-19.14h4.29l-7.99,24      c-2.36,7.06-4.44,8.4-8.46,8.4c-0.48,0-1.47-0.07-2.04-0.18v-3.55c0.53,0.09,1.42,0.14,1.99,0.14c2.6,0,3.48-2.02,4.48-5.05      l-8.17-23.76H633.68z"/>
				<path d="M649.88,242.7h3.6v-6.59h4.17v6.59h4.53v3.4h-4.53v13.88c0,1.85,0.46,2.63,2.4,2.63c0.62,0,1.17-0.05,1.7-0.14v3.08      c-0.94,0.33-2.33,0.4-3.14,0.4c-3.55,0-5.14-1.37-5.14-5.28v-14.58h-3.6V242.7z"/>
				<path d="M667.84,242.7c3.39,10.87,5.19,16.4,5.73,19.14h0.04c0.68-2.58,2.73-9.8,5.63-19.14h4.29l-7.99,24      c-2.36,7.06-4.44,8.4-8.46,8.4c-0.48,0-1.47-0.07-2.04-0.18v-3.55c0.53,0.09,1.42,0.14,1.99,0.14c2.6,0,3.48-2.02,4.48-5.05      l-8.17-23.76H667.84z"/>
				<path d="M688.87,242.7c2.94,9.38,4.91,15.65,5.59,18.96h0.05c0.51-2.86,4.09-13.34,5.81-18.96h4.16l-7.89,22.98h-4.57      l-7.62-22.98H688.87z"/>
				<path d="M724.64,260.41c0,1.58,0.14,3.97,0.34,5.26h-3.78c-0.16-0.78-0.32-2.05-0.34-3.4c-0.89,2.22-3.18,3.81-6.85,3.81      c-5.63,0-7.4-3.74-7.4-6.98c0-3.59,2.36-7.34,10.53-7.34c1.25,0,2.28,0,3.36,0v-2.12c0-2.12-0.61-4.22-4.28-4.22      c-3.21,0-4.27,1.5-4.63,3.87h-4.09c0.32-3.8,2.54-7.04,8.83-7.04c4.92,0,8.29,1.92,8.29,7.24V260.41z M710.69,237.92v-5.01h3.54      v5.01H710.69z M720.64,254.7c-0.89,0-2.12,0-3.48,0c-5.29,0-6.28,2.15-6.28,4.13c0,2.11,1.28,3.87,4.05,3.87      c4.34,0,5.7-2.92,5.7-7.53V254.7z M718.51,237.92v-5.01h3.56v5.01H718.51z"/>
				<path d="M731.06,232.81h4.19v5.01h-4.19V232.81z M731.06,242.7h4.19v22.98h-4.19V242.7z"/>
				<path d="M743.81,258.95c0.4,2.52,2.25,3.92,4.93,3.92c2.97,0,4.2-1.52,4.2-3.39c0-1.97-1.43-2.95-5.25-4      c-5.7-1.56-7.17-3.62-7.17-6.74c0-3.01,2.03-6.51,7.91-6.51c5.65,0,7.89,3.08,8.19,6.68h-4.11c-0.33-1.74-1.26-3.47-4.27-3.47      c-2.4,0-3.55,1.15-3.55,2.94c0,1.62,0.87,2.48,4.64,3.47c5.93,1.57,7.8,3.62,7.8,7.27c0,4.35-3.49,6.96-8.51,6.96      c-4.92,0-8.49-2.3-8.93-7.13H743.81z"/>
				<path d="M763.57,242.7c3.39,10.87,5.19,16.4,5.73,19.14h0.04c0.68-2.58,2.73-9.8,5.63-19.14h4.29l-7.99,24      c-2.36,7.06-4.44,8.4-8.46,8.4c-0.48,0-1.47-0.07-2.04-0.18v-3.55c0.53,0.09,1.42,0.14,1.99,0.14c2.6,0,3.48-2.02,4.48-5.05      l-8.17-23.76H763.57z"/>
				<path d="M784.64,242.7c3.39,10.87,5.19,16.4,5.73,19.14h0.04c0.68-2.58,2.73-9.8,5.63-19.14h4.29l-7.99,24      c-2.36,7.06-4.44,8.4-8.46,8.4c-0.48,0-1.47-0.07-2.04-0.18v-3.55c0.53,0.09,1.42,0.14,1.99,0.14c2.6,0,3.48-2.02,4.48-5.05      l-8.17-23.76H784.64z"/>
				<path d="M806.13,258.95c0.4,2.52,2.25,3.92,4.93,3.92c2.97,0,4.2-1.52,4.2-3.39c0-1.97-1.43-2.95-5.25-4      c-5.7-1.56-7.17-3.62-7.17-6.74c0-3.01,2.03-6.51,7.91-6.51c5.65,0,7.89,3.08,8.19,6.68h-4.11c-0.33-1.74-1.26-3.47-4.27-3.47      c-2.4,0-3.55,1.15-3.55,2.94c0,1.62,0.87,2.48,4.64,3.47c5.93,1.57,7.8,3.62,7.8,7.27c0,4.35-3.49,6.96-8.51,6.96      c-4.92,0-8.49-2.3-8.93-7.13H806.13z"/>
				<path d="M821.03,242.7h3.6v-6.59h4.17v6.59h4.53v3.4h-4.53v13.88c0,1.85,0.46,2.63,2.4,2.63c0.62,0,1.17-0.05,1.7-0.14v3.08      c-0.94,0.33-2.33,0.4-3.14,0.4c-3.55,0-5.14-1.37-5.14-5.28v-14.58h-3.6V242.7z"/>
				<path d="M853.77,260.41c0,1.58,0.14,3.97,0.34,5.26h-3.78c-0.16-0.78-0.32-2.05-0.34-3.4c-0.89,2.22-3.18,3.81-6.85,3.81      c-5.63,0-7.4-3.74-7.4-6.98c0-3.59,2.36-7.34,10.53-7.34c1.25,0,2.28,0,3.36,0v-2.12c0-2.12-0.61-4.22-4.28-4.22      c-3.21,0-4.27,1.5-4.63,3.87h-4.09c0.32-3.8,2.54-7.04,8.83-7.04c4.92,0,8.29,1.92,8.29,7.24V260.41z M849.76,254.7      c-0.89,0-2.12,0-3.48,0c-5.29,0-6.28,2.15-6.28,4.13c0,2.11,1.28,3.87,4.05,3.87c4.34,0,5.7-2.92,5.7-7.53V254.7z"/>
				<path d="M864.37,253.2c2.02-2.3,6.33-7.18,9.06-10.51h4.85c-2.48,2.86-5.31,5.84-7.94,8.79c2.74,4.35,6.01,9.71,8.8,14.19h-4.87      c-1.78-3.01-4.78-8.09-6.73-11.36c-0.52,0.57-2.63,2.7-3.17,3.25v8.12h-4.19v-32.86h4.19V253.2z"/>
				<path d="M899.66,259.12c0,2.96,0.04,5.43,0.09,6.55h-4.06c-0.14-0.65-0.18-1.97-0.2-3.48c-1.12,2.46-3.39,3.89-6.66,3.89      c-3.79,0-7.04-1.95-7.04-7.94V242.7h4.17v14.66c0,2.86,0.93,5.14,4.22,5.14c3.13,0,5.24-2.08,5.24-6.95V242.7h4.24V259.12z"/>
				<path d="M923.85,259.12c0,2.96,0.04,5.43,0.09,6.55h-4.06c-0.14-0.65-0.18-1.97-0.2-3.48c-1.12,2.46-3.39,3.89-6.66,3.89      c-3.79,0-7.04-1.95-7.04-7.94V242.7h4.17v14.66c0,2.86,0.93,5.14,4.22,5.14c3.13,0,5.24-2.08,5.24-6.95V242.7h4.24V259.12z"/>
			</g>
		</g>
	</g>
	<g>
		<rect x="554.42" y="197.2" width="2.54" height="93.48"/>
	</g>
</g>
</svg>