<svg id="Layer_1" enable-background="new 0 0 100 100" viewBox="0 0 100 100"
    xmlns="http://www.w3.org/2000/svg" width="300" height="300" version="1.1"
    xmlns:xlink="http://www.w3.org/1999/xlink" xmlns:svgjs="http://svgjs.dev/svgjs">
    <g width="100%" height="100%" transform="matrix(1,0,0,1,0,0)">
        <path
            d="m97.4882736 49.9826431c0 .7173615-.1690292 1.4265099-.5070953 2.0366478-.0618439.1278-.1360474.2514877-.2226257.3710442-.1566696.2308731-.3380661.4535065-.5400848.6555138l-28.5502702 28.5502662c-.8451614.8451614-1.9542236 1.2656708-3.0508041 1.2656708-1.0966949 0-2.2180824-.4205246-3.050808-1.2656708-1.6903687-1.6903687-1.6903687-4.4236984 0-6.1099548l21.170742-21.170742-75.9208559-.0041237c-2.3870521 0-4.3164725-1.9294167-4.3164725-4.3164711 0-2.3870506 1.9294205-4.3164711 4.3164725-4.3164711h75.9366837l-21.170742-21.1707439c-1.6903687-1.6779137-1.6903687-4.411356 0-6.1016178 1.6779137-1.6903667 4.4113579-1.6903667 6.1016121 0l28.5502701 28.5502701c.5400848.5277138.9070129 1.183239 1.1090393 1.8882599.0412292.1071892.0535965.2102623.0742111.3174515.0535921.2762259.0824541.5606955.0824541.8451651z"
            fill="#010c0a" fill-opacity="1" data-original-color="#000000ff" stroke="none"
            stroke-opacity="1" />
    </g>
</svg>