<svg id="Layer_1" enable-background="new 0 0 100 100" viewBox="0 0 100 100" xmlns="http://www.w3.org/2000/svg" width="300" height="300" version="1.1" xmlns:xlink="http://www.w3.org/1999/xlink" xmlns:svgjs="http://svgjs.dev/svgjs"><g width="100%" height="100%" transform="matrix(1,0,0,1,0,0)"><path d="m97.499115 9.6071739v78.0296631c0 3.9251785-3.1819992 7.1071701-7.1071777 7.1071701s-7.1071777-3.1819916-7.1071777-7.1071701v-60.8729401l-68.6517506 68.6552926c-2.7760839 2.7751007-7.276216 2.7743149-10.0513172-.0017776-2.7751012-2.7760849-2.7743082-7.2762146.0017757-10.0513153l68.651741-68.6517487h-60.8693895c-3.9251871 0-7.1071744-3.1819868-7.1071744-7.1071739s3.1819873-7.107174 7.1071744-7.107174h78.0261154c.4678955.0011795.9345169.0487943 1.3929977.1421468.2132263.04264.4086685.1208234.6147766.1812351.2405701.0610352.4777985.1345756.7107162.2203233.2439957.1037362.4813461.2224109.7107239.35536.1776733.0959485.3553543.174125.5294724.2878382.7798157.5209517 1.4498825 1.1898112 1.9722443 1.9686904.1101532.1705732.1883469.35536.2842941.5294852.1328354.2294397.251503.4667892.3553543.7107201.0874786.232327.1610413.469656.2203217.7107201.0604095.20611.1421509.4051099.1847839.6183238.087596.4555578.1316252.9184227.1314955 1.3823309z" fill="#ffffff" fill-opacity="1" data-original-color="#000000ff" stroke="none" stroke-opacity="1"/></g></svg>