<svg viewBox="0 0 24 24" xmlns="http://www.w3.org/2000/svg"><path d="M3.906 19.5H2.5a2 2 0 0 1-2-2v-15a2 2 0 0 1 2-2h19a2 2 0 0 1 2 2v15a2 2 0 0 1-2 2h-1.512M.5 5.5h23" fill="none" stroke="#747474" stroke-linecap="round" stroke-linejoin="round" class="stroke-000000"></path><path d="M4 2.75a.25.25 0 1 1-.25.25.25.25 0 0 1 .25-.25M7 2.75a.25.25 0 1 1-.25.25.25.25 0 0 1 .25-.25M10 2.75a.25.25 0 1 1-.25.25.25.25 0 0 1 .25-.25" fill="none" stroke="#747474" stroke-linecap="round" stroke-linejoin="round" class="stroke-000000"></path><circle cx="12" cy="17.5" r="6" fill="none" stroke="#747474" stroke-linecap="round" stroke-linejoin="round" class="stroke-000000"></circle><path d="M12 11.5v-3M10.5 8.5h3M7 11.5l1.287 1.287M17 11.5l-1.287 1.287M12.53 16.97l1.591-1.591M11.823 17.323a.25.25 0 1 1 0 .354.252.252 0 0 1 0-.354" fill="none" stroke="#747474" stroke-linecap="round" stroke-linejoin="round" class="stroke-000000"></path></svg>