<svg id="Layer_1" enable-background="new 0 0 100 100" viewBox="0 0 100 100" xmlns="http://www.w3.org/2000/svg" width="300" height="300" version="1.1" xmlns:xlink="http://www.w3.org/1999/xlink" xmlns:svgjs="http://svgjs.dev/svgjs"><g width="100%" height="100%" transform="matrix(1,0,0,1,0,0)"><path d="m4.1883636 5.9710779c-1.8166828 2.3626823-2.1723025 5.8982725-1.0426061 10.7752619 3.2183539 13.9985924 10.7312309 34.3669453 28.2373449 51.8730602s37.8744736 25.0189896 51.8730622 28.2373505c9.3039246 2.1467133 14.1672821-1.0509949 14.2096863-10.2909164-.0000305-.0000305.0340271-10.6019363.0340271-10.6019363.0127106-2.2933731-.9702606-4.4582291-2.560257-6.0482178-.9635925-.9635925-2.1290894-1.725502-3.4592667-2.1619644l-16.9416428-5.6716423c-2.2896576-.761898-4.6452026-.4943161-6.3466263.6289558l-8.033062 4.2749329c-1.0269051.6736221-2.378849.6763382-3.5538139.0203552-9.8995781-5.5185776-18.0297241-13.706089-23.5292549-23.8174286-.6399078-1.158886-.6210136-2.4946632.151947-3.6530571l3.9660568-7.5636444c1.220787-1.8632488 1.4883499-4.2187748.7264748-6.5084476l-5.6716384-16.9416457c-1.1488094-3.5260458-4.5717697-6.0606813-8.2101917-6.0195141l-10.6019002.0340896c-4.4808254.0159316-7.4892821 1.1291322-9.2483391 3.4344086z" fill="#1b1b1b" fill-opacity="1" data-original-color="#000000ff" stroke="none" stroke-opacity="1"/></g></svg>