<svg id="Layer_1" enable-background="new 0 0 100 100" viewBox="0 0 100 100" xmlns="http://www.w3.org/2000/svg"><path d="m29.655695 97.5c-1.7994957 0-3.4990215-.6997986-4.7986584-1.9994431-1.2996349-1.2996368-1.9994411-2.9991608-1.9994411-4.7986603s.6998062-3.4990158 1.9994411-4.7986603l35.9899292-35.889946-35.9899292-35.9899281c-1.6995258-1.6995239-2.2993565-4.1988239-1.6995258-6.4981809.5998325-2.2993569 2.3993282-4.0988531 4.7986565-4.7986574 2.2993565-.5998321 4.7986584 0 6.4981823 1.6995242l40.6886177 40.6886101c1.2996368 1.2996368 1.9994354 2.9991608 1.9994354 4.7986565s-.6997986 3.4990234-1.9994354 4.7986565l-40.688614 40.7885857c-1.199665 1.2996445-2.9991626 1.9994431-4.7986583 1.9994431z"/></svg>