<svg width="571" height="128" viewBox="0 0 571 128" fill="none" xmlns="http://www.w3.org/2000/svg">
<path fill-rule="evenodd" clip-rule="evenodd" d="M128.72 59.0345C131.243 71.0667 130.075 82.2573 125.999 91.5893L126.215 91.5853C122.721 101.149 111.097 121.159 83.732 126.896C82.6906 127.115 81.652 127.288 80.6146 127.417C78.004 127.801 75.2946 128 72.5 128C40.091 128 8.2261 101.323 1.32717 68.4133C-1.95897 52.7384 1.0121 38.4768 8.52756 27.8387C12.0184 21.1191 30.3325 4.8224 45.1118 1.65573C45.512 1.57 45.8966 1.5028 46.2665 1.45347C50.1726 0.502132 54.339 0 58.7253 0C90.5466 0 121.885 26.4307 128.72 59.0345ZM117.58 56.2759C122.945 81.872 107.035 102.62 82.0413 102.62C57.0489 102.62 32.4382 81.872 27.0725 56.2759C21.7066 30.6803 37.6174 9.93093 62.6104 9.93093C87.6026 9.93093 112.213 30.6803 117.58 56.2759ZM80.5173 88.276C99.016 88.276 110.869 73.284 106.992 54.7896C103.116 36.2957 84.976 21.3033 66.477 21.3033C47.9781 21.3033 36.1248 36.2957 40.0018 54.7896C43.8789 73.284 62.0182 88.276 80.5173 88.276ZM96.996 53.4019C99.428 65.0035 91.7906 74.408 79.936 74.408C68.0826 74.408 56.5013 65.0035 54.0692 53.4019C51.637 41.8001 59.2748 32.3952 71.1293 32.3952C82.9826 32.3952 94.564 41.8001 96.996 53.4019ZM86.1266 53.4021C87.3266 59.128 83.5573 63.7697 77.7066 63.7697C71.856 63.7697 66.1408 59.128 64.9404 53.4021C63.74 47.6763 67.5093 43.0345 73.36 43.0345C79.2106 43.0345 84.9266 47.6763 86.1266 53.4021Z" fill="#1B1B1B"/>
<path d="M234.539 100.559C234.539 101.381 235.206 102.048 236.028 102.048H247.346C248.168 102.048 248.835 101.381 248.835 100.559V46.2031H236.028C235.206 46.2031 234.539 46.8697 234.539 47.692V100.559Z" fill="#1B1B1B"/>
<path d="M235.002 37.3698C236.373 38.8097 238.463 39.5295 241.274 39.5295C244.085 39.5295 246.143 38.8097 247.445 37.3698C248.748 35.8615 249.399 34.0103 249.399 31.8162C249.399 29.4851 248.748 27.5995 247.445 26.1598C246.143 24.72 244.085 24 241.274 24C238.463 24 236.373 24.72 235.002 26.1598C233.699 27.5995 233.047 29.4851 233.047 31.8162C233.047 34.0103 233.699 35.8615 235.002 37.3698Z" fill="#1B1B1B"/>
<path fill-rule="evenodd" clip-rule="evenodd" d="M212.007 75.937C207.618 77.9946 202.27 79.0219 195.963 79.0219H184.65V100.571C184.65 101.393 183.983 102.06 183.161 102.06H171.535C170.713 102.06 170.046 101.393 170.046 100.571V27.9576C170.046 27.1353 170.713 26.4688 171.535 26.4688H183.161C183.322 26.4688 183.477 26.4942 183.621 26.5413C183.767 26.4942 183.922 26.4688 184.083 26.4688H195.963C202.27 26.4688 207.618 27.4972 212.007 29.5541C216.463 31.611 219.858 34.5592 222.188 38.3987C224.519 42.1696 225.685 46.6605 225.685 51.8713V53.5169C225.685 58.7277 224.519 63.2528 222.188 67.0923C219.858 70.8631 216.463 73.811 212.007 75.937ZM204.602 40.8669C202.614 39.7015 200.146 39.1186 197.198 39.1186H184.65V66.3725H197.198C200.146 66.3725 202.614 65.7896 204.602 64.624C206.659 63.4586 208.202 61.8472 209.23 59.7904C210.328 57.7334 210.876 55.3681 210.876 52.694C210.876 50.0201 210.328 47.6546 209.23 45.5978C208.202 43.5409 206.659 41.964 204.602 40.8669Z" fill="#1B1B1B"/>
<path d="M261.658 102.047C260.836 102.047 260.169 101.38 260.169 100.558V47.6904C260.169 46.8682 260.836 46.2016 261.658 46.2016H269.994C270.816 46.2016 271.483 46.8682 271.483 47.6904V59.9632C271.813 58.5309 272.224 57.2003 272.717 55.9718C274.225 52.1322 276.452 49.2527 279.402 47.3328C282.418 45.4131 286.155 44.4531 290.611 44.4531H291.227C297.879 44.4531 302.918 46.613 306.346 50.9324C309.774 55.1833 311.489 61.5596 311.489 70.0614V100.558C311.489 101.38 310.822 102.047 310 102.047H298.682C297.86 102.047 297.193 101.38 297.193 100.558V68.8273C297.193 65.3992 296.199 62.6223 294.211 60.4969C292.29 58.3714 289.617 57.3087 286.189 57.3087C282.692 57.3087 279.847 58.4058 277.652 60.5998C275.528 62.7252 274.465 65.6049 274.465 69.2387V100.558C274.465 101.38 273.798 102.047 272.976 102.047H261.658Z" fill="#1B1B1B"/>
<path fill-rule="evenodd" clip-rule="evenodd" d="M364.807 75.937C360.419 77.9946 355.071 79.0219 348.763 79.0219H337.451V100.571C337.451 101.393 336.784 102.06 335.962 102.06H324.335C323.513 102.06 322.846 101.393 322.846 100.571V27.9576C322.846 27.1353 323.513 26.4688 324.335 26.4688H335.962C336.122 26.4688 336.276 26.4942 336.422 26.5413C336.567 26.4942 336.722 26.4688 336.882 26.4688H348.763C355.071 26.4688 360.419 27.4972 364.807 29.5541C369.263 31.611 372.657 34.5592 374.989 38.3987C377.32 42.1696 378.485 46.6605 378.485 51.8713V53.5169C378.485 58.7277 377.32 63.2528 374.989 67.0923C372.657 70.8631 369.263 73.811 364.807 75.937ZM357.403 40.8669C355.414 39.7015 352.945 39.1186 349.997 39.1186H337.451V66.3725H349.997C352.945 66.3725 355.414 65.7896 357.403 64.624C359.459 63.4586 361.001 61.8472 362.03 59.7904C363.127 57.7334 363.675 55.3681 363.675 52.694C363.675 50.0201 363.127 47.6546 362.03 45.5978C361.001 43.5409 359.459 41.964 357.403 40.8669Z" fill="#1B1B1B"/>
<path fill-rule="evenodd" clip-rule="evenodd" d="M410.304 104.003C405.368 104.003 401.013 103.215 397.242 101.637C393.472 100.06 390.283 97.9355 387.678 95.2616C385.072 92.5177 383.085 89.4328 381.714 86.0055C380.411 82.5768 379.759 79.011 379.759 75.3083V73.1495C379.759 69.3098 380.445 65.6759 381.816 62.2477C383.256 58.751 385.278 55.6657 387.883 52.9918C390.557 50.2492 393.781 48.1238 397.552 46.6154C401.323 45.0385 405.574 44.25 410.304 44.25C415.035 44.25 419.286 45.0385 423.057 46.6154C426.828 48.1238 430.016 50.2492 432.621 52.9918C435.295 55.6657 437.318 58.751 438.69 62.2477C440.061 65.6759 440.746 69.3098 440.746 73.1495V75.3083C440.746 79.011 440.061 82.5768 438.69 86.0055C437.387 89.4328 435.432 92.5177 432.827 95.2616C430.221 97.9355 427.034 100.06 423.262 101.637C419.491 103.215 415.172 104.003 410.304 104.003ZM410.304 91.7643C413.801 91.7643 416.749 91.0095 419.149 89.5013C421.549 87.9246 423.365 85.8328 424.599 83.2274C425.834 80.5535 426.45 77.5371 426.45 74.1783C426.45 70.7497 425.799 67.7328 424.497 65.1274C423.262 62.4535 421.412 60.3623 418.943 58.8539C416.543 57.277 413.664 56.4885 410.304 56.4885C406.945 56.4885 404.031 57.277 401.563 58.8539C399.163 60.3623 397.312 62.4535 396.009 65.1274C394.707 67.7328 394.055 70.7497 394.055 74.1783C394.055 77.5371 394.672 80.5535 395.905 83.2274C397.208 85.8328 399.06 87.9246 401.46 89.5013C403.858 91.0095 406.808 91.7643 410.304 91.7643Z" fill="#1B1B1B"/>
<path d="M450.795 100.559C450.795 101.381 451.462 102.048 452.284 102.048H463.602C464.424 102.048 465.091 101.381 465.091 100.559V46.2031H452.284C451.462 46.2031 450.795 46.8697 450.795 47.692V100.559Z" fill="#1B1B1B"/>
<path d="M451.256 37.3698C452.627 38.8097 454.719 39.5295 457.53 39.5295C460.341 39.5295 462.397 38.8097 463.7 37.3698C465.002 35.8615 465.655 34.0103 465.655 31.8162C465.655 29.4851 465.002 27.5995 463.7 26.1598C462.397 24.72 460.341 24 457.53 24C454.719 24 452.627 24.72 451.256 26.1598C449.953 27.5995 449.303 29.4851 449.303 31.8162C449.303 34.0103 449.953 35.8615 451.256 37.3698Z" fill="#1B1B1B"/>
<path d="M477.914 102.047C477.09 102.047 476.425 101.38 476.425 100.558V47.6904C476.425 46.8682 477.09 46.2016 477.914 46.2016H486.248C487.07 46.2016 487.737 46.8682 487.737 47.6904V59.9632C488.069 58.5308 488.48 57.2003 488.971 55.9718C490.479 52.1322 492.708 49.2527 495.656 47.3328C498.672 45.4131 502.409 44.4531 506.867 44.4531H507.483C514.134 44.4531 519.174 46.613 522.601 50.9324C526.03 55.1833 527.743 61.5596 527.743 70.0614V100.558C527.743 101.38 527.078 102.047 526.254 102.047H514.938C514.115 102.047 513.449 101.38 513.449 100.558V68.8273C513.449 65.3992 512.454 62.6223 510.465 60.4969C508.546 58.3714 505.872 57.3087 502.444 57.3087C498.948 57.3087 496.101 58.4058 493.908 60.5998C491.782 62.7252 490.719 65.6049 490.719 69.2387V100.558C490.719 101.38 490.054 102.047 489.23 102.047H477.914Z" fill="#1B1B1B"/>
<path d="M549.488 100.823C552.847 102.125 557.099 102.776 562.241 102.776H568.774C569.596 102.776 570.263 102.109 570.263 101.287V92.0267C570.263 91.2049 569.596 90.5379 568.774 90.5379H561.521C558.778 90.5379 556.652 89.8173 555.144 88.3776C553.704 86.8694 552.985 84.7448 552.985 82.0024L553.034 56.702H568.774C569.596 56.702 570.263 56.0353 570.263 55.2132V47.7007C570.263 46.8784 569.596 46.2118 568.774 46.2118H553.055L553.085 31.9684C553.087 31.1449 552.42 30.4766 551.596 30.4766H541.204C540.382 30.4766 539.717 31.1413 539.715 31.9624L539.686 46.2118H532.259C531.438 46.2118 530.771 46.8784 530.771 47.7007V55.2132C530.771 56.0353 531.438 56.702 532.259 56.702H539.665L539.614 81.0763C539.614 86.4927 540.438 90.8118 542.083 94.0351C543.729 97.1885 546.196 99.4515 549.488 100.823Z" fill="#1B1B1B"/>
</svg>
