<svg xmlns="http://www.w3.org/2000/svg" viewBox="102.65 48.05 324.98 401.95"><g data-name="1"><path d="M265.12 450a15 15 0 0 1-7.32-1.91c-41.9-23.41-76.06-54.18-101.54-91.43-20.36-29.78-35.19-63.66-44.08-100.74-15.06-62.88-7.84-112.95-7.52-115a15 15 0 0 1 12.15-12.53l8.94-1.63a221.06 221.06 0 0 0 128-73.47 15 15 0 0 1 22.78 0 221.06 221.06 0 0 0 128 73.47l8.95 1.63a15 15 0 0 1 12.15 12.53c.31 2.1 7.54 52.17-7.53 115-8.89 37.07-23.71 71-44.08 100.74-25.47 37.25-59.64 68-101.54 91.43a15 15 0 0 1-7.36 1.91Zm-131.8-294.18a318.22 318.22 0 0 0 8.3 94.18c8.11 33.31 21.5 63.69 39.79 90.28 21.29 31 49.43 57 83.71 77.4 34.49-20.54 62.75-46.74 84.1-78 18.29-26.74 31.64-57.29 39.66-90.79a316.53 316.53 0 0 0 8.06-93.11 251.33 251.33 0 0 1-131.82-70.6 251.35 251.35 0 0 1-131.8 70.64Z" fill="#747474" class="fill-000000"/><path d="M265.12 317a15 15 0 0 1-12-6l-38.23-51a15 15 0 1 1 24-18l25.68 34.24 55.53-81a15 15 0 0 1 24.75 17l-67.35 98.3a15 15 0 0 1-12.06 6.46Z" fill="#747474" class="fill-000000"/></g></svg>