<svg width="32" height="32" viewBox="0 0 32 32" fill="none" xmlns="http://www.w3.org/2000/svg">
<path d="M12.488 14.2427C13.7391 16.4406 15.5594 18.2609 17.7573 19.512L18.936 17.8613C19.1255 17.5959 19.4058 17.4092 19.7237 17.3364C20.0417 17.2637 20.3752 17.31 20.6613 17.4667C22.5471 18.4972 24.6296 19.117 26.772 19.2853C27.1064 19.3118 27.4185 19.4634 27.6461 19.7098C27.8737 19.9561 28 20.2793 28 20.6147V26.564C28.0001 26.8941 27.8777 27.2125 27.6565 27.4576C27.4353 27.7027 27.1311 27.857 26.8027 27.8907C26.096 27.964 25.384 28 24.6667 28C13.2533 28 4 18.7467 4 7.33333C4 6.616 4.036 5.904 4.10933 5.19733C4.14301 4.86893 4.29731 4.56469 4.54239 4.34351C4.78746 4.12233 5.10587 3.99993 5.436 4H11.3853C11.7207 3.99996 12.0439 4.12634 12.2902 4.35393C12.5366 4.58153 12.6882 4.89363 12.7147 5.228C12.883 7.37039 13.5028 9.45291 14.5333 11.3387C14.69 11.6248 14.7363 11.9583 14.6636 12.2763C14.5908 12.5942 14.4041 12.8745 14.1387 13.064L12.488 14.2427ZM9.12533 13.3667L11.6587 11.5573C10.9397 10.0055 10.4471 8.35845 10.196 6.66667H6.68C6.672 6.888 6.668 7.11067 6.668 7.33333C6.66667 17.2747 14.7253 25.3333 24.6667 25.3333C24.8893 25.3333 25.112 25.3293 25.3333 25.32V21.804C23.6415 21.5529 21.9945 21.0603 20.4427 20.3413L18.6333 22.8747C17.9049 22.5916 17.1973 22.2575 16.516 21.8747L16.4387 21.8307C13.8234 20.3423 11.6577 18.1766 10.1693 15.5613L10.1253 15.484C9.74254 14.8027 9.40838 14.0951 9.12533 13.3667Z" fill="#0C0407"/>
</svg>
