<svg width="495" height="128" viewBox="0 0 495 128" fill="none" xmlns="http://www.w3.org/2000/svg">
<path d="M24.0821 -0.0078125H2.13333C0.955093 -0.0078125 0 0.947281 0 2.12552V43.4845L24.0821 -0.0078125Z" fill="#1B1B1B"/>
<path d="M0 56.7873C0.0693333 56.7903 0.139307 56.792 0.20992 56.792H33.673C36.2923 56.792 38.3503 59.0296 38.1269 61.6349L35.2314 95.4049C34.8198 100.204 41.2636 102.159 43.5977 97.9442L78.3691 35.1467C80.0158 32.1727 77.8609 28.5257 74.4568 28.5257H40.9937C38.3744 28.5257 36.3164 26.2881 36.5397 23.6831L38.5711 -0.0078125H72.3394C103.457 -0.0078125 117.406 39.1314 93.3393 58.9174L74.5259 74.3849C73.2937 75.3981 73.0511 77.1939 73.9699 78.4995L106.434 124.63C107.43 126.044 106.419 127.992 104.69 127.992H2.13333C0.955093 127.992 0 127.036 0 125.859V56.7873Z" fill="#1B1B1B"/>
<path d="M307.618 73.1395V97.1251H320.866V70.1954C320.866 67.0206 320.175 64.2496 318.789 61.8827C317.462 59.4579 315.557 57.5816 313.075 56.2544C310.591 54.8686 307.705 54.1758 304.415 54.1758C301.182 54.1758 298.324 54.8686 295.843 56.2544C295.183 56.6068 294.563 57.0007 293.981 57.4348C293.666 57.669 293.364 57.9153 293.071 58.1733V35.9922H279.823V97.1251H293.071V73.1395C293.071 71.6965 293.389 70.4264 294.025 69.3296C294.66 68.1747 295.525 67.3087 296.621 66.7317C297.719 66.0967 298.988 65.7792 300.431 65.7792C302.51 65.7792 304.214 66.4721 305.541 67.8572C306.927 69.1852 307.618 70.9457 307.618 73.1395Z" fill="#1B1B1B"/>
<path fill-rule="evenodd" clip-rule="evenodd" d="M160.421 71.9275V97.1251H146.828V35.9922H171.764C175.807 35.9922 179.357 36.7717 182.416 38.3297C185.474 39.8307 187.871 41.938 189.604 44.6509C191.334 47.364 192.2 50.4817 192.2 54.0027C192.2 57.5816 191.334 60.728 189.604 63.4409C187.871 66.0967 185.448 68.1747 182.329 69.6756C180.591 70.513 178.681 71.117 176.601 71.487L196.185 97.1251H180.078L161.845 71.9275H160.421ZM160.421 61.8827H170.121C172.834 61.8827 174.913 61.1898 176.355 59.8041C177.855 58.419 178.607 56.5425 178.607 54.1758C178.607 51.9826 177.885 50.1642 176.441 48.7212C174.998 47.2774 172.921 46.5558 170.208 46.5558H160.421V61.8827Z" fill="#1B1B1B"/>
<path fill-rule="evenodd" clip-rule="evenodd" d="M204.926 95.3034C208.506 97.1504 212.575 98.0743 217.135 98.0743C220.658 98.0743 223.89 97.4679 226.835 96.2558C229.777 95.043 232.289 93.2246 234.368 90.8005L227.094 83.5268C225.824 84.9697 224.352 86.0667 222.677 86.8176C221.003 87.5097 219.128 87.8567 217.048 87.8567C214.798 87.8567 212.835 87.3947 211.161 86.4708C209.544 85.4898 208.276 84.1332 207.352 82.4013C207.06 81.8003 206.82 81.1606 206.627 80.4816L236.792 80.4098C237.023 79.313 237.167 78.3604 237.224 77.5525C237.265 77.2505 237.297 76.956 237.323 76.6679C237.338 76.5251 237.347 76.3844 237.357 76.2454C237.371 76.0361 237.382 75.8306 237.388 75.629L237.395 75.4064L237.398 75.1277C237.398 71.0287 236.476 67.3919 234.628 64.2171C232.838 61.042 230.356 58.5601 227.181 56.7702C224.006 54.9812 220.339 54.0859 216.184 54.0859C211.911 54.0859 208.073 55.0383 204.667 56.9433C201.261 58.8482 198.547 61.4755 196.527 64.8235C194.564 68.1135 193.583 71.8661 193.583 76.0801C193.583 80.294 194.594 84.0753 196.613 87.4232C198.634 90.7711 201.406 93.3984 204.926 95.3034ZM206.63 71.3872C206.695 71.1616 206.765 70.9408 206.839 70.7245C206.966 70.3598 207.106 70.0083 207.265 69.6723C208.132 67.9404 209.315 66.6124 210.815 65.6893C212.373 64.7075 214.192 64.2171 216.27 64.2171C218.231 64.2171 219.877 64.6504 221.206 65.5164L221.384 65.6229L221.562 65.7365C221.712 65.8361 221.856 65.9412 221.997 66.051C222.134 66.1582 222.269 66.271 222.398 66.3884C223.204 67.1177 223.844 68.0393 224.322 69.1532C224.613 69.8052 224.847 70.5321 225.026 71.3347L206.63 71.3872Z" fill="#1B1B1B"/>
<path d="M260.68 98.0743C256.349 98.0743 252.424 97.1218 248.902 95.2168C245.382 93.3119 242.612 90.6847 240.59 87.3366C238.57 83.9887 237.559 80.2361 237.559 76.0801C237.559 71.8661 238.57 68.1135 240.59 64.8235C242.669 61.4755 245.467 58.8482 248.989 56.9433C252.511 55.0383 256.464 54.0859 260.853 54.0859C264.142 54.0859 267.143 54.6637 269.858 55.8178C271.24 56.3655 272.546 57.0569 273.77 57.8919C274.998 58.73 276.148 59.7127 277.217 60.8405L268.731 69.3263C267.75 68.2293 266.596 67.4213 265.268 66.9015C264.669 66.6566 264.026 66.4696 263.336 66.3399C263.022 66.2804 262.699 66.2332 262.367 66.1984C262.023 66.1622 261.671 66.1389 261.307 66.129C261.156 66.1242 261.006 66.122 260.853 66.122C260.384 66.122 259.929 66.1483 259.486 66.2L259.247 66.2308L259.098 66.2525C258.945 66.2764 258.791 66.3043 258.639 66.3345C257.602 66.543 256.637 66.9053 255.743 67.4213C254.3 68.2293 253.147 69.3834 252.28 70.8843C251.471 72.3281 251.066 74.0307 251.066 75.9935C251.066 77.9564 251.471 79.6884 252.28 81.1885C253.147 82.6894 254.33 83.8729 255.83 84.7389C257.329 85.6048 259.005 86.0381 260.853 86.0381C262.585 86.0381 264.113 85.7492 265.441 85.1722C266.826 84.5372 268.01 83.6712 268.991 82.5744L277.391 91.0602C275.197 93.369 272.715 95.1295 269.945 96.3423C267.173 97.4964 264.085 98.0743 260.68 98.0743Z" fill="#1B1B1B"/>
<path fill-rule="evenodd" clip-rule="evenodd" d="M343.489 97.9794C339.623 97.9794 336.158 97.0268 333.1 95.1211C330.097 93.2162 327.702 90.6191 325.913 87.3282C324.18 84.0384 323.313 80.2856 323.313 76.0716C323.313 71.8577 324.18 68.1051 325.913 64.815C327.702 61.5242 330.097 58.9271 333.1 57.0214C336.158 55.1165 339.623 54.1641 343.489 54.1641C346.318 54.1641 348.859 54.7124 351.11 55.8094C352.624 56.5286 353.951 57.4338 355.092 58.5247V55.0299H368.081V97.1134H355.092V93.7036C354.312 94.4413 353.436 95.0948 352.464 95.6642C352.287 95.7685 352.105 95.8705 351.92 95.9694C351.684 96.0952 351.442 96.2165 351.196 96.3339C348.887 97.4309 346.318 97.9794 343.489 97.9794ZM346.176 86.0297C349.004 86.0297 351.283 85.1059 353.015 83.2589C354.747 81.354 355.613 78.9576 355.613 76.0716C355.613 75.0898 355.511 74.1659 355.309 73.3001C355.106 72.434 354.804 71.6259 354.401 70.8759C353.649 69.375 352.553 68.2209 351.11 67.4129C350.33 66.9255 349.477 66.5756 348.552 66.3623C347.832 66.1962 347.07 66.1136 346.261 66.1136C345.339 66.1136 344.465 66.2217 343.644 66.4381C343.143 66.57 342.659 66.7423 342.195 66.9548C341.898 67.0908 341.608 67.2437 341.325 67.4129C339.939 68.2209 338.814 69.375 337.947 70.8759C337.141 72.3769 336.737 74.1088 336.737 76.0716C336.737 77.9766 337.141 79.68 337.947 81.1801C338.756 82.681 339.882 83.8645 341.325 84.7305C342.768 85.5964 344.385 86.0297 346.176 86.0297Z" fill="#1B1B1B"/>
<path d="M387.193 55.0299H373.945V97.1134H387.193V73.9936C387.193 71.2799 387.829 69.2598 389.098 67.932C390.427 66.5469 392.188 65.854 394.381 65.854C395.479 65.854 396.459 66.0271 397.326 66.3738C398.19 66.72 398.913 67.2104 399.491 67.8455L407.369 57.8874C406.216 56.6173 404.859 55.6942 403.3 55.1165C401.8 54.4814 400.038 54.1641 398.018 54.1641C393.4 54.1641 389.793 55.5213 387.193 58.2342V55.0299Z" fill="#1B1B1B"/>
<path fill-rule="evenodd" clip-rule="evenodd" d="M424.09 115.989C419.472 115.989 415.401 115.181 411.881 113.566C408.416 112.007 405.675 109.785 403.654 106.897L411.793 98.7581C413.294 100.548 414.969 101.904 416.816 102.828C418.72 103.751 421 104.213 423.656 104.213C426.947 104.213 429.515 103.406 431.362 101.789C433.267 100.172 434.221 97.8921 434.221 94.948V92.29C433.319 93.0114 432.309 93.6371 431.19 94.1687C428.88 95.2655 426.313 95.814 423.484 95.814C419.614 95.814 416.181 94.8909 413.178 93.0431C410.177 91.1962 407.811 88.6848 406.078 85.5098C404.346 82.335 403.48 78.814 403.48 74.9462C403.48 71.0203 404.346 67.4995 406.078 64.3816C407.811 61.2067 410.177 58.7248 413.178 56.9349C416.181 55.0878 419.614 54.1641 423.484 54.1641C426.37 54.1641 428.939 54.7124 431.19 55.8094C431.397 55.9021 431.6 55.9986 431.799 56.0991C432.782 56.595 433.675 57.1813 434.481 57.858V55.0299H447.469V94.602C447.469 98.9318 446.458 102.684 444.438 105.858C442.418 109.033 439.648 111.515 436.126 113.305C432.603 115.096 428.592 115.989 424.09 115.989ZM425.995 84.0384C427.842 84.0384 429.429 83.6335 430.757 82.8256C431.097 82.627 431.416 82.4122 431.715 82.182C432.631 81.4767 433.351 80.6232 433.873 79.6219C434.098 79.2095 434.288 78.7823 434.443 78.3397C434.647 77.7657 434.796 77.1655 434.887 76.5398C434.963 76.0261 435 75.4947 435 74.9462C435 73.2143 434.625 71.6554 433.873 70.2703C433.182 68.8844 432.141 67.7876 430.757 66.9795C429.429 66.1715 427.842 65.7674 425.995 65.7674C425.449 65.7674 424.924 65.8054 424.416 65.8802L424.15 65.9236L423.916 65.9668C423.413 66.068 422.929 66.2077 422.465 66.3862C422.206 66.4859 421.952 66.5979 421.707 66.7216C421.546 66.8026 421.389 66.8883 421.233 66.9795C419.847 67.7876 418.779 68.8844 418.029 70.2703C417.637 70.9918 417.347 71.7604 417.16 72.5761C416.988 73.3263 416.903 74.1165 416.903 74.9462C416.903 76.5622 417.277 78.0918 418.029 79.5355C418.779 80.9205 419.817 82.0175 421.146 82.8256C421.889 83.2597 422.701 83.5778 423.579 83.7788C424.335 83.9518 425.14 84.0384 425.995 84.0384Z" fill="#1B1B1B"/>
<path fill-rule="evenodd" clip-rule="evenodd" d="M461.93 95.3034C465.507 97.1504 469.577 98.0743 474.137 98.0743C477.659 98.0743 480.892 97.4679 483.835 96.2558C486.781 95.043 489.29 93.2246 491.369 90.8005L484.094 83.5268C482.826 84.9697 481.354 86.0667 479.679 86.8176C478.007 87.5097 476.129 87.8567 474.052 87.8567C471.8 87.8567 469.837 87.3947 468.163 86.4708C467.008 85.7709 466.032 84.8794 465.232 83.7965C465.103 83.6242 464.982 83.4465 464.863 83.2641C464.683 82.9884 464.512 82.7003 464.354 82.4013C464.062 81.8003 463.82 81.1606 463.627 80.4816L493.794 80.4098C493.908 79.8683 494.001 79.3615 494.072 78.8904C494.147 78.4068 494.197 77.9611 494.227 77.5525C494.267 77.2473 494.3 76.9491 494.327 76.6586C494.374 76.124 494.4 75.6135 494.4 75.1277C494.4 71.0287 493.476 67.3919 491.63 64.2171C489.839 61.042 487.358 58.5601 484.183 56.7702C481.006 54.9812 477.342 54.0859 473.186 54.0859C468.915 54.0859 465.075 55.0383 461.667 56.9433C458.263 58.8482 455.549 61.4755 453.529 64.8235C451.567 68.1135 450.585 71.8661 450.585 76.0801C450.585 80.294 451.594 84.0753 453.616 87.4232C455.636 90.7711 458.407 93.3984 461.93 95.3034ZM463.634 71.3872C463.806 70.78 464.017 70.2076 464.267 69.6723C464.762 68.6835 465.358 67.8268 466.059 67.1022C466.304 66.8482 466.564 66.6102 466.836 66.3884C467.146 66.1343 467.472 65.901 467.817 65.6893C469.377 64.7075 471.194 64.2171 473.272 64.2171C475.235 64.2171 476.88 64.6504 478.208 65.5164C478.738 65.8254 479.215 66.193 479.644 66.6202C480.335 67.3101 480.897 68.1543 481.324 69.1532C481.614 69.8052 481.848 70.5321 482.028 71.3347L463.634 71.3872Z" fill="#1B1B1B"/>
</svg>
