<svg width="32" height="32" viewBox="0 0 32 32" fill="none" xmlns="http://www.w3.org/2000/svg">
<path d="M3.99935 4H27.9993C28.353 4 28.6921 4.14048 28.9422 4.39052C29.1922 4.64057 29.3327 4.97971 29.3327 5.33333V26.6667C29.3327 27.0203 29.1922 27.3594 28.9422 27.6095C28.6921 27.8595 28.353 28 27.9993 28H3.99935C3.64573 28 3.30659 27.8595 3.05654 27.6095C2.80649 27.3594 2.66602 27.0203 2.66602 26.6667V5.33333C2.66602 4.97971 2.80649 4.64057 3.05654 4.39052C3.30659 4.14048 3.64573 4 3.99935 4ZM26.666 9.65067L16.0953 19.1173L5.33268 9.62133V25.3333H26.666V9.65067ZM6.01402 6.66667L16.0807 15.5493L26.002 6.66667H6.01402Z" fill="#0C0407"/>
</svg>
