<svg enable-background="new 0 0 454.753 261.955" height="262" viewBox="0 0 454.753 261.955" width="455" xmlns="http://www.w3.org/2000/svg" xmlns:xlink="http://www.w3.org/1999/xlink"><clipPath id="a"><path d="m353.843 89.426-11.165.577-75.546-87.003-264.132 104.558 448.753 95.19z"/></clipPath><path d="m3 107.558 313.674 151.397 64.366-82.498z" fill="#232323"/><path d="m316.672 261.955c-.44 0-.885-.097-1.303-.298l-313.673-151.398c-1.352-.652-2.013-2.204-1.548-3.631s1.91-2.293 3.391-2.022l378.041 68.899c1.033.188 1.892.902 2.265 1.883.374.981.208 2.085-.438 2.913l-64.368 82.499c-.584.749-1.465 1.155-2.367 1.155zm-292.432-147.477 291.558 140.723 59.828-76.682z" fill="#232323"/><path d="m3 107.558 350.843-18.132 97.91 113.322z" fill="#fff"/><path d="m451.753 205.747c-.207 0-.415-.021-.623-.065l-448.753-95.19c-1.473-.312-2.486-1.669-2.368-3.17.119-1.501 1.332-2.683 2.836-2.76l350.843-18.132c.918-.044 1.82.334 2.425 1.035l97.91 113.321c.842.975.968 2.378.313 3.487-.548.927-1.537 1.474-2.583 1.474zm-425.741-96.375 417.642 88.59-91.121-105.464z" fill="#232323"/><path d="m342.964 90.333-75.832-87.333-264.132 104.558z" fill="#fff"/><g fill="#232323"><path d="m2.998 110.558c-1.404 0-2.629-.979-2.93-2.364-.312-1.435.462-2.885 1.828-3.426l264.132-104.558c1.182-.469 2.535-.14 3.369.823l75.833 87.333c.752.866.945 2.086.495 3.142s-1.462 1.763-2.608 1.821l-339.965 17.225c-.052.002-.103.004-.154.004zm263.262-103.986-245.211 97.067 315.611-15.991z"/><path clip-path="url(#a)" d="m3.45 111.011c-1.574 0-2.896-1.227-2.992-2.82-.1-1.654 1.161-3.075 2.814-3.175l346.31-20.852c1.64-.097 3.076 1.16 3.175 2.814.1 1.654-1.161 3.075-2.814 3.175l-346.309 20.853c-.061.003-.123.005-.184.005z"/></g></svg>