<svg enable-background="new 0 0 226.596 216.499" height="217" viewBox="0 0 226.596 216.499" width="227" xmlns="http://www.w3.org/2000/svg"><g fill="#232323"><path d="m178.658 216.5c-.43 0-.866-.092-1.28-.289-70.632-33.4-115.063-89.361-139.899-130.424-26.892-44.462-37.27-81.622-37.371-81.993-.439-1.597.5-3.248 2.098-3.687 1.594-.437 3.247.5 3.687 2.097.101.364 10.313 36.865 36.818 80.642 24.401 40.301 68.018 95.211 137.23 127.941 1.498.708 2.138 2.497 1.43 3.995-.512 1.084-1.589 1.718-2.713 1.718z"/><path d="m223.593 177.274c-.574 0-1.155-.165-1.669-.509-64.651-43.376-82.196-101.786-82.911-104.251-.462-1.59.453-3.253 2.043-3.716 1.595-.459 3.255.452 3.719 2.042.17.583 17.739 58.84 80.493 100.943 1.375.923 1.742 2.787.819 4.163-.579.861-1.527 1.328-2.494 1.328z"/></g></svg>