<svg class="page-app-overview-hero-image-website" width="880" height="953" viewBox="0 0 853 924"
    fill="none" xmlns="http://www.w3.org/2000/svg" preserveAspectRatio="xMidYMid meet">
    <g clip-path="url(#clip0_6176_35223)">
        <mask id="mask0_6176_35223" style="mask-type:luminance" maskUnits="userSpaceOnUse" x="0"
            y="0" width="853" height="924">
            <path
                d="M831.555 0H21.4449C9.60121 0 0 9.60121 0 21.4449V902.555C0 914.399 9.60121 924 21.4449 924H831.555C843.399 924 853 914.399 853 902.555V21.4449C853 9.60121 843.399 0 831.555 0Z"
                fill="white"></path>
        </mask>
        <g mask="url(#mask0_6176_35223)">
            <path
                d="M831.555 0H21.4449C9.60121 0 0 9.60121 0 21.4449V902.555C0 914.399 9.60121 924 21.4449 924H831.555C843.399 924 853 914.399 853 902.555V21.4449C853 9.60121 843.399 0 831.555 0Z"
                fill="#25d366" fill-opacity="0.05"></path>
            <path
                d="M831.555 0H21.4449C9.60121 0 0 9.60121 0 21.4449V902.555C0 914.399 9.60121 924 21.4449 924H831.555C843.399 924 853 914.399 853 902.555V21.4449C853 9.60121 843.399 0 831.555 0Z"
                fill="url(#paint0_linear_6176_35223)"></path>
            <path
                d="M19.9438 27.0208C23.8522 27.0208 27.0206 23.8524 27.0206 19.944C27.0206 16.0356 23.8522 12.8672 19.9438 12.8672C16.0354 12.8672 12.867 16.0356 12.867 19.944C12.867 23.8524 16.0354 27.0208 19.9438 27.0208Z"
                fill="#25d366" fill-opacity="0.05"></path>
            <path
                d="M39.2442 27.0208C43.1526 27.0208 46.321 23.8524 46.321 19.944C46.321 16.0356 43.1526 12.8672 39.2442 12.8672C35.3358 12.8672 32.1674 16.0356 32.1674 19.944C32.1674 23.8524 35.3358 27.0208 39.2442 27.0208Z"
                fill="#25d366" fill-opacity="0.05"></path>
            <path
                d="M58.5446 27.0208C62.453 27.0208 65.6214 23.8524 65.6214 19.944C65.6214 16.0356 62.453 12.8672 58.5446 12.8672C54.6362 12.8672 51.4678 16.0356 51.4678 19.944C51.4678 23.8524 54.6362 27.0208 58.5446 27.0208Z"
                fill="#25d366" fill-opacity="0.05"></path>
            <path
                d="M75.8757 52.7578H70.7288C63.6226 52.7578 57.8619 58.5185 57.8619 65.6247V70.7716C57.8619 77.8778 63.6226 83.6385 70.7288 83.6385H75.8757C82.9819 83.6385 88.7426 77.8778 88.7426 70.7716V65.6247C88.7426 58.5185 82.9819 52.7578 75.8757 52.7578Z"
                fill="#25d366" fill-opacity="0.05"></path>
            <path
                d="M166.587 58.5469H116.406C111.077 58.5469 106.756 62.8674 106.756 68.1971C106.756 73.5267 111.077 77.8473 116.406 77.8473H166.587C171.917 77.8473 176.238 73.5267 176.238 68.1971C176.238 62.8674 171.917 58.5469 166.587 58.5469Z"
                fill="#25d366" fill-opacity="0.05"></path>
            <path
                d="M254.083 58.5469H203.902C198.573 58.5469 194.252 62.8674 194.252 68.1971C194.252 73.5267 198.573 77.8473 203.902 77.8473H254.083C259.413 77.8473 263.733 73.5267 263.733 68.1971C263.733 62.8674 259.413 58.5469 254.083 58.5469Z"
                fill="#25d366" fill-opacity="0.05"></path>
            <path
                d="M341.578 58.5469H291.397C286.068 58.5469 281.747 62.8674 281.747 68.1971C281.747 73.5267 286.068 77.8473 291.397 77.8473H341.578C346.908 77.8473 351.228 73.5267 351.228 68.1971C351.228 62.8674 346.908 58.5469 341.578 58.5469Z"
                fill="#25d366" fill-opacity="0.05"></path>
            <path
                d="M852 37.5469H1C0.447715 37.5469 0 37.9946 0 38.5469C0 39.0992 0.447715 39.5469 1 39.5469H852C852.552 39.5469 853 39.0992 853 38.5469C853 37.9946 852.552 37.5469 852 37.5469Z"
                fill="#25d366" fill-opacity="0.05"></path>
            <path
                d="M429.073 58.5469H378.892C373.563 58.5469 369.242 62.8674 369.242 68.1971C369.242 73.5267 373.563 77.8473 378.892 77.8473H429.073C434.403 77.8473 438.724 73.5267 438.724 68.1971C438.724 62.8674 434.403 58.5469 429.073 58.5469Z"
                fill="#25d366" fill-opacity="0.05"></path>
            <path
                d="M785.487 58.5469H735.306C729.977 58.5469 725.656 62.8674 725.656 68.1971C725.656 73.5267 729.977 77.8473 735.306 77.8473H785.487C790.817 77.8473 795.138 73.5267 795.138 68.1971C795.138 62.8674 790.817 58.5469 785.487 58.5469Z"
                fill="#25d366" fill-opacity="0.05"></path>
            <path
                d="M579.617 122.234H273.383C268.054 122.234 263.733 126.555 263.733 131.885C263.733 137.214 268.054 141.535 273.383 141.535H579.617C584.946 141.535 589.267 137.214 589.267 131.885C589.267 126.555 584.946 122.234 579.617 122.234Z"
                fill="#25d366" fill-opacity="0.05"></path>
            <path
                d="M787.418 180.141H65.5821C61.3183 180.141 57.8619 183.597 57.8619 187.861V356.417C57.8619 360.681 61.3183 364.138 65.5821 364.138H787.418C791.681 364.138 795.138 360.681 795.138 356.417V187.861C795.138 183.597 791.681 180.141 787.418 180.141Z"
                fill="#25d366" fill-opacity="0.05"></path>
            <path
                d="M579.617 402.734H273.383C268.054 402.734 263.733 407.055 263.733 412.385C263.733 417.714 268.054 422.035 273.383 422.035H579.617C584.946 422.035 589.267 417.714 589.267 412.385C589.267 407.055 584.946 402.734 579.617 402.734Z"
                fill="#25d366" fill-opacity="0.05"></path>
            <path
                d="M387.256 460.633H59.8313C55.9229 460.633 52.7545 463.801 52.7545 467.71C52.7545 471.618 55.9229 474.786 59.8313 474.786H387.256C391.164 474.786 394.333 471.618 394.333 467.71C394.333 463.801 391.164 460.633 387.256 460.633Z"
                fill="#25d366" fill-opacity="0.05"></path>
            <path
                d="M793.168 460.633H465.744C461.835 460.633 458.667 463.801 458.667 467.71C458.667 471.618 461.835 474.786 465.744 474.786H793.168C797.077 474.786 800.245 471.618 800.245 467.71C800.245 463.801 797.077 460.633 793.168 460.633Z"
                fill="#25d366" fill-opacity="0.05"></path>
            <path
                d="M387.256 487.656H59.8313C55.9229 487.656 52.7545 490.825 52.7545 494.733C52.7545 498.641 55.9229 501.81 59.8313 501.81H387.256C391.164 501.81 394.333 498.641 394.333 494.733C394.333 490.825 391.164 487.656 387.256 487.656Z"
                fill="#25d366" fill-opacity="0.05"></path>
            <path
                d="M793.168 487.656H465.744C461.835 487.656 458.667 490.825 458.667 494.733C458.667 498.641 461.835 501.81 465.744 501.81H793.168C797.077 501.81 800.245 498.641 800.245 494.733C800.245 490.825 797.077 487.656 793.168 487.656Z"
                fill="#25d366" fill-opacity="0.05"></path>
            <path
                d="M387.256 514.672H59.8313C55.9229 514.672 52.7545 517.84 52.7545 521.749C52.7545 525.657 55.9229 528.826 59.8313 528.826H387.256C391.164 528.826 394.333 525.657 394.333 521.749C394.333 517.84 391.164 514.672 387.256 514.672Z"
                fill="#25d366" fill-opacity="0.05"></path>
            <path
                d="M793.168 514.672H465.744C461.835 514.672 458.667 517.84 458.667 521.749C458.667 525.657 461.835 528.826 465.744 528.826H793.168C797.077 528.826 800.245 525.657 800.245 521.749C800.245 517.84 797.077 514.672 793.168 514.672Z"
                fill="#25d366" fill-opacity="0.05"></path>
            <path
                d="M387.256 541.695H59.8313C55.9229 541.695 52.7545 544.864 52.7545 548.772C52.7545 552.681 55.9229 555.849 59.8313 555.849H387.256C391.164 555.849 394.333 552.681 394.333 548.772C394.333 544.864 391.164 541.695 387.256 541.695Z"
                fill="#25d366" fill-opacity="0.05"></path>
            <path
                d="M793.168 541.695H465.744C461.835 541.695 458.667 544.864 458.667 548.772C458.667 552.681 461.835 555.849 465.744 555.849H793.168C797.077 555.849 800.245 552.681 800.245 548.772C800.245 544.864 797.077 541.695 793.168 541.695Z"
                fill="#25d366" fill-opacity="0.05"></path>
        </g>
    </g>
    <defs>
        <linearGradient id="paint0_linear_6176_35223" x1="426.5" y1="669" x2="426.5" y2="803"
            gradientUnits="userSpaceOnUse">
            <stop stop-color="white" stop-opacity="0"></stop>
            <stop offset="1" stop-color="white"></stop>
        </linearGradient>
        <clipPath id="clip0_6176_35223">
            <rect width="853" height="924" fill="white"></rect>
        </clipPath>
    </defs>
</svg>