<svg data-name="Layer 1" viewBox="0 0 48 48" xmlns="http://www.w3.org/2000/svg"><circle cx="30.763" cy="30.263" r="11.5" stroke-miterlimit="10" fill="none" stroke="#747474" stroke-width="2px" class="stroke-353535"></circle><path d="m38.687 38.688 8.34 8.339M21.496 42a20.5 20.5 0 1 1 20.5-20.5" stroke-linejoin="round" stroke-linecap="round" fill="none" stroke="#747474" stroke-width="2px" class="stroke-353535"></path><path d="M21.496 1v17.375" stroke-linecap="round" stroke-miterlimit="10" fill="none" stroke="#747474" stroke-width="2px" class="stroke-353535"></path><path d="M16.735 31.917a41.514 41.514 0 0 0-11.376 2.198" stroke-linejoin="round" stroke-linecap="round" fill="none" stroke="#747474" stroke-width="2px" class="stroke-353535"></path><path d="M5.36 8.885c3.752 1.437 9.577 2.365 16.136 2.365s12.383-.928 16.136-2.365" stroke-miterlimit="10" fill="none" stroke="#747474" stroke-width="2px" class="stroke-353535"></path><path d="M33.307 15.762C31.818 7.232 27.094 1 21.496 1c-6.793 0-12.3 9.178-12.3 20.5S14.703 42 21.496 42M18.75 21.5H.816" stroke-linejoin="round" stroke-linecap="round" fill="none" stroke="#747474" stroke-width="2px" class="stroke-353535"></path></svg>