<svg width="32" height="32" viewBox="0 0 32 32" fill="none" xmlns="http://www.w3.org/2000/svg">
<path d="M5.33335 21.3333H26.6667V6.66667H5.33335V21.3333ZM17.3333 24V26.6667H22.6667V29.3333H9.33335V26.6667H14.6667V24H3.98935C3.81426 23.999 3.6411 23.9634 3.4798 23.8953C3.31849 23.8272 3.17221 23.7279 3.04934 23.6032C2.92646 23.4785 2.82941 23.3307 2.76375 23.1684C2.69808 23.0061 2.6651 22.8324 2.66668 22.6573V5.34267C2.66668 4.60133 3.27335 4 3.98935 4H28.0107C28.7413 4 29.3333 4.59867 29.3333 5.34267V22.6573C29.3333 23.3987 28.7267 24 28.0107 24H17.3333Z" fill="#0C0407"/>
</svg>
