<svg width="32" height="32" viewBox="0 0 32 32" fill="none" xmlns="http://www.w3.org/2000/svg">
<path d="M16 31.6373L7.51467 23.152C5.83646 21.4737 4.69358 19.3355 4.23057 17.0078C3.76756 14.68 4.00521 12.2672 4.91347 10.0745C5.82172 7.88181 7.35979 6.00767 9.33318 4.6891C11.3066 3.37053 13.6266 2.66675 16 2.66675C18.3734 2.66675 20.6934 3.37053 22.6668 4.6891C24.6402 6.00767 26.1783 7.88181 27.0865 10.0745C27.9948 12.2672 28.2325 14.68 27.7694 17.0078C27.3064 19.3355 26.1636 21.4737 24.4853 23.152L16 31.6373ZM22.6 21.2666C23.9052 19.9613 24.794 18.2983 25.1541 16.4878C25.5141 14.6773 25.3292 12.8008 24.6228 11.0954C23.9163 9.39 22.7201 7.93239 21.1852 6.90687C19.6504 5.88135 17.8459 5.33398 16 5.33398C14.1541 5.33398 12.3496 5.88135 10.8148 6.90687C9.27994 7.93239 8.08367 9.39 7.37722 11.0954C6.67078 12.8008 6.48589 14.6773 6.84594 16.4878C7.20599 18.2983 8.09481 19.9613 9.40001 21.2666L16 27.8666L22.6 21.2666ZM16 17.3333C15.2928 17.3333 14.6145 17.0524 14.1144 16.5523C13.6143 16.0522 13.3333 15.3739 13.3333 14.6666C13.3333 13.9594 13.6143 13.2811 14.1144 12.781C14.6145 12.2809 15.2928 12 16 12C16.7072 12 17.3855 12.2809 17.8856 12.781C18.3857 13.2811 18.6667 13.9594 18.6667 14.6666C18.6667 15.3739 18.3857 16.0522 17.8856 16.5523C17.3855 17.0524 16.7072 17.3333 16 17.3333Z" fill="#0C0407"/>
</svg>
