<svg xmlns="http://www.w3.org/2000/svg" xmlns:xlink="http://www.w3.org/1999/xlink" version="1.1" id="Layer_1" x="0px" y="0px" style="enable-background:new 0 0 988.33 510.92;" xml:space="preserve" viewBox="158.39 214.92 671.55 81.07">
<style type="text/css">
	.st0{fill:#FFFFFF;}
	.st1{fill:none;stroke:#000000;stroke-miterlimit:10;}
	.st2{fill:#BDBCB8;}
	.st3{fill:none;}
	.st4{fill:none;stroke:#000000;stroke-width:2;stroke-miterlimit:10;}
	.st5{stroke:#000000;stroke-width:2;stroke-miterlimit:10;}
	.st6{fill:#3B6CB4;}
	.st7{stroke:#000000;stroke-width:3;stroke-miterlimit:10;}
	.st8{fill:#5060AB;}
	.st9{fill:#805E2E;}
	.st10{fill:#979797;}
	.st11{fill:#E09526;}
	.st12{fill:none;stroke:#000000;stroke-width:1.6;stroke-linecap:round;stroke-miterlimit:10;}
	.st13{display:none;}
	.st14{font-family:'FONTSPRINGDEMO-NordecoLightBold';}
	.st15{font-size:9.2046px;}
</style>
<g>
	<path d="M207.6,218.78c-0.89-0.11-1.76-0.06-2.59,0.12c-2.99,0.67-5.38,3.15-5.78,6.37l-0.45,3.53v0.01l-0.98,7.67l-1.2,9.49   l-3.52-12.83l-0.26-0.93l-2.18-7.94l-0.24-0.89l-0.8-2.95c-0.8-2.9-3.18-4.94-5.97-5.41c-1.04-0.17-2.14-0.14-3.23,0.16   c-0.58,0.16-1.12,0.38-1.62,0.66c-0.19,0.11-0.39,0.23-0.57,0.35c-1.32,0.89-2.31,2.16-2.85,3.62c-0.08,0.2-0.15,0.41-0.2,0.61   c-0.36,1.26-0.38,2.62-0.01,3.97l6.4,23.37c-0.05,0.06-0.1,0.11-0.14,0.18c-1.14-1.71-2.95-2.87-4.96-3.22   c-1.05-0.18-2.14-0.14-3.24,0.15c-3.99,1.1-6.33,5.23-5.25,9.21l0.01,0.03c-1.11-0.16-2.04-0.34-3.21,0.03   c-2.13,0.67-4.17,1.92-5.33,3.87c-0.59,0.99-0.89,2.11-0.99,3.27v0.02c-0.04,0.49-0.06,0.98-0.04,1.47c-0.01,0.03-0.01,0.06,0,0.1   c-0.25,20.12,13.94,24.4,14.39,24.52c0,0.01,0.01,0.01,0.01,0.01c3.59,1.53,7.63,2.16,11.46,2.08c3.45-0.07,6.94-0.76,10.12-2.13   c2.33-0.98,4.5-2.35,6.38-4.07c4.1-3.78,6.89-8.65,8.45-13.92c0.31-1.08,0.58-2.16,0.79-3.26c0.02-0.1,0.04-0.2,0.06-0.3   c0.5-2.65,0.71-5.36,0.59-8.05c0-0.02,0-0.04-0.01-0.07v-0.01c-0.02-0.59-0.07-1.21-0.18-1.81l0.26-2.05v-0.01l0.95-7.51l1.07-8.44   l1.36-10.7C214.62,223.05,211.71,219.3,207.6,218.78z M178.64,223.44c-0.06-0.21-0.1-0.42-0.11-0.63c-0.03-0.25-0.03-0.5-0.01-0.75   c0.14-1.56,1.23-2.95,2.83-3.39c0.17-0.05,0.35-0.08,0.52-0.11c0.38-0.05,0.76-0.04,1.15,0.02h0.01c1.06,0.19,1.98,0.8,2.57,1.66   c0.21,0.32,0.38,0.67,0.5,1.04c0.01,0.03,0.02,0.06,0.02,0.09l2.05,7.51l0.26,0.93l4.6,16.79l-2.79-1.14   c-0.51-0.2-1.04-0.36-1.57-0.45c-1.36-0.23-2.75-0.07-3.99,0.41L178.64,223.44z M174.17,248.38c0.55-0.15,1.11-0.18,1.67-0.08   c1.48,0.25,2.7,1.35,3.09,2.79l3.03,11.05c0.57,2.06-0.65,4.2-2.71,4.76c-0.55,0.15-1.11,0.18-1.67,0.08   c-1.1-0.19-2.06-0.84-2.64-1.77c-0.19-0.31-0.36-0.66-0.45-1.03l-0.18-0.64l-1.46-5.32v-0.02l-1.39-5.05   C170.89,251.08,172.1,248.94,174.17,248.38z M207.37,263.4c-0.01,0.06-0.02,0.12-0.03,0.18c-0.06,0.35-0.12,0.7-0.19,1.06   c-0.24,1.19-0.54,2.37-0.93,3.53c-0.17,0.54-0.37,1.08-0.57,1.6c-2.05,5.25-5.58,9.97-10.45,12.82c-0.41,0.24-0.82,0.46-1.25,0.67   c-5.3,2.61-11.6,2.78-17.26,1.34c-0.97-0.25-1.95-0.57-2.87-0.96c-0.06-0.02-0.12-0.05-0.17-0.07c-0.24-0.1-0.46-0.21-0.7-0.32   c-0.66-0.32-1.28-0.66-1.87-1.02c-10.3-6.35-9.49-18.78-9.49-18.78c-0.03-0.71,0.01-1.44,0.15-2.14c0.24-1.16,1.08-2.13,2.05-2.78   c1.21-0.8,2.85-1.15,4.13-0.46c0.76,0.41,1.12,1.06,1.76,2.2c0.11,0.19,0.2,0.38,0.29,0.56c0.42,0.84,0.66,1.6,0.89,2.32   c0.57,1.86,0.76,2.62,1.15,4.21c0.15,0.58,0.32,1.28,0.56,2.19c0.27,1.02,0.51,2.05,0.46,3.12c-0.04,0.77-0.19,1.86-0.94,2.28   c-0.24,0.13-0.5,0.17-0.78,0.15c-0.37-0.02-0.75-0.17-1.06-0.32c-0.69-0.35-1.28-0.88-1.8-1.44c-2.14-2.31-2.96-5.42-4.54-8.07   c0.05,0.09-0.11,0.57-0.12,0.69c-0.04,0.23-0.07,0.45-0.08,0.69c-0.04,0.48-0.05,0.96-0.03,1.44c0.04,0.97,0.19,1.92,0.45,2.84   c0.42,1.58,1.1,3.1,2.01,4.46c0.14,0.21,0.29,0.43,0.44,0.63c1.03,1.4,2.36,2.83,4.09,3.27c1.63,0.41,3.08-0.65,3.5-0.96   c1.81-1.32,2.1-3.48,2.36-5.47c0,0,0.14-1.05-0.13-2.25c0-0.02-0.01-0.03-0.01-0.03c-0.01-0.02-0.02-0.03-0.06-0.17   c0.01,0.01,0.02,0.01,0.04,0.02c0.19,0.05,0.4,0.1,0.6,0.13c1.04,0.18,2.14,0.14,3.23-0.16c3.76-1.04,6.07-4.75,5.39-8.52   c-0.03-0.23-0.08-0.45-0.15-0.68l-0.45-1.64l3.87,1.58c-0.84,1.58-1.86,4.2-1.86,7.73c0,1.52,0.19,3.21,0.66,5.06   c0.21,0.82,0.94,1.36,1.75,1.36c0.15,0,0.3-0.02,0.45-0.06c0.97-0.24,1.55-1.23,1.31-2.2c-1.39-5.46,0.19-9.08,1.07-10.53   c0.66,0.28,1.31,0.54,1.97,0.8c0.82,0.33,4.99,2.03,5.9,1.71c0.51-0.18,0.93-0.59,1.11-1.11c0.07-0.19,0.12-0.41,0.12-0.65   c0-0.07-0.01-0.15-0.02-0.22c-0.07-0.38-0.2-0.76-0.48-1.05c-0.25-0.26-0.62-0.37-0.95-0.5c-0.63-0.27-1.28-0.51-1.92-0.78   l-10.2-3.91l-1.81-0.74c-1.98-0.8-2.94-3.07-2.14-5.04c0.36-0.88,1.02-1.58,1.82-1.99c0.72-0.37,1.58-0.52,2.41-0.37   c0.28,0.05,0.54,0.12,0.81,0.24l5.37,2.18l1.64,0.67l2.58,1.05l0.89,0.37l0.74,0.3l6.2,2.52c0.15,0.2,0.3,0.43,0.42,0.67   c0.31,0.53,0.54,1.13,0.68,1.79C207.73,260.03,207.63,261.76,207.37,263.4z M208.32,243.93l-0.96,7.59l-0.11,0.88l-2.35-0.95   l-4.19-1.71l-0.89-0.36l1.33-10.53l1-7.86l0.67-5.26c0.2-1.62,1.4-2.94,2.99-3.3c0.44-0.1,0.89-0.12,1.35-0.06   c2.11,0.27,3.61,2.21,3.35,4.33l-1.14,8.97L208.32,243.93z"/>
	<polygon points="265.47,268.54 237.73,229.26 231.21,229.26 231.21,279.64 237.53,279.64 237.53,240.43 265.26,279.64    271.78,279.64 271.78,229.26 265.47,229.26  "/>
	<path d="M295.12,243.32c-10.18,0-18.46,8.28-18.46,18.45c0,10.18,8.28,18.46,18.46,18.46c10.18,0,18.45-8.28,18.45-18.46   C313.58,251.59,305.3,243.32,295.12,243.32z M295.2,274.13c-6.85,0-12.21-5.43-12.21-12.36c0-6.94,5.37-12.36,12.21-12.36   c6.88,0,12.07,5.31,12.07,12.36C307.27,268.69,301.96,274.13,295.2,274.13z"/>
	<path d="M318.46,260.96v18.67h6.31v-18.67c0-7.22,2.95-11.07,8.52-11.12l0.41,0v-6.09l-0.42,0   C323.87,243.8,318.46,250.08,318.46,260.96z"/>
	<path d="M366.85,229.26v20.08l-0.76-0.9c-2.81-3.35-6.7-5.12-11.24-5.12c-10.18,0-18.45,8.28-18.45,18.45   c0,10.18,8.28,18.46,18.45,18.46c10.14,0,18.39-8.28,18.39-18.46v-32.51H366.85z M354.85,274.13c-6.92,0-12.14-5.31-12.14-12.36   c0-6.94,5.34-12.36,12.14-12.36c6.81,0,12.15,5.42,12.15,12.36C367,268.69,361.66,274.13,354.85,274.13z"/>
	<path d="M392.87,258.92c-4.41-0.96-8.22-1.79-8.22-5.2c0-2.88,2.74-4.9,6.65-4.9c3.72,0,6.54,1.72,7.02,4.27l0.06,0.34h6.03   l-0.03-0.45c-0.45-5.88-5.52-9.67-12.93-9.67c-7.6,0-13.11,4.16-13.11,9.89c0,7.71,6.48,9.12,12.2,10.36   c4.67,1.01,8.7,1.89,8.73,5.82c0,2.54-1.96,5.26-7.46,5.26c-4.29,0-7.5-1.92-7.98-4.78l-0.06-0.35h-6.03l0.03,0.45   c0.53,7.05,7.57,10.26,13.88,10.26c4.88,0,8.89-1.33,11.28-3.75c1.78-1.79,2.66-4.13,2.63-6.94   C405.46,261.67,398.77,260.21,392.87,258.92z"/>
</g>
<path class="st8" d="M422.92,240.96c0-2.92,0.73-5.47,2.19-7.64c1.46-2.17,3.51-3.86,6.14-5.08c2.63-1.22,5.7-1.83,9.21-1.83  c3.17,0,5.93,0.56,8.3,1.68c2.36,1.12,4.25,2.73,5.66,4.82c1.41,2.1,2.24,4.6,2.49,7.53h-5.34c-0.29-2.92-1.41-5.2-3.36-6.83  c-1.95-1.63-4.56-2.45-7.82-2.45c-3.65,0-6.6,0.88-8.84,2.63c-2.24,1.75-3.36,4.12-3.36,7.09c0,2.29,0.68,4.18,2.05,5.66  c1.36,1.49,3.41,2.57,6.14,3.25l8.99,2.19c4.09,0.98,7.19,2.62,9.28,4.93c2.09,2.31,3.14,5.25,3.14,8.81c0,2.97-0.73,5.58-2.19,7.82  c-1.46,2.24-3.53,3.97-6.21,5.19c-2.68,1.22-5.82,1.83-9.43,1.83c-3.36,0-6.35-0.56-8.95-1.68c-2.61-1.12-4.65-2.73-6.14-4.82  c-1.49-2.09-2.35-4.56-2.59-7.38h5.41c0.15,2.78,1.34,4.98,3.58,6.61c2.24,1.63,5.14,2.45,8.7,2.45c3.85,0,6.91-0.88,9.17-2.63  c2.27-1.75,3.4-4.12,3.4-7.09c0-2.39-0.67-4.32-2.01-5.81c-1.34-1.49-3.42-2.57-6.25-3.25l-8.84-2.19c-4.09-0.97-7.2-2.62-9.32-4.93  C423.98,247.53,422.92,244.57,422.92,240.96z"/>
<path class="st8" d="M468.61,234.61c-1.02,0-1.9-0.37-2.63-1.1s-1.1-1.61-1.1-2.63c0-1.02,0.37-1.91,1.1-2.67  c0.73-0.75,1.61-1.13,2.63-1.13c1.02,0,1.91,0.38,2.67,1.13c0.75,0.76,1.13,1.64,1.13,2.67c0,1.02-0.38,1.9-1.13,2.63  C470.52,234.24,469.63,234.61,468.61,234.61z M466.12,279.7v-35.38h5.04v35.38H466.12z"/>
<path class="st8" d="M486.73,279.7h-5.04v-35.38h4.39l0.73,6.65l-0.73-0.22c0.73-2.24,2.11-4.03,4.13-5.37  c2.02-1.34,4.4-2.01,7.13-2.01c3.17,0,5.81,0.87,7.93,2.59c2.12,1.73,3.47,4.08,4.06,7.05h-1.1c0.49-2.97,1.81-5.32,3.98-7.05  c2.17-1.73,4.88-2.59,8.15-2.59c3.8,0,6.87,1.17,9.21,3.51c2.34,2.34,3.51,5.55,3.51,9.65v23.17h-4.9v-22.15  c0-3.02-0.78-5.38-2.34-7.09c-1.56-1.71-3.7-2.56-6.43-2.56c-1.95,0-3.63,0.45-5.04,1.35c-1.41,0.9-2.5,2.11-3.25,3.62  c-0.76,1.51-1.13,3.17-1.13,4.97v21.85h-4.97v-22.22c0-3.02-0.79-5.36-2.38-7.02c-1.58-1.66-3.72-2.49-6.4-2.49  c-1.95,0-3.64,0.44-5.08,1.32c-1.44,0.88-2.53,2.06-3.29,3.54c-0.76,1.49-1.13,3.13-1.13,4.93V279.7z"/>
<path class="st8" d="M543.23,295.13v-50.8h4.39l0.51,7.16c1.27-2.73,3.08-4.76,5.45-6.1c2.36-1.34,5.01-2.01,7.93-2.01  c3.41,0,6.33,0.8,8.77,2.41c2.44,1.61,4.31,3.8,5.63,6.58c1.32,2.78,1.97,5.95,1.97,9.5c0,3.56-0.65,6.75-1.94,9.58  c-1.29,2.83-3.14,5.06-5.55,6.69c-2.41,1.63-5.37,2.45-8.88,2.45c-3.02,0-5.68-0.65-7.97-1.94c-2.29-1.29-4.04-3.2-5.26-5.74v22.22  H543.23z M548.35,262.02c0,2.68,0.49,5.08,1.46,7.2c0.97,2.12,2.38,3.79,4.2,5.01c1.83,1.22,4.03,1.83,6.61,1.83  c2.58,0,4.77-0.61,6.58-1.83c1.8-1.22,3.18-2.89,4.13-5.01s1.43-4.52,1.43-7.2c0-2.73-0.48-5.15-1.43-7.27  c-0.95-2.12-2.33-3.78-4.13-4.97c-1.8-1.19-4-1.79-6.58-1.79c-2.58,0-4.79,0.6-6.61,1.79c-1.83,1.19-3.23,2.85-4.2,4.97  C548.83,256.86,548.35,259.29,548.35,262.02z"/>
<path class="st8" d="M591.18,279.7h-5.04v-53.28h5.04V279.7z"/>
<path class="st8" d="M616.76,280.58c-3.41,0-6.42-0.78-9.03-2.34c-2.61-1.56-4.64-3.73-6.1-6.5c-1.46-2.78-2.19-6.02-2.19-9.72  c0-3.65,0.72-6.88,2.16-9.68c1.44-2.8,3.42-4.99,5.96-6.58c2.53-1.58,5.48-2.38,8.84-2.38c3.22,0,6.03,0.71,8.44,2.12  c2.41,1.41,4.29,3.37,5.63,5.88c1.34,2.51,2.01,5.45,2.01,8.81v2.49h-30.26l0.15-3.65h25.07c0-3.41-1.01-6.15-3.03-8.22  c-2.02-2.07-4.69-3.11-8-3.11c-2.44,0-4.57,0.56-6.4,1.68c-1.83,1.12-3.23,2.72-4.2,4.79c-0.98,2.07-1.46,4.52-1.46,7.35  c0,4.68,1.08,8.31,3.25,10.89c2.17,2.58,5.25,3.87,9.25,3.87c2.87,0,5.24-0.61,7.09-1.83c1.85-1.22,3.09-3,3.73-5.34h4.82  c-0.93,3.7-2.73,6.54-5.41,8.52C624.39,279.59,620.95,280.58,616.76,280.58z"/>
<path class="st8" d="M647.35,252.81h36.55v4.53h-36.55V252.81z M667.88,236.8v36.62h-4.53V236.8H667.88z"/>
<path class="st8" d="M701.51,279.7h-5.04v-53.28h5.04V279.7z"/>
<path class="st8" d="M709.77,262.02c0-3.65,0.78-6.87,2.34-9.65c1.56-2.78,3.7-4.97,6.43-6.58c2.73-1.61,5.8-2.41,9.21-2.41  c3.46,0,6.54,0.8,9.25,2.41c2.7,1.61,4.84,3.8,6.4,6.58c1.56,2.78,2.34,5.99,2.34,9.65c0,3.56-0.78,6.74-2.34,9.54  c-1.56,2.8-3.69,5.01-6.4,6.61c-2.7,1.61-5.79,2.41-9.25,2.41c-3.41,0-6.48-0.8-9.21-2.41c-2.73-1.61-4.87-3.81-6.43-6.61  C710.55,268.75,709.77,265.57,709.77,262.02z M714.89,261.94c0,2.78,0.55,5.23,1.64,7.35c1.1,2.12,2.61,3.78,4.53,4.97  c1.92,1.19,4.15,1.79,6.69,1.79c2.53,0,4.76-0.6,6.69-1.79c1.92-1.19,3.44-2.85,4.53-4.97c1.1-2.12,1.64-4.57,1.64-7.35  c0-2.73-0.55-5.14-1.64-7.24c-1.1-2.09-2.61-3.75-4.53-4.97c-1.93-1.22-4.15-1.83-6.69-1.83c-2.53,0-4.76,0.61-6.69,1.83  c-1.93,1.22-3.44,2.88-4.53,4.97C715.43,256.8,714.89,259.21,714.89,261.94z"/>
<path class="st8" d="M751.36,260.99c0-3.22,0.66-6.15,1.97-8.81c1.32-2.66,3.22-4.79,5.7-6.4c2.48-1.61,5.46-2.41,8.92-2.41  c3.36,0,6.24,0.83,8.62,2.48c2.39,1.66,4.09,4.05,5.12,7.16l-0.8,1.02l0.66-9.72h4.39v34.28c0,3.51-0.71,6.57-2.12,9.17  c-1.41,2.61-3.4,4.63-5.96,6.07c-2.56,1.44-5.57,2.16-9.03,2.16c-4.53,0-8.28-1.22-11.26-3.65c-2.97-2.44-4.82-5.77-5.56-10.01h5.04  c0.54,2.87,1.84,5.1,3.91,6.69c2.07,1.58,4.71,2.38,7.93,2.38c3.65,0,6.58-1.12,8.77-3.36c2.19-2.24,3.29-5.21,3.29-8.92v-11.11  l0.73,0.95c-1.02,2.97-2.79,5.32-5.3,7.05c-2.51,1.73-5.45,2.59-8.81,2.59c-3.36,0-6.26-0.8-8.7-2.41c-2.44-1.61-4.3-3.74-5.59-6.4  C752,267.14,751.36,264.21,751.36,260.99z M756.4,260.92c0,2.44,0.48,4.65,1.43,6.65c0.95,2,2.31,3.58,4.09,4.75  c1.78,1.17,3.91,1.75,6.4,1.75c2.53,0,4.71-0.57,6.54-1.72c1.83-1.14,3.23-2.7,4.2-4.68c0.97-1.97,1.46-4.23,1.46-6.76  c0-2.53-0.48-4.77-1.43-6.72c-0.95-1.95-2.31-3.5-4.09-4.64c-1.78-1.14-3.98-1.72-6.61-1.72c-2.53,0-4.69,0.6-6.47,1.79  c-1.78,1.19-3.14,2.78-4.09,4.75C756.88,256.35,756.4,258.53,756.4,260.92z"/>
<path class="st8" d="M793.97,262.02c0-3.65,0.78-6.87,2.34-9.65c1.56-2.78,3.7-4.97,6.43-6.58c2.73-1.61,5.8-2.41,9.21-2.41  c3.46,0,6.54,0.8,9.25,2.41c2.7,1.61,4.84,3.8,6.4,6.58c1.56,2.78,2.34,5.99,2.34,9.65c0,3.56-0.78,6.74-2.34,9.54  c-1.56,2.8-3.69,5.01-6.4,6.61c-2.7,1.61-5.79,2.41-9.25,2.41c-3.41,0-6.48-0.8-9.21-2.41c-2.73-1.61-4.87-3.81-6.43-6.61  C794.75,268.75,793.97,265.57,793.97,262.02z M799.09,261.94c0,2.78,0.55,5.23,1.64,7.35c1.1,2.12,2.61,3.78,4.53,4.97  c1.92,1.19,4.15,1.79,6.69,1.79c2.53,0,4.76-0.6,6.69-1.79c1.92-1.19,3.44-2.85,4.53-4.97c1.1-2.12,1.64-4.57,1.64-7.35  c0-2.73-0.55-5.14-1.64-7.24c-1.1-2.09-2.61-3.75-4.53-4.97c-1.93-1.22-4.15-1.83-6.69-1.83c-2.53,0-4.76,0.61-6.69,1.83  c-1.93,1.22-3.44,2.88-4.53,4.97C799.63,256.8,799.09,259.21,799.09,261.94z"/>
</svg>