<svg width="610" height="128" viewBox="0 0 610 128" fill="none" xmlns="http://www.w3.org/2000/svg">
<path d="M0 85.4131L43.2821 66.1484L68.1945 80.5963L73.2273 127.995L42.5273 127.743L47.0567 94.7899L41.7723 91.7485L15.8532 112.027L0 85.4131Z" fill="#1B1B1B"/>
<path d="M70.9639 78.5779L109.214 106.712L124.312 79.5919L93.6108 67.1717V61.0885L124.312 48.4149L109.214 21.5469L70.9639 49.6823V78.5779Z" fill="#1B1B1B"/>
<path d="M68.1945 47.3992L73.2273 0L42.5273 0.506964L47.0567 33.4582L41.7723 36.4998L15.6016 16.2222L0 42.5832L43.2821 61.8471L68.1945 47.3992Z" fill="#1B1B1B"/>
<path d="M234.87 58.4247V102.081H251.113V46.4453H227.458V58.4247H234.87Z" fill="#1B1B1B"/>
<path d="M234.361 38.6198C235.85 40.1762 238.117 40.9543 241.163 40.9543C244.21 40.9543 246.442 40.1762 247.862 38.6198C249.353 36.9946 250.096 34.9642 250.096 32.5282C250.096 30.0236 249.353 27.9932 247.862 26.4368C246.442 24.8125 244.21 24 241.163 24C238.117 24 235.85 24.8125 234.361 26.4368C232.941 27.9932 232.229 30.0236 232.229 32.5282C232.229 34.9642 232.941 36.9946 234.361 38.6198Z" fill="#1B1B1B"/>
<path d="M178.323 100.846C182.924 102.944 188.576 103.994 195.275 103.994C201.57 103.994 206.984 103.011 211.52 101.049C216.054 99.0873 219.539 96.3454 221.976 92.8255C224.481 89.2385 225.732 85.0762 225.732 80.3383C225.732 75.7362 224.55 71.8445 222.18 68.6631C219.878 65.4147 216.665 62.8766 212.534 61.0495C208.406 59.1539 203.635 57.9694 198.22 57.4962L192.535 56.9886C189.151 56.7173 186.714 55.8041 185.225 54.2469C183.736 52.6905 182.991 50.8628 182.991 48.7653C182.991 47.1403 183.399 45.6516 184.209 44.298C185.022 42.8766 186.24 41.7599 187.864 40.9474C189.557 40.1358 191.621 39.7294 194.058 39.7294C196.628 39.7294 198.761 40.2027 200.453 41.151C200.826 41.3512 201.18 41.5654 201.512 41.7926L201.592 41.849C201.716 41.9348 201.839 42.024 201.958 42.1139C202.986 42.8994 203.804 43.8305 204.413 44.9071C205.292 46.3964 205.734 48.0541 205.734 49.882H221.976C221.976 45.0084 220.859 40.7782 218.627 37.1914C216.393 33.5366 213.178 30.728 208.982 28.7645C204.852 26.734 199.878 25.7188 194.058 25.7188C188.507 25.7188 183.702 26.6669 179.641 28.5617C175.581 30.3896 172.4 33.029 170.099 36.4802C167.863 39.9322 166.746 44.0275 166.746 48.7653C166.746 55.3301 168.948 60.609 173.347 64.6028C177.746 68.596 183.635 70.8972 191.012 71.5061L196.596 72.0137C201.129 72.42 204.413 73.3338 206.444 74.7545C208.473 76.1082 209.489 77.9694 209.489 80.3383C209.489 81.4272 209.311 82.4481 208.954 83.4021C208.689 84.1103 208.327 84.7811 207.866 85.415C206.781 86.8354 205.191 87.9522 203.093 88.7656C200.995 89.5772 198.389 89.983 195.275 89.983C191.824 89.983 189.015 89.5101 186.85 88.561C184.683 87.5464 183.06 86.2266 181.975 84.6033C180.96 82.9779 180.454 81.2187 180.454 79.3231H164.312C164.312 84.1287 165.495 88.3933 167.863 92.1145C170.233 95.7702 173.719 98.6814 178.323 100.846Z" fill="#1B1B1B"/>
<path d="M287.356 102.784C281.738 102.784 277.203 102.108 273.752 100.753C270.299 99.333 267.762 96.997 266.137 93.7487C264.581 90.4316 263.803 85.9659 263.803 80.3475V58.3171H255.376V46.4392H263.803V31.4141H278.929V46.4392H295.174V58.3171H278.929V80.9575C278.929 83.5968 279.606 85.6271 280.96 87.0475C282.38 88.4025 284.377 89.0783 286.95 89.0783H295.174V102.784H287.356Z" fill="#1B1B1B"/>
<path fill-rule="evenodd" clip-rule="evenodd" d="M314.73 101.565C318.384 103.188 322.582 104.001 327.319 104.001C331.988 104.001 336.118 103.188 339.705 101.565C343.292 99.9395 346.27 97.6723 348.638 94.7627C351.008 91.8515 352.599 88.5345 353.409 84.8133H338.486C337.81 86.5054 336.524 87.9257 334.629 89.0761C332.734 90.2265 330.296 90.8034 327.319 90.8034C325.474 90.8034 323.826 90.5837 322.374 90.1477C321.269 89.8157 320.278 89.3579 319.4 88.7726C317.37 87.4193 315.881 85.5227 314.933 83.087C314.67 82.3931 314.445 81.6672 314.256 80.9112C314.063 80.1451 313.907 79.3482 313.789 78.5185H354.426V73.036C354.426 67.9598 353.342 63.2898 351.177 59.0261C349.011 54.6939 345.863 51.2083 341.736 48.5687C337.674 45.8615 332.665 44.5078 326.709 44.5078C322.174 44.5078 318.113 45.3203 314.526 46.9446C311.009 48.501 308.064 50.6328 305.695 53.3402C303.327 56.0475 301.499 59.1276 300.211 62.5794C298.994 65.9629 298.385 69.5162 298.385 73.2387V75.2692C298.385 78.8569 298.994 82.376 300.211 85.8279C301.499 89.212 303.327 92.2909 305.695 95.0663C308.131 97.7746 311.141 99.9395 314.73 101.565ZM314.069 68.4797C314.115 68.2647 314.162 68.0531 314.214 67.8446C314.355 67.2708 314.517 66.7205 314.702 66.195C314.806 65.8958 314.916 65.604 315.035 65.3203C316.05 62.8157 317.539 60.9209 319.501 59.6352C320.236 59.1544 321.03 58.7637 321.884 58.463C323.32 57.9586 324.929 57.706 326.709 57.706C329.486 57.706 331.785 58.3493 333.613 59.6352C335.508 60.8532 336.93 62.6465 337.877 65.0154C337.954 65.2068 338.027 65.4013 338.097 65.5983C338.209 65.9121 338.313 66.2342 338.411 66.5644C338.553 67.0558 338.679 67.5642 338.79 68.0898C338.87 68.4772 338.939 68.8738 339.001 69.2799H313.913C313.96 69.0086 314.012 68.7421 314.069 68.4797Z" fill="#1B1B1B"/>
<path d="M361.129 102.064V46.4287H374.023V60.4411C374.198 59.608 374.397 58.8086 374.62 58.0419C374.811 57.3961 375.016 56.7732 375.241 56.1749C376.663 52.3845 378.794 49.5423 381.637 47.6467C384.479 45.684 387.964 44.7031 392.094 44.7031H392.803C397.001 44.7031 400.486 45.684 403.261 47.6467C406.103 49.5423 408.237 52.3845 409.657 56.1749L409.769 56.461L409.865 56.7226C409.929 56.5378 409.996 56.3555 410.063 56.1749C411.552 52.3845 413.719 49.5423 416.561 47.6467C419.403 45.684 422.89 44.7031 427.019 44.7031H427.73C431.924 44.7031 435.444 45.684 438.286 47.6467C441.197 49.5423 443.397 52.3845 444.885 56.1749C446.374 59.9654 447.12 64.7031 447.12 70.3883V102.064H430.876V69.4744C430.876 66.4287 430.064 63.9584 428.439 62.0636C426.883 60.1679 424.649 59.2206 421.739 59.2206C418.828 59.2206 416.527 60.2023 414.835 62.165C413.143 64.0598 412.296 66.5979 412.296 69.7793V102.064H395.951V69.4744C395.951 66.4287 395.139 63.9584 393.514 62.0636C391.958 60.1679 389.758 59.2206 386.917 59.2206C383.937 59.2206 381.603 60.2023 379.911 62.165C378.219 64.0598 377.372 66.5979 377.372 69.7793V102.064H361.129Z" fill="#1B1B1B"/>
<path fill-rule="evenodd" clip-rule="evenodd" d="M490.51 91.3522V102.073H503.403V67.9602C503.403 62.8161 502.388 58.6204 500.357 55.3711C498.326 52.0547 495.35 49.5844 491.424 47.9602C487.567 46.3359 482.794 45.5234 477.109 45.5234C475.877 45.5234 474.591 45.5365 473.249 45.5635C472.458 45.58 471.644 45.6002 470.814 45.6249C468.58 45.6926 466.414 45.7941 464.318 45.9298L462.714 46.0376C461.891 46.0948 461.118 46.1513 460.39 46.2085C459.843 46.2509 459.325 46.2935 458.836 46.3359V60.0418C460.933 59.9061 463.268 59.7704 465.84 59.6356C466.56 59.5979 467.272 59.5628 467.98 59.5301C469.003 59.4827 470.011 59.4417 471.009 59.4058C471.797 59.3772 472.578 59.3518 473.353 59.3306C475.788 59.2628 477.752 59.2293 479.241 59.2293C482.219 59.2293 484.384 59.9396 485.739 61.3612C487.092 62.7826 487.768 64.9145 487.768 67.7575V67.9602H477.718C472.778 67.9602 468.413 68.6035 464.621 69.8894C460.831 71.1074 457.886 73.0364 455.79 75.6759C453.691 78.2484 452.643 81.5646 452.643 85.6254C452.643 89.3482 453.488 92.5629 455.18 95.2712C456.872 97.9091 459.206 99.9399 462.185 101.36C465.232 102.782 468.751 103.493 472.743 103.493C476.601 103.493 479.85 102.782 482.491 101.36C485.197 99.9399 487.295 97.9091 488.785 95.2712C489.046 94.8252 489.291 94.364 489.519 93.8844C489.841 93.2069 490.128 92.4942 490.381 91.7463L490.51 91.3522ZM487.768 81.4633V76.996H477.616C474.773 76.996 472.575 77.7064 471.019 79.128C469.53 80.4816 468.783 82.3429 468.783 84.7114C468.783 85.8266 468.97 86.8395 469.34 87.7534C469.714 88.669 470.273 89.4824 471.019 90.1934C472.575 91.5484 474.773 92.2242 477.616 92.2242C478.158 92.2242 478.681 92.1974 479.186 92.1454C479.598 92.1018 479.999 92.0397 480.386 91.9609C481.131 91.81 481.834 91.592 482.491 91.3103C483.98 90.6344 485.197 89.5176 486.143 87.9597C487.092 86.4035 487.634 84.2368 487.768 81.4633Z" fill="#1B1B1B"/>
<path d="M513.123 102.073V46.4369H526.017V64.8004C526.634 59.5582 528.192 55.3314 530.688 52.1222C534.072 47.8585 538.943 45.7266 545.307 45.7266H547.439V59.7364H543.377C538.911 59.7364 535.459 60.9544 533.022 63.3912C530.585 65.7601 529.366 69.2121 529.366 73.7463V102.073H513.123Z" fill="#1B1B1B"/>
<path d="M568.037 76.0906H573.418L590.981 102.081H609.255L586.985 70.1618L605.296 46.4459H588.241L568.037 72.8995V27.9688H551.794V102.081H568.037V76.0906Z" fill="#1B1B1B"/>
</svg>
