<svg xmlns="http://www.w3.org/2000/svg" xmlns:xlink="http://www.w3.org/1999/xlink" version="1.1" id="Layer_1" x="0px" y="0px" style="enable-background:new 0 0 1080 780.81;" xml:space="preserve" viewBox="166.84 285.46 746.3 209.89">
<style type="text/css">
	.st0{fill:#000000;}
</style>
<g>
	<g>
		<path class="st0" d="M225.82,453.78c-5.28-3.75-13.32-6.85-23.89-9.21c-4.15-0.96-7.44-1.78-9.8-2.45    c-2.33-0.66-4.77-1.56-7.25-2.69c-2.31-1.05-3.99-2.28-4.99-3.66c-0.98-1.35-1.45-2.91-1.45-4.76c0-4.35,1.96-7.62,5.99-10    c4.23-2.49,9.56-3.76,15.83-3.76c10.81,0,20.51,3.6,28.86,10.71l2.51,2.14v-13.55l-0.59-0.46c-8.58-6.68-18.9-10.07-30.66-10.07    c-9.16,0-17.08,2.13-23.52,6.33c-6.65,4.33-10.02,10.49-10.02,18.31c0,2.33,0.35,4.52,1.05,6.52c0.68,1.97,1.54,3.69,2.54,5.12    c1.03,1.48,2.57,2.89,4.57,4.2c1.89,1.23,3.61,2.25,5.13,3.03c1.58,0.81,3.75,1.63,6.63,2.51c2.77,0.84,5.1,1.52,6.91,2    c1.84,0.49,4.47,1.14,7.83,1.94c7.39,1.63,12.88,3.66,16.31,6.02c3.2,2.2,4.76,5.06,4.76,8.73c0,4.19-1.92,7.37-5.87,9.7    c-4.15,2.45-9.44,3.7-15.71,3.7c-11.09,0-21.6-3.55-31.24-10.54l-2.42-1.76v13.23l0.73,0.44c5.37,3.25,10.55,5.73,15.41,7.36    c4.91,1.65,10.8,2.49,17.51,2.49c9.09,0,16.92-2.13,23.28-6.33c6.56-4.33,9.89-10.53,9.89-18.42    C234.17,463.38,231.36,457.72,225.82,453.78z"/>
		<path class="st0" d="M289.93,406.14c-12.16,0-22.61,4.41-31.06,13.1c-8.43,8.68-12.71,19.28-12.71,31.51    c0,12.31,4.26,22.91,12.65,31.51c8.4,8.61,18.87,12.98,31.12,12.98c12.16,0,22.63-4.39,31.11-13.03    c8.48-8.64,12.73-19.23,12.65-31.45c0-12.31-4.3-22.93-12.77-31.57C312.43,410.53,302.01,406.14,289.93,406.14z M289.93,484    c-9.15,0-16.85-3.26-22.9-9.69c-6.07-6.45-9.15-14.38-9.15-23.57c0-9.26,3.12-17.22,9.27-23.68c6.13-6.43,13.79-9.7,22.79-9.7    c9.07,0,16.75,3.26,22.84,9.69c6.11,6.46,9.21,14.43,9.21,23.68c0,9.26-3.1,17.2-9.21,23.62C306.68,480.76,298.99,484,289.93,484z    "/>
		<polygon class="st0" points="370.76,456.24 405.41,456.24 405.41,445.25 364.43,445.25   "/>
		<polygon class="st0" points="348.57,494.39 360.29,494.39 360.29,418.21 410.23,418.21 410.23,407.1 348.57,407.1   "/>
		<polygon class="st0" points="422.83,418.21 452.31,418.21 452.31,494.39 464.02,494.39 464.02,426.16 459.56,418.21     492.66,418.21 492.66,407.1 422.83,407.1   "/>
		<polygon class="st0" points="565.67,445.25 522.68,445.25 529.01,456.24 565.67,456.24 565.67,494.39 577.38,494.39 577.38,407.1     565.67,407.1   "/>
		<rect x="506.82" y="407.1" class="st0" width="11.71" height="87.29"/>
		<polygon class="st0" points="625.37,407.1 590.71,494.39 603.01,494.39 632.78,419.16 649.8,462.46 617.72,462.46 624.21,473.45     653.77,473.45 661.95,494.39 674.37,494.39 640.2,407.1   "/>
		<polygon class="st0" points="709.45,481.36 681.37,407.1 669.09,407.1 701.89,494.39 716.87,494.39 749.92,407.1 737.76,407.1       "/>
		<polygon class="st0" points="784.62,494.39 824.09,494.39 824.09,483.28 778.16,483.28   "/>
		<polygon class="st0" points="762.43,494.39 774.15,494.39 774.15,456.12 819.28,456.12 819.28,445.25 774.15,445.25     774.15,418.21 824.09,418.21 824.09,407.1 762.43,407.1   "/>
		<polygon class="st0" points="901.55,407.1 901.66,479.45 856.75,407.1 840.9,407.1 840.9,494.39 852.49,494.39 852.49,421.58     897.41,494.39 913.14,494.39 913.14,407.1   "/>
	</g>
	<g>
		<path class="st0" d="M775.22,381.36c-19.28,0.45-36.23,1.11-55.17-2.82c-11.49-2.4-24.72-11.59-23.42-24.49    c1.73-17.21,13.14-23.7,27.67-30.02c4.13-1.8,8.44-1.41,13.22-2.09c4.78-0.68,11.23-0.79,16.25-1.5    c-3.72-3.56-8.46-8.63-12.04-11.89c-8.48-7.72-15.1-14.04-25.78-18.32c-9.24-3.72-21.53-5.02-31.43-4.73    c-23.98,0.71-53.47,13.7-72.36,23.89c-26.42,14.22-61.31,36.51-80.61,47.93c-19.3,11.41-10.08,5.46-23.97,13.44    c-0.59,0.33,0.08-0.05-0.84,0.48c0.08,5.78,0.04,11.64,0.01,17.48c2.42-1.32,3.77-2.06,6.45-3.52c5.83-3.17,13.4-7.34,19.08-10.4    c1.23-0.67,1.11-0.36,1.38-0.75c0.05-0.08,0.08-0.12,0.08-0.13c28.62-16.66,55.72-34.28,84.88-50.56    c20.39-11.4,42.6-20.21,66.22-22.56c9.16-0.91,17.52,1.42,26.02,3.72c3.56,0.96,5.69,3,8.75,4.66c0,0-0.17,0.04-0.2,0.05    c-13.38,6.19-27.03,12.62-33.81,26.54c-7.58,15.58-6.03,32.72,7.14,44.78c16.34,14.99,38.31,16.03,59.45,16.73    c23.09,0.77,43.73-2.01,67.06-3.74c30.91-2.3,62.54-7.94,93.88-11.56v-15.74C867.12,371.49,821.58,380.28,775.22,381.36z     M533.48,374.07c0.04-0.03,0.08-0.05,0.12-0.07C533.51,374.09,533.44,374.14,533.48,374.07z"/>
	</g>
</g>
</svg>