<svg width="32" height="32" viewBox="0 0 32 32" fill="none" xmlns="http://www.w3.org/2000/svg">
<path d="M20.6082 12.904L20.4188 12.7146C19.5265 11.8543 18.4299 11.2352 17.2322 10.916C13.3562 9.87863 9.6335 12.0746 8.57616 16.0226C8.51883 16.236 8.48816 16.476 8.4375 17.0773C8.23216 19.5706 7.6455 21.4306 6.0375 23.3173C9.05083 24.5013 12.6215 25.336 15.3362 25.336C16.9499 25.334 18.5179 24.8002 19.7978 23.8173C21.0776 22.8344 21.9979 21.4572 22.4162 19.8986C22.7446 18.6759 22.7507 17.3889 22.4339 16.1631C22.117 14.9372 21.488 13.8144 20.6082 12.904ZM17.7202 8.28796L24.3055 3.16663C24.5619 2.96746 24.8821 2.86867 25.2062 2.8888C25.5302 2.90893 25.8357 3.04659 26.0655 3.27596L30.0588 7.26796C30.2886 7.4978 30.4264 7.80362 30.4466 8.12795C30.4667 8.45229 30.3677 8.77281 30.1682 9.02929L25.0482 15.6133C25.4092 17.0858 25.4308 18.6212 25.1116 20.1033C24.7923 21.5854 24.1404 22.9757 23.2051 24.1689C22.2698 25.3622 21.0756 26.3274 19.7126 26.9915C18.3497 27.6556 16.8536 28.0014 15.3375 28.0026C10.6668 28.0026 4.66683 26 1.3335 24C6.64016 20 5.39616 17.5866 6.00016 15.3333C7.41083 10.0666 12.4562 6.99063 17.7188 8.28796H17.7202ZM22.2708 10.7933C22.3575 10.8773 22.4442 10.964 22.5282 11.052L24.0415 12.564L27.3415 8.3213L25.0135 5.9933L20.7708 9.29329L22.2708 10.7933Z" fill="#0C0407"/>
</svg>
