<?xml version="1.0" encoding="utf-8"?>
<!-- Generator: Adobe Illustrator 27.5.0, SVG Export Plug-In . SVG Version: 6.00 Build 0)  -->
<svg version="1.1" id="Layer_1" xmlns="http://www.w3.org/2000/svg" xmlns:xlink="http://www.w3.org/1999/xlink" x="0px" y="0px"
	 viewBox="0 0 5000 3000" style="enable-background:new 0 0 5000 3000;" xml:space="preserve">
<g>
	<defs>
		<rect id="SVGID_1_" width="5000" height="3000"/>
	</defs>
	<clipPath id="SVGID_00000135655624081742596300000015485009060919317430_">
		<use xlink:href="#SVGID_1_"  style="overflow:visible;"/>
	</clipPath>
	
		<linearGradient id="SVGID_00000054945843884491929450000001597295716826324378_" gradientUnits="userSpaceOnUse" x1="2284.2549" y1="1488.1097" x2="2258.2463" y2="2853.5723">
		<stop  offset="0" style="stop-color:#581185"/>
		<stop  offset="0.4944" style="stop-color:#E01885"/>
		<stop  offset="1" style="stop-color:#F5B816"/>
	</linearGradient>
	
		<rect x="-979" y="1036" style="clip-path:url(#SVGID_00000135655624081742596300000015485009060919317430_);fill:url(#SVGID_00000054945843884491929450000001597295716826324378_);" width="6490" height="2821"/>
	
		<linearGradient id="SVGID_00000007392986728655673170000009501519775170538377_" gradientUnits="userSpaceOnUse" x1="2009.6998" y1="1153.0928" x2="2386.8254" y2="2960.7021">
		<stop  offset="0" style="stop-color:#581185"/>
		<stop  offset="0.4944" style="stop-color:#E01885"/>
		<stop  offset="1" style="stop-color:#F5B816"/>
	</linearGradient>
	
		<path style="clip-path:url(#SVGID_00000135655624081742596300000015485009060919317430_);fill:url(#SVGID_00000007392986728655673170000009501519775170538377_);" d="
		M5720,2427c-259.719,48.062-643.892,86.937-1085,0c-994.466-195.997-1196.345-818.207-1872-848
		c-661.183-29.155-862.83,549.271-1821,1085c-502.612,281.019-1282.24,588.786-2433,612c79-823.333,158-1646.667,237-2470
		c2345.333-158,4690.667-316,7036-474C5761.333,1030.333,5740.667,1728.667,5720,2427z"/>
	
		<linearGradient id="SVGID_00000075123430531037546340000002982843184608396701_" gradientUnits="userSpaceOnUse" x1="1896.1295" y1="-508.1529" x2="2351.2856" y2="1650.5792">
		<stop  offset="0" style="stop-color:#581185"/>
		<stop  offset="0.4944" style="stop-color:#E01885"/>
		<stop  offset="1" style="stop-color:#F5B816"/>
	</linearGradient>
	
		<path style="clip-path:url(#SVGID_00000135655624081742596300000015485009060919317430_);fill:url(#SVGID_00000075123430531037546340000002982843184608396701_);" d="
		M5433,793c-235.321,124.704-597.301,276.675-1048,300c-911.866,47.193-1180.857-484.281-1846-387
		c-772.506,112.984-831.868,891.627-1684,1185c-642.399,221.166-1301.943,17.326-1772-200c70.667-723.333,141.333-1446.667,212-2170
		c1954.333-33.333,3908.667-66.667,5863-100C5249.667-121.667,5341.333,335.667,5433,793z"/>
	
		<linearGradient id="SVGID_00000039128346400583180700000006301902529324932257_" gradientUnits="userSpaceOnUse" x1="-762.5" y1="1390.5677" x2="5388.2183" y2="1390.5677">
		<stop  offset="0.1074" style="stop-color:#067EFE"/>
		<stop  offset="0.4106" style="stop-color:#F4B316"/>
		<stop  offset="0.763" style="stop-color:#EC1982"/>
	</linearGradient>
	
		<path style="opacity:0.7;clip-path:url(#SVGID_00000135655624081742596300000015485009060919317430_);fill:url(#SVGID_00000039128346400583180700000006301902529324932257_);" d="
		M5388.218,1994.557c-313.356-225.872-771.7-471.251-1266.594-378.488c-691.13,129.545-722.157,781.467-1411.173,1002.072
		c-819.763,262.467-1276.277-500.12-2312.246-334.024c-523.787,83.979-918.861,360.973-1160.705,568.275
		c198.542-887.478,397.083-1774.955,595.625-2662.433C12.943,63.399,306.254-99.538,649.691-67.065
		c912.469,86.276,1114.542,1451.322,2029.198,1571.432c596.701,78.357,712.442-476.11,1390.81-356.798
		C4601.595,1241.118,4795,1725,5388,1995"/>
	
		<linearGradient id="SVGID_00000168103304149843484260000016278271454749739176_" gradientUnits="userSpaceOnUse" x1="2552.8826" y1="2213.4094" x2="2552.8826" y2="-71.2566">
		<stop  offset="0.1074" style="stop-color:#067EFE"/>
		<stop  offset="0.4106" style="stop-color:#F4B316"/>
		<stop  offset="0.763" style="stop-color:#EC1982"/>
	</linearGradient>
	
		<path style="opacity:0.7;clip-path:url(#SVGID_00000135655624081742596300000015485009060919317430_);fill:url(#SVGID_00000168103304149843484260000016278271454749739176_);" d="
		M5461,2002c-656-243-859.405-760.882-1391.302-854.432c-678.368-119.311-794.109,435.156-1390.81,356.798
		C1764.233,1384.256,1562.16,19.21,649.691-67.065C306.254-99.538,12.943,63.399-166.875,189.96
		c-43.6,194.89-87.199,389.78-130.799,584.67c-19.187,287.71-38.374,575.42-57.561,863.13
		c197.528-155.615,509.057-349.902,900.055-367.643c967.9-43.918,1352.045,1042.597,2175.813,935.918
		c625.576-81.013,684.563-743.934,1359.247-768.906c265.532-9.828,1080.177,400.376,1243.81,512.136
		c46.231,18.668,88.784,55.309,134.311,71.737"/>
	
		<linearGradient id="SVGID_00000074421288139769728190000000585671389771992232_" gradientUnits="userSpaceOnUse" x1="2547.2007" y1="1995" x2="2547.2007" y2="-71.2566">
		<stop  offset="0.1074" style="stop-color:#067EFE"/>
		<stop  offset="0.4106" style="stop-color:#F4B316"/>
		<stop  offset="0.763" style="stop-color:#EC1982"/>
	</linearGradient>
	
		<path style="opacity:0.7;clip-path:url(#SVGID_00000135655624081742596300000015485009060919317430_);fill:url(#SVGID_00000074421288139769728190000000585671389771992232_);" d="
		M5388,1995c-619-285-786.405-753.882-1318.302-847.432c-678.368-119.311-794.109,435.156-1390.81,356.798
		C1764.233,1384.256,1562.16,19.21,649.691-67.065C306.254-99.538,12.943,63.399-166.875,189.96
		c-42.314,189.143-84.628,378.285-126.942,567.428c292.689-95.242,627.408-140.518,974.053-55.547
		c845.017,207.135,1009.063,1003.928,1788.911,1070.395c654.175,55.756,865.463-477.366,1495.68-424.037
		c254.827,21.563,1225.773,503.913,1423.391,646.358"/>
</g>
</svg>
