<?xml version="1.0" encoding="utf-8"?>
<!-- Generator: Adobe Illustrator 27.5.0, SVG Export Plug-In . SVG Version: 6.00 Build 0)  -->
<svg version="1.1" id="Layer_1" xmlns="http://www.w3.org/2000/svg" xmlns:xlink="http://www.w3.org/1999/xlink" x="0px" y="0px"
	 viewBox="0 0 3840 2160" style="enable-background:new 0 0 3840 2160;" xml:space="preserve">
<g>
	<defs>
		<rect id="SVGID_1_" width="3840" height="2160"/>
	</defs>
	<clipPath id="SVGID_00000023971577245142994430000015020387837372631701_">
		<use xlink:href="#SVGID_1_"  style="overflow:visible;"/>
	</clipPath>
	<g style="clip-path:url(#SVGID_00000023971577245142994430000015020387837372631701_);">
		<rect style="fill:#227C9D;" width="3840" height="2160"/>
		<g>
			<g>
				<g>
					<path style="fill:none;stroke:#87725D;stroke-width:2.0001;stroke-linecap:square;stroke-miterlimit:10;" d="M3016.26-7.974
						c0,0,92.2,137.783,240.87,203.544c148.66,65.762,374.4-0.44,389.02,93.582c14.42,93.642,59.05,97.723,250.75,83.502"/>
				</g>
			</g>
		</g>
		<g>
			<g>
				<g>
					<path style="fill:#EFEFEF;fill-opacity:0.54;" d="M1934.7,2032.99c9.46-245.64-201.57-475.23-374.48-629.83
						c-68.17-59.59-131.93-123.42-191.3-191.43c-63.31-75.47-109.24-163.46-159.49-248.645
						c-82.01-139.02-184.46-296.398-343.316-341.951c-135.161-38.815-280.281,34.495-304.297,182.594
						c-2.4,14.458-3.84,28.896-4.4,43.354c-5.799,150.718,83.048,299.158,139.74,429.338c40.255,89.21,67.851,177.94,68.231,277.28
						c0.58,94.97-12.978,190.87,13.038,283.92c38.155,143.2,138.1,255.17,250.324,341.27c143.78,107.83,331.41,211.47,511.49,218.41
						c115.36,4.44,232.77-43.63,303.8-132.92c10.01-4.02,17.35-11.02,23.31-19.56c44.18-71.01,64.65-142.06,67.35-211.85V2032.99z"
						/>
				</g>
			</g>
		</g>
		<g>
			<g>
				<g>
					<path style="fill:#3D3D3D;fill-opacity:0.64;" d="M-621.452,1030.173c8.693,100.304,40.507,200.228,90.027,292.968
						c59.792,105.57,133.832,202.432,219.763,285.052c112.729,110.404,249.378,194.295,348.178,317.159
						c159.571,196.427,212.449,460.321,395.085,641.585c149.93,150.328,380.21,188.61,568.92,93.379
						c42.68-5.575,82.79-18.436,120.94-32.998c206.43-85.502,307.13-287.615,305.37-503.317c-0.12-23.58-1.26-47.12-3.3-70.65
						c-19.82-229.125-126.05-454.076-230.17-654.446c-112.57-217.407-251.12-430.675-453.03-574.661
						c-97.7-66.622-203.56-119.405-313.85-158.647c-135.99-53.922-254.374-143.166-390.484-198.968
						c-214.167-90.304-433.81-5.541-561.866,183.907c-78.996,117.286-106.914,248.85-95.603,379.636H-621.452z"/>
				</g>
			</g>
		</g>
		<g>
			<g>
				<g>
					<path style="fill:none;stroke:#87725D;stroke-width:1.9964;stroke-linecap:square;stroke-miterlimit:10;" d="M344.735,907.344
						c0,0-19.382-34.917-73.548,27.131C206,1008.361,118.61,1080.092,119.15,965.459c1.12-114.952,11.482-277.399-194.321,9.562"/>
				</g>
			</g>
		</g>
		<g>
			<g>
				<g>
					<path style="fill:#F9CDEF;" d="M1956.644,109.6C1928.895,4.46,1850.32-26.56,1847.299-137.731
						c-0.549-20.863-2.198-78.783,32.693-111.724c40.935-38.705,120.059-31.568,195.886,23.608
						c66.211,57.371,193.138,147.958,330.506,120.233c26.374-5.216,47.254-12.628,76.101-25.804
						c70.882-32.391,118.136-82.626,253.031-167.173c108.521-68.077,252.212-108.155,354.958-30.196
						c53.024,40.353,85.171,105.136,133.242,152.35c102.486,100.469,256.605,103.489,393.7,85.097
						c137.095-18.118,279.405-51.333,410.725-4.667C4092.706-72.948,4156.45-22.99,4168.81,49.21
						c14.833,86.74-48.08,165.8-112.644,219.87c-64.554,54.08-140.108,104.32-168.411,187.22
						c-61.812,181.44,142.319,378.54,78.025,559.16c-40.384,113.65-174.457,158.39-284.619,132.86
						c-56.878-13.17-105.498-23.88-295.348-171.01c-240.662-186.39-303.304-261.33-455.512-314.86
						c-93.678-32.94-150.006-32.67-184.895-29.37c-49.171,4.66-101.1,20.04-250.281,111.72
						c-79.674,48.86-162.094,131.21-250.01,158.39c-101.102,31.29-226.93-29.1-288.471-117.21
						c-79.124-113.1-56.046-270.12-32.694-429.33C1945.379,207.32,1976.698,185.91,1956.644,109.6z"/>
				</g>
			</g>
		</g>
		<g>
			<g>
				<g>
					<path style="fill:#CFC6E1;" d="M3727.015,41.637c-136.972-39.769-281.197-37.64-414.477,13.288
						c-34.363,13.132-70.187,23.46-105.01,35.553c-51.55,17.903-103.119,35.921-155.74,50.47
						c-53.405,14.769-108.002,26.043-163.438,29.075c-55.237,3.02-109.571-5.149-164.562-8.461
						c-49.183-2.961-99.218-0.459-144.81,19.909c-36.41,16.262-67.487,42.466-92.275,73.472
						c-53.756,67.232-78.868,151.002-95.573,234.068c-20.041,99.655-32.757,205.097-90.086,291.847
						c-50.358,76.2-126.335,132.13-172.411,211.55c-46.683,80.47-51.69,180.37-13.064,265.08
						c35.638,78.15,106.982,133.79,184.763,166.43c204.634,85.87,429.206,10.88,641.715,40.79
						c54.97,7.74,107.481,23.66,157.86,46.88c47.968,22.12,93.826,48.53,141.904,70.41c77.85,35.43,168.704,59.19,252.826,30.95
						c80.941-27.17,125.388-100.24,132.66-182.7c8.893-100.97-35.133-193.56-66.065-287.01
						c-33.643-101.65-40.265-207.2-9.704-310.64c30.562-103.42,97.427-182.96,167.814-262.001
						c63.724-71.55,128.759-147.308,156.059-241.169c23.469-80.695,10.664-164.77-48.568-226.764
						C3799.372,73.919,3764.859,53.454,3727.015,41.637c-13.065-4.081-18.657,16.385-5.642,20.448
						c80.761,25.224,144.155,99.052,144.845,185.605c0.791,99.366-59.132,188.192-120.856,261.04
						c-60.943,71.928-130.26,138.668-175.107,222.608c-43.296,81.02-64.114,173.89-59.732,265.63
						c4.802,100.43,47.188,189.37,76.069,284.02c25.41,83.29,37.264,188.51-22.659,260.8c-56.801,68.53-155.519,71.72-235.349,50.21
						c-95.366-25.69-176.857-86.15-269.062-120.13c-198.761-73.24-411.689-6.89-616.128-32.59
						c-90.005-11.32-180.923-43.26-247.633-106.73c-69.969-66.57-100.52-165.18-77.361-259.48
						c22.162-90.25,93.625-152.59,152.659-219.67c28.192-32.03,53.914-66.07,72.634-104.58c20.402-41.96,33.517-86.91,43.752-132.3
						c34.14-151.442,51.69-385.663,238.702-428.528c52.7-12.079,107.695-4.644,160.819,0.157
						c50.272,4.543,99.892,5.082,150.029-1.552c100.299-13.267,195.825-47.836,290.951-80.797
						c45.337-15.71,90.835-33.465,136.852-47.204c66.995-20.003,137.672-26.972,207.369-22.934
						c50.689,2.936,100.498,12.28,149.217,26.425C3734.508,65.898,3740.12,45.441,3727.015,41.637z"/>
				</g>
			</g>
		</g>
		<g>
			<g>
				<g>
					<path style="fill:#D2FCFF;" d="M3622.134,1940.1c-3.728-100.41-82.019-161.073-93.202-168.847
						c-54.058-37.559-119.957-52.669-184.98-45.661c-38.268,4.16-76.098,12.592-114.585,13.249
						c-122.589,2.299-229.388-95.921-355.705-58.363c-73.355,21.79-149.124,97.892-154.606,179.14
						c-4.057,59.568,39.254,102.71,69.628,149.357c51.754,79.606,49.671,175.417,31.579,265.754
						c-9.539,47.523-18.092,97.345-4.825,143.991c14.803,51.903,69.08,87.928,122.699,84.424
						c62.5-4.051,101.316-67.78,164.255-80.482c53.838-10.84,100.988,14.673,153.949,16.754
						c39.583,1.533,78.839-13.031,110.417-36.902c47.479-36.025,72.698-81.248,78.181-139.173
						c4.386-46.427,1.645-95.811,43.75-126.581c17.983-13.14,38.707-22.009,57.128-34.601
						C3598.888,2066.024,3624.436,2002.953,3622.134,1940.1z"/>
				</g>
			</g>
		</g>
		<g>
			<defs>
				
					<rect id="SVGID_00000156589217921405418510000007413979860390376119_" x="-425.745" y="-1665.672" transform="matrix(0.7071 -0.7071 0.7071 0.7071 460.0534 116.9217)" width="1593.818" height="2337.6"/>
			</defs>
			<clipPath id="SVGID_00000121980199695392317490000011911825806655400622_">
				<use xlink:href="#SVGID_00000156589217921405418510000007413979860390376119_"  style="overflow:visible;"/>
			</clipPath>
			<g style="clip-path:url(#SVGID_00000121980199695392317490000011911825806655400622_);">
				<g>
					<defs>
						
							<rect id="SVGID_00000165921877764137508630000012517781166198743461_" x="-425.745" y="-1665.672" transform="matrix(0.7071 -0.7071 0.7071 0.7071 460.0534 116.9217)" width="1593.818" height="2337.6"/>
					</defs>
					<clipPath id="SVGID_00000144325312018055509330000012645334729181051035_">
						<use xlink:href="#SVGID_00000165921877764137508630000012517781166198743461_"  style="overflow:visible;"/>
					</clipPath>
					<g style="clip-path:url(#SVGID_00000144325312018055509330000012645334729181051035_);">
						<g>
							<defs>
								
									<rect id="SVGID_00000027580558364846571400000009507507955522796718_" x="-425.745" y="-1665.672" transform="matrix(0.7071 -0.7071 0.7071 0.7071 460.0534 116.9217)" width="1593.818" height="2337.6"/>
							</defs>
							<clipPath id="SVGID_00000001641445662908008470000001933299551547942573_">
								<use xlink:href="#SVGID_00000027580558364846571400000009507507955522796718_"  style="overflow:visible;"/>
							</clipPath>
							<g style="clip-path:url(#SVGID_00000001641445662908008470000001933299551547942573_);">
								<path style="fill:#8EB7A8;" d="M-182.364-1437.005c54.72-93.956,21.097-171.434,97.565-252.175
									c14.362-15.139,54.148-57.256,102.105-55.878c56.306,1.576,107.2,62.561,121.798,155.18
									c6.247,87.374,31.936,241.156,148.656,318.671c22.334,14.959,42.335,24.481,72.046,35.559
									c73.014,27.21,141.94,25.102,297.085,60.693c124.857,28.592,254.778,101.841,272.3,229.602
									c8.955,66.014-14.118,134.548-13.511,201.919c1.417,143.484,108.247,254.585,218.172,338.503
									c109.73,84.112,233.83,161.243,293.681,287.082c29.341,61.947,39.08,142.336-3.219,202.115
									c-50.847,71.822-151.22,83.242-235.105,75.824c-83.877-7.411-172.81-25.307-251.427,13.299
									c-171.981,84.585-167.025,368.255-340.182,450.506c-108.902,51.795-235.323-11.354-295.155-107.291
									c-30.897-49.522-57.709-91.466-87.894-329.711c-38.367-301.934-29.668-399.203-99.431-544.654
									C72.18-447.282,32.169-486.911,5.167-509.247c-38.062-31.472-85.64-57.313-255.937-97.955
									c-90.877-21.778-207.37-21.826-288.738-64.769c-93.603-49.353-139.867-181.007-121.073-286.819
									c24.021-135.899,151.352-230.599,280.433-326.66C-259.418-1375.877-222.137-1368.874-182.364-1437.005z"/>
							</g>
						</g>
					</g>
				</g>
			</g>
		</g>
	</g>
</g>
</svg>
