<?xml version="1.0" encoding="utf-8"?>
<!-- Generator: Adobe Illustrator 27.5.0, SVG Export Plug-In . SVG Version: 6.00 Build 0)  -->
<svg version="1.1" xmlns="http://www.w3.org/2000/svg" xmlns:xlink="http://www.w3.org/1999/xlink" x="0px" y="0px"
	 viewBox="0 0 1200 800" style="enable-background:new 0 0 1200 800;" xml:space="preserve">
<g id="Background">
	<rect style="fill:#F5C84E;" width="1200" height="800"/>
</g>
<g id="Graphic_Elements">
	<g>
		<defs>
			<rect id="SVGID_1_" width="1200" height="800"/>
		</defs>
		<clipPath id="SVGID_00000031207920961183749010000004324910489949685632_">
			<use xlink:href="#SVGID_1_"  style="overflow:visible;"/>
		</clipPath>
		<path style="clip-path:url(#SVGID_00000031207920961183749010000004324910489949685632_);fill:#4F8058;" d="M-1.675-84.266
			c-23.24,19.868-46.142,40.173-67.996,61.565c-44.444,43.505-85.035,92.115-110.458,149.387
			c-38.499,86.727-35.354,201.728,37.065,270.354c41.605,39.427,99.9,53.892,155.889,53.552
			c59.244-0.361,115.94-17.325,171.517-36.354c55.534-19.014,110.718-39.558,169.203-47.431
			c53.364-7.184,107.379-5.248,160.769,0.597c108,11.823,214.04,39.237,322.808,44.425c27.1,1.293,54.324,1.205,81.383-0.875
			c26.94-2.071,54.175-5.656,80.023-13.778c26.156-8.219,50.814-22.582,67.022-45.186c51.197-71.401,20.091-171.525-28.972-234.592
			C970.356,32.271,871.207-20.612,771.107-60.759c-100.1-40.147-204.729-70.351-299.176-122.425
			c-29.786-16.423-59.761-35.403-93.638-38.454C226.207-235.33,114.127-183.266-1.675-84.266z"/>
		<path style="clip-path:url(#SVGID_00000031207920961183749010000004324910489949685632_);fill:#FF9EC0;" d="M1149.995,708.496
			c-6.989-55.606-37.394-104.756-74.031-145.899c-41.058-46.109-91.217-84.452-145.864-113.071
			c-104-54.467-226.728-74.722-319.951-149.216c-44.406-35.484-77.719-82.017-103.935-132.068
			C449.129,59.257,423.378-76.389,271.48-80.04c-71.49-1.718-142.525,37.823-178.733,99.49
			C46.711,97.857,58.453,195.398,55.713,286.279c-2.201,73.004-14.626,146.881-0.173,218.474
			c18.407,91.185,77.932,165.936,142.397,229.992c62.91,62.51,117.424,137.833,202.007,172.437
			c30.646,12.538,62.781,20.939,95.143,27.671c33.252,6.917,66.778,12.679,100.348,17.81
			c65.483,10.011,131.75,17.437,198.016,19.096c59.026,1.478,119.123-2.89,175.504-21.522
			c52.717-17.421,100.934-48.377,135.41-92.313C1137.516,815.678,1156.786,762.527,1149.995,708.496z"/>
		<path style="clip-path:url(#SVGID_00000031207920961183749010000004324910489949685632_);fill:#133047;" d="M171.368,426.772
			c20.326,12.094,38.929,28.179,50.02,49.07c13.698,25.801,14.748,56.148,17.301,85.248c5.648,64.373,20.066,129.182,9.748,192.972
			c-10.319,63.791-54.35,128.46-118.498,136.255C59.67,898.855,1.98,839.774-61.085,807.627
			c-22.639-11.54-47.418-20.156-66.061-37.423c-82.343-76.265,16.515-173.989,48.694-246.795
			C-32.733,419.967,64.414,363.133,171.368,426.772z"/>
		<path style="clip-path:url(#SVGID_00000031207920961183749010000004324910489949685632_);fill:#D6C2E4;" d="M1142.207,327.669
			c-5.678-13.272-12.455-26.875-20.375-40.982c-44.93-80.034-126.353-133.925-211.966-167.01
			c-85.612-33.085-176.9-48.125-266.181-69.412c-37.969-9.053-76.19-19.329-115.222-19.039
			c-81.677,0.607-158.371,49.246-205.404,116.024c-47.033,66.778-67.074,149.585-70.385,231.197
			c-2.971,73.238,7.885,149.846,48.995,210.53c21.992,32.463,51.594,58.898,80.878,84.973
			c45.632,40.632,91.263,81.264,136.895,121.895c24.623,21.925,49.609,44.101,79.022,58.998
			c96.54,48.896,243.232,9.411,319.365-58.393c18.25-16.253,37.476-31.18,57.112-45.711c37.702-27.901,76.43-55.439,106.563-91.818
			c25.661-30.982,45.403-66.342,58.936-104.206C1171.256,468.501,1174.652,403.499,1142.207,327.669z"/>
		<path style="clip-path:url(#SVGID_00000031207920961183749010000004324910489949685632_);fill:#FF6A54;" d="M1387.696,82.346
			c-35.195-43.868-87.959-62.48-138.451-82.56c-26.682-10.61-51.747-23.577-76.731-37.674
			c-25.478-14.376-51.112-27.945-79.486-35.662C996.497-99.809,877.66-41.916,850.413,57.203
			c-16.199,58.93,20.549,110.095,64.995,144.973c88.952,69.803,161.126,46.91,256.334,69.239
			c88.696,20.802,178.283,118.373,254.69-0.109C1454.76,227.379,1417.244,119.177,1387.696,82.346z"/>
		<path style="clip-path:url(#SVGID_00000031207920961183749010000004324910489949685632_);fill:#F9F0ED;" d="M1483.48,472.711
			c-15.089-5.707-31.477-5.531-47.33-4.319c-15.709,1.201-31.366,3.116-46.937,5.504c-31.15,4.779-61.914,11.81-92.338,19.98
			c-60.99,16.378-120.634,37.29-181.35,54.606c-30.386,8.666-61.043,16.362-92.098,22.236c-32.494,6.146-65.266,10.639-97.97,15.49
			c-60.289,8.942-120.825,19.351-177.283,43.18c-49.743,20.996-95.817,51.883-128.123,95.745
			c-3.951,5.364-7.632,10.913-11.091,16.606c-1.69,2.782-1.851,5.501-1.044,7.837c-5.207,7.172,0.815,18.835,10.423,15.85
			c67.065-20.84,136.58-33.203,206.739-36.493c35.178-1.649,70.462-1.07,105.566,1.749c35.209,2.827,70.138,8.67,105.428,10.551
			c33.858,1.804,68.475-0.531,100.446-12.582c26.417-9.957,50.165-25.068,72.44-42.234c44.502-34.297,83.681-75.891,134.09-101.909
			c45.872-23.677,101.321-38.347,134.872-80.26c4.271-5.336,8.16-10.902,11.535-16.848
			C1492.881,481.369,1489.49,474.984,1483.48,472.711z"/>
	</g>
</g>
</svg>
