<?xml version="1.0" encoding="utf-8"?>
<!-- Generator: Adobe Illustrator 27.5.0, SVG Export Plug-In . SVG Version: 6.00 Build 0)  -->
<svg version="1.1" xmlns="http://www.w3.org/2000/svg" xmlns:xlink="http://www.w3.org/1999/xlink" x="0px" y="0px"
	 viewBox="0 0 1200 800" style="enable-background:new 0 0 1200 800;" xml:space="preserve">
<g id="Background">
	
		<rect x="200" y="-200" transform="matrix(6.123234e-17 -1 1 6.123234e-17 200 1000)" style="fill:#FF6A54;" width="800" height="1200"/>
</g>
<g id="Graphic_Elements">
	<g>
		<defs>
			
				<rect id="SVGID_1_" x="200" y="-200" transform="matrix(-1.836970e-16 1 -1 -1.836970e-16 1000 -200)" width="800" height="1200"/>
		</defs>
		<clipPath id="SVGID_00000155119013999347360730000005505337406271480506_">
			<use xlink:href="#SVGID_1_"  style="overflow:visible;"/>
		</clipPath>
		<path style="clip-path:url(#SVGID_00000155119013999347360730000005505337406271480506_);fill:#632B55;" d="M-126.506,781.901
			c-33.797-65.939-21.03-144.763-13.783-218.504c8.151-82.931,8.198-166.656,0.141-249.596
			C-150.574,206.474-143.974,28.518-11.653-7.69C40.399-21.933,96.165-8.554,146.038,12.06s96.807,48.438,148.194,64.922
			c74.07,23.759,153.5,22.809,230.339,34.916c145.216,22.88,321.332,168.733,257.152,334.805
			c-30.283,78.358-110.185,123.4-180.634,169.16C521.837,667.34,452.357,728.124,382.971,791.83
			c-47.112,43.255-102.038,92.369-167.607,103.401C108.07,913.284-73.125,886.05-126.506,781.901z"/>
		<path style="clip-path:url(#SVGID_00000155119013999347360730000005505337406271480506_);fill:#D6C2E4;" d="M5.492,371.296
			c-12.007-43.753-4.095-92.702,21.448-130.253c51.568-75.813,141.002-90.214,223.85-96.527
			c105.348-8.028,221.789-63.677,318.776-102.954c76.484-30.974,152.659-65.319,234.047-78.919
			c117.71-19.669,240.572,6.099,346.548,60.977c57.364,29.705,111.048,68.422,150.707,119.414
			c108.399,139.377,53.835,306.373,31.75,465.624c-6.908,49.817-14.189,100.816-37.833,145.205
			c-36.427,68.391-108.043,112.509-182.747,133.087c-74.704,20.578-153.317,20.561-230.804,20.401
			c-74.638-0.155-150.692-0.523-221.724-23.442c-49.901-16.101-95.628-42.829-140.158-70.515
			C371.113,721.228,230.967,616.044,101.059,499.45c-38.184-34.27-76.865-71.615-93.165-120.264
			C7.02,376.578,6.22,373.947,5.492,371.296z"/>
		<path style="clip-path:url(#SVGID_00000155119013999347360730000005505337406271480506_);fill:#FF9EC0;" d="M558.712,237.536
			c88.931-20.768,180-44.352,264.628-78.028c84.47-33.613,167.895-79.649,261.04-81.198c60.151-1.001,120.47,17.759,169.443,52.699
			c21.745,15.514,42.106,35.435,49.378,61.138c5.442,19.236,3.004,39.788-0.915,59.392c-21.487,107.48-58.383,201.121-92.977,305.1
			c-38.774,116.544-69.83,236.445-125.356,346.615c-22.953,45.541-50.587,89.826-89.484,122.808
			c-35.423,30.035-78.813,49.448-123.406,62.422c-144.146,41.939-306.391,16.573-430.857-67.361
			c-60.899-41.068-112.703-94.981-175.84-132.517c-58.51-34.786-124.583-54.243-189.139-75.832
			c-79.854-26.705-161.982-59.562-216.504-123.732c-132.008-155.372,25.132-388.707,201.877-412.68
			c84.999-11.529,177.07,2.736,262.913,1.512C406.418,276.692,477.596,256.479,558.712,237.536z"/>
		<path style="clip-path:url(#SVGID_00000155119013999347360730000005505337406271480506_);fill:#F74A4B;" d="M268.314,663.667
			c-50.98-30.326-103.776-57.602-158.019-81.61c-61.998-27.441-126.689-51.086-181.026-91.635
			c-54.337-40.549-98.01-102.411-96.809-170.2c0.677-38.197,15.443-74.944,34.954-107.788
			c22.209-37.384,55.239-73.422,98.459-78.201c19.949-2.206,40.081,2.598,58.848,9.714c71.607,27.152,125.565,85.866,181.06,138.64
			c55.495,52.775,120.785,103.652,197.249,107.906c58.021,3.227,113.559-20.998,167.353-42.975
			c73.438-30.002,148.248-56.688,224.275-79.341c54.008-16.093,110.698-30.261,166.223-20.629
			c65.098,11.293,123.161,57.151,149.231,117.86c17.782,41.411,20.341,88.923,8.482,132.297
			c-14.456,52.873-50.895,79.323-89.756,115.027c-69.126,63.509-147.408,117.076-231.804,158.2
			c-76.281,37.17-184.391,92.047-269.211,61.243c-47.916-17.402-88.095-50.591-128.904-81.141
			C356.97,719.63,313.35,690.458,268.314,663.667z"/>
		<path style="clip-path:url(#SVGID_00000155119013999347360730000005505337406271480506_);fill:#4F8058;" d="M-248.338,1025.017
			c9.364-38.963,36.091-71.067,62.012-101.625c30.835-36.352,61.671-72.704,92.506-109.057
			c33.149-39.08,67.566-79.179,113.298-102.302c70.794-35.794,158.775-23.997,228.221,14.345
			c69.446,38.343,123.047,99.971,169.168,164.515c18.413,25.769,36.695,55.451,32.288,86.814
			c-4.285,30.487-29.375,54.158-56.529,68.666c-62.104,33.181-136.611,30.444-204.68,48.455
			c-99.49,26.325-193.282,98.076-294.307,78.442C-179.188,1159.115-270.137,1115.722-248.338,1025.017z"/>
		<path style="clip-path:url(#SVGID_00000155119013999347360730000005505337406271480506_);fill:#F5C84E;" d="M1116.193,730.97
			c4.353-0.312,8.659-0.573,12.902-0.734c55.226-2.096,123.366-35.222,125.63-95.428c1.32-35.104-0.52-74.221-25.281-99.138
			c-15.487-15.585-37.522-22.761-59.149-26.635c-19.734-3.535-40.186-4.741-59.737-0.308
			c-51.098,11.585-85.591,57.921-115.427,100.991c-11.244,16.231-22.899,33.633-23.749,53.36
			c-1.346,31.277,26.125,57.879,56.252,66.39C1055.858,737.44,1087.062,733.06,1116.193,730.97z"/>
		<path style="clip-path:url(#SVGID_00000155119013999347360730000005505337406271480506_);fill:#0094CE;" d="M266.563,208.038
			c-9.28-5.734-17.942-12.558-26.484-19.381c-11.343-9.059-23.088-18.829-28.345-32.36c-10.637-27.38,1.101-77.322,20.584-98.648
			c12.655-13.853,38.961-23.455,56.576-29.268c20.636-6.81,43.136-8.127,64.352-3.294c33.805,7.7,63.757,30.881,79.688,61.675
			c5.565,10.756,9.524,22.617,9.344,34.725c-0.235,15.792-7.458,30.706-16.457,43.686c-15.784,22.767-37.859,41.513-63.765,51.33
			c-25.905,9.818-55.655,10.257-81.048-0.818C275.997,213.499,271.203,210.905,266.563,208.038z"/>
	</g>
</g>
</svg>
