<?xml version="1.0" encoding="utf-8"?>
<!-- Generator: Adobe Illustrator 27.5.0, SVG Export Plug-In . SVG Version: 6.00 Build 0)  -->
<svg version="1.1" xmlns="http://www.w3.org/2000/svg" xmlns:xlink="http://www.w3.org/1999/xlink" x="0px" y="0px"
	 viewBox="0 0 750 500" style="enable-background:new 0 0 750 500;" xml:space="preserve">
<g id="BACKGROUND">
	<g>
		<g>
			<g>
				<rect y="0" style="fill:#2E4050;" width="750" height="500"/>
			</g>
		</g>
	</g>
	<g style="opacity:0.42;">
		<path style="fill:#2E2F38;" d="M375.795,14.734c-6.164,39.027-21.002,77.621-57.149,97.341
			c-32.575,17.771-73.735,9.948-104.202,30.046c-39.265,25.902-58.452,78.41-67.718,122.514
			c-5.479,26.08-15.427,50.759-21.04,76.728c-4.827,22.33-8.629,47.222-18.535,67.922c-11.477,23.981-32.135,66.056-65.447,52.133
			L31.329,500h544.888c11.513-16.01,12.784-41.826,14.993-59.694c3.346-27.07,3.683-52.687,16.375-77.544
			c14.23-27.869,31.838-51.268,57.26-69.781c21.227-15.458,44.474-30.456,61.571-50.804c13.745-16.358,4.235-31.068-12.51-40.033
			c-16.857-9.025-34.856-6.551-53.35-4.777c-29.87,2.865-55.937,20.012-77.052,40.968c-9.805,9.731-19.505,20.784-27.086,32.368
			c-8.67,13.246-12.671,27.961-19.267,42.153c-12.997,27.963-23.695,56.894-36.413,84.992c-10.637,23.5-23.783,43.674-40.201,63.451
			c-55.124,66.401-162.185-5.464-184.598-69.128c-15.991-45.424-39.38-100.706-10.945-146.532
			c21.813-35.154,63.157-44.699,100.007-54.991c32.375-9.042,66.23-12.289,99.386-17.195c20.933-3.097,40.752-7.8,58.794-18.953
			c16.311-10.083,29.278-28.142,35.413-46.246c5.12-15.108,2.977-33.423,1.532-48.962C558.316,39.848,554.53,19.025,548.248,0
			h-168.89C377.804,4.495,376.642,9.375,375.795,14.734z"/>
	</g>
</g>
<g id="OBJECTS">
	<g>
		<g>
			<path style="fill:#4993D1;" d="M0,225.511c7.054,15.854,13.438,28.216,35.378,33.364c34.704,8.142,40.084-59.028,65.489-72.372
				c34.328-18.03,48.505-48.554,78.043-62.323c33.911-15.807,63.326-0.334,89.206,22.137c16.294,14.148,34.5,21.101,52.736,32.445
				c12.11,7.532,25.25,17.9,40.468,16.897c46.489-3.064,11.465-55.598,2.587-74.988c-5.89-12.864-8.78-27.201-12.621-40.879
				c-4.204-14.971-12.174-29.33,6.826-34.749c24.726-7.053,58.823,23.241,80.1,4.268c17.158-15.3,15.607-32.944,6.244-49.309H0
				V225.511z"/>
			<path style="fill:#C83A3E;" d="M260.895,21.83c2.734,11.624,6.333,23.766,13.145,33.72c5.463,7.984,17.453,16.626,25.138,6.221
				c3.294-4.461,5.119-9.867,7.669-14.75c3.058-5.857,7.56-10.867,13.292-14.242c12.372-7.284,26.021-1.459,38.906,0.842
				c9.273,1.656,19.851,1.44,26.818-5.819c5.754-5.995,7.431-14.793,7.637-22.815c0.043-1.663,0.006-3.326-0.064-4.988H256.939
				C257.865,7.345,259.206,14.646,260.895,21.83z"/>
			<path style="fill:#E09C43;" d="M19.887,147.713c9.917-0.48,19.447-5.615,26.198-12.754c12.105-12.8,14.769-31.205,19.105-47.57
				c2.353-8.883,5.494-17.074,10.522-24.825c4.665-7.191,10.501-13.593,17.422-18.669c13.654-10.016,30.545-13.97,47.245-14.472
				c9.26-0.278,18.331,0.717,27.519,1.659c6.411,0.658,12.941,0.494,19.25-0.89c11.003-2.414,20.736-8.647,27.424-17.725
				c2.843-3.858,5.112-8.056,6.857-12.47H0v141.82C5.831,145.778,12.691,148.061,19.887,147.713z"/>
			<ellipse style="fill:#E09C43;" cx="144.551" cy="66.869" rx="33.837" ry="19.686"/>
			<path style="fill:#C83A3E;" d="M232.343,179.92c14.085,16.564-3.055,28.474-24.856,47.011s-40.005,36.682-54.09,20.118
				c-14.085-16.564-7.83-45.02,13.97-63.557S218.258,163.356,232.343,179.92z"/>
			<path style="fill:#4993D1;" d="M612.847,117.877c-35.804,5.322-54.591-31.323-93.086-0.493
				c-26.926,21.565-47.374,101.052-16.333,113.795c45.636,18.734,61.602,34.614,53.813,140.769
				c-2.143,29.203-55.812,28.363-82.321,23.461c-29.316-5.421-53.882-14.746-84.301-8.028c-25.39,5.607-52.833,22.307-66.591,44.702
				c-7.925,12.9-6.778,25.96-6.813,40.772c-0.022,9.435,3.207,18.252,4.59,27.144H750V240.348
				C665.565,211.013,669.386,109.473,612.847,117.877z"/>
			
				<ellipse transform="matrix(0.6025 -0.7981 0.7981 0.6025 81.8583 457.69)" style="fill:#C83A3E;" cx="500.406" cy="146.667" rx="19.347" ry="25.553"/>
			<path style="fill:#C83A3E;" d="M739.684,316.204c-12.888-12.965-25.622-26.336-40.423-37.169
				c-9.63-7.048-22.284-15.448-34.852-14.026c-16.407,1.856-20.335,22.026-21.991,35.305c-5.12,41.047,7.947,81.12,23.972,118.353
				c11.683,27.144,25.379,53.671,35.931,81.334H750V326.675C746.57,323.175,743.138,319.679,739.684,316.204z"/>
		</g>
		<g>
			<path style="fill:#C83A3E;" d="M0,303.947V500h240.156c7.102-12.123,11.106-25.805,15.845-39.581
				c30.515-88.695-74.22-167.275-143.584-128.39C65.845,358.138,31.329,277.38,0,303.947z"/>
		</g>
		<g>
			<g>
				<g>
					<g>
						<path style="fill:#E09C43;" d="M587.367,48.148c10.552,6.216,22.224,9.249,34.407,9.945
							c29.512,1.686,58.531-11.185,80.652-30.051c9.94-8.477,18.661-18.11,27.069-28.041H545.997
							c4.197,8.938,9.395,17.385,15.443,25.006C568.669,34.114,577.318,42.228,587.367,48.148z"/>
					</g>
				</g>
			</g>
		</g>
		<path style="fill:#E09C43;" d="M518.786,353.646c-7.583,14.865-44.58,28.841-52.774,6.997
			c-8.194-21.844-32.897-31.967-25.314-46.832c7.583-14.865,15.65-7.695,52.774-6.997S526.369,338.782,518.786,353.646z"/>
		<path style="fill:#E09C43;" d="M437.09,356.226c0,9.948-11.24,12.201-25.106,12.201s-25.106-2.253-25.106-12.201
			c0-9.948,11.24-18.013,25.106-18.013S437.09,346.277,437.09,356.226z"/>
		<g>
			<path style="fill:#FFFFFF;" d="M641.367,166.971c42.209,9.271,75.944,32.926,108.633,59.761v-9.032
				c-32.012-25.897-65.396-48.4-107.131-57.567c-23.315-5.121-41.305-1.642-53.476,10.339
				c-31.476,30.983-15.444,109.896-6.832,152.291l0.995,4.908c10.178,50.526,33.741,94.949,56.528,137.91
				c5.999,11.309,12.079,22.776,17.948,34.418h7.832c-6.381-12.78-13.037-25.333-19.596-37.698
				c-22.553-42.519-45.873-86.484-55.851-136.013l-0.996-4.919c-7.754-38.168-23.889-117.589,4.883-145.909
				C604.68,165.247,620.517,162.389,641.367,166.971z"/>
			<path style="fill:#FFFFFF;" d="M202.479,467.791c-11.61-8.126-22.575-15.802-26.638-23.196
				c-5.236-9.535-7.004-20.93-8.713-31.949c-3.313-21.364-6.74-43.457-35.187-52.083c-28.809-8.735-61.939,5.688-91.17,18.414
				c-6.755,2.941-13.135,5.719-19.098,8.037C15.223,389.521,7.719,393.031,0,397.311v8.125c9.086-5.273,17.78-9.399,24.212-11.899
				c6.093-2.368,12.534-5.173,19.354-8.142c28.124-12.245,60-26.125,86.345-18.134c24.234,7.349,27.046,25.473,30.301,46.457
				c1.802,11.618,3.665,23.632,9.495,34.245c4.847,8.825,16.461,16.955,28.758,25.562c11.446,8.012,23.965,16.781,31.145,26.475
				h8.384C230.696,487.548,215.898,477.183,202.479,467.791z"/>
		</g>
		<path style="fill:#4993D1;" d="M256.532,360.755c15.276,11.193,4.95,14.974,6.581,36.069c1.631,21.095,14.457,21.166-0.674,40.323
			c-10.112,12.803-30.774-14.824-32.405-35.919C228.403,380.134,243.373,351.113,256.532,360.755z"/>
		<path style="fill:#4993D1;" d="M225.679,354.803c-5.388,8.545-7.732,15.467-12.47,12.479c-4.739-2.988-9.037-8.502-7.371-18.465
			c3.326-19.894,22.144-15.467,26.883-12.479S231.067,346.258,225.679,354.803z"/>
	</g>
</g>
</svg>
