<svg xmlns="http://www.w3.org/2000/svg" xmlns:xlink="http://www.w3.org/1999/xlink" version="1.1" id="Layer_1" x="0px" y="0px" style="enable-background:new 0 0 4000 4000;" xml:space="preserve" viewBox="1080.56 1363.84 2392.2 1619.93">
<rect x="1080.562" y="1363.839" style="fill-rule:evenodd;clip-rule:evenodd;fill:#5B0298;" width="2392.203" height="1619.928"/>
<path style="fill-rule:evenodd;clip-rule:evenodd;fill:#FFBCD8;" d="M1080.562,1363.839h976.141  c108.978,263.634-286.36,86.486-306.029,366.792c-18.057,257.324-144.463,340.841-362.653,103.499  c-127.144-138.305-212.91-40.987-307.459,14.751V1363.839z"/>
<path style="fill-rule:evenodd;clip-rule:evenodd;fill:#F98AFE;" d="M1860.096,2983.768h-779.533v-503.299  c149.538-33.363,185.715-43.202,224.534-198.477c40.706-162.819,319.822-139.559,351.804,186.076  C1688.476,2789.563,2145.065,2788.003,1860.096,2983.768"/>
<path style="fill-rule:evenodd;clip-rule:evenodd;fill:#DB17B9;" d="M3472.765,2195.617v788.15h-537.802  c-89.227-156.533,63.696-334.775,185.285-381.624c140.789-54.247,57.647-370.713,242.572-402.086  C3405.274,2192.855,3441.589,2191.792,3472.765,2195.617"/>
<path style="fill-rule:evenodd;clip-rule:evenodd;fill:#12BDDB;" d="M2947.315,1363.839h525.45v493.928  c-2.24,1.213-4.445,2.467-6.598,3.78c-144.463,88.032-119.634,264.094-377.091,217.717  c-257.457-46.377-214.302-337.351-119.499-454.725C3021.808,1559.873,2975.39,1460.266,2947.315,1363.839"/>
<path style="fill-rule:evenodd;clip-rule:evenodd;fill:#DB17B9;" d="M2065.866,2039.608  c168.632-37.797,206.428-40.706,247.132-203.523c40.707-162.818,319.823-139.559,351.804,186.077  c31.982,325.637,500.086,319.819,191.893,523.343c-308.192,203.525-284.932-37.795-581.494,136.654  c-296.561,174.447-395.413,93.04-348.895-139.559C1972.022,2314.018,1790.995,2101.22,2065.866,2039.608"/>
<path style="opacity:0.77;fill-rule:evenodd;clip-rule:evenodd;fill:#16EA9E;" d="M1450.827,2414.042  c-37.797-168.632-40.706-206.429-203.523-247.133c-162.819-40.707-139.559-319.823,186.076-351.805  c325.638-31.981,319.819-500.085,523.344-191.893c203.524,308.193-37.796,284.932,136.653,581.494  c174.447,296.561,93.041,395.413-139.559,348.895C1725.235,2507.885,1512.438,2688.913,1450.827,2414.042"/>
<path style="opacity:0.77;fill-rule:evenodd;clip-rule:evenodd;fill:#15B0F8;" d="M2713.575,2047.944  c-122.115-38.191-147.428-50.317-233.8,39.01c-86.372,89.327-256.727-28.912-156.687-249.543  c100.039-220.632-202.254-390.187,70.695-406.594c272.95-16.407,168.702,129.711,423.43,127.641  c254.73-2.068,287.974,86.722,172.043,218.639C2875.328,1906.736,2912.623,2110.193,2713.575,2047.944"/>
<path style="opacity:0.77;fill-rule:evenodd;clip-rule:evenodd;fill:#FA9BC7;" d="M3025.869,2475.875  c-29.495,94.311-38.859,113.86,30.127,180.564c68.987,66.706-22.327,198.271-192.722,121.009  c-170.395-77.261-301.342,156.202-314.015-54.598c-12.67-210.8,100.177-130.289,98.579-327.016  c-1.597-196.727,66.975-222.403,168.855-132.869C2916.814,2350.955,3073.944,2322.15,3025.869,2475.875"/>
<path style="opacity:0.77;fill-rule:evenodd;clip-rule:evenodd;fill:#F98AFE;" d="M2020.744,1838.563  c-17.181-76.653-18.502-93.835-92.513-112.337c-74.01-18.503-63.436-145.378,84.584-159.915s145.375-227.318,237.89-87.227  c92.513,140.092-17.18,129.519,62.116,264.322c79.296,134.805,42.292,179.739-63.437,158.594  C2145.479,1881.219,2048.75,1963.507,2020.744,1838.563"/>
<path style="opacity:0.77;fill-rule:evenodd;clip-rule:evenodd;fill:#66E5FB;" d="M2124.134,2876.076  c-17.18-76.653-18.502-93.835-92.513-112.337c-74.01-18.503-63.436-145.377,84.584-159.914  c148.02-14.538,145.376-227.319,237.89-87.227c92.512,140.091-17.18,129.518,62.116,264.321  c79.296,134.806,42.293,179.74-63.437,158.594C2248.87,2918.732,2152.14,3001.019,2124.134,2876.076"/>
</svg>