<svg xmlns="http://www.w3.org/2000/svg" xmlns:xlink="http://www.w3.org/1999/xlink" version="1.1" id="Layer_1" x="0px" y="0px" style="enable-background:new 0 0 1080 1080;" xml:space="preserve" viewBox="308.98 474.48 462.03 131.02">
<g>
	<polygon points="352,503.8 339.49,503.8 372.99,576.24 374.48,576.24 407.88,503.8 395.47,503.8 373.68,553.57  "/>
	<rect x="416.25" y="503.8" width="11.04" height="72.43"/>
	<rect x="446.21" y="503.8" width="11.04" height="72.43"/>
	<polygon points="499.62,576.24 499.62,513.46 518.35,513.46 518.35,503.8 470.16,503.8 470.16,513.46 488.68,513.46 488.68,576.24     "/>
	<polygon points="566.53,562.04 572.74,576.24 585.46,576.24 550.57,503.7 549.49,503.7 514.8,576.24 527.12,576.24 533.33,562.04    537.82,552.09 537.76,552.09 545.64,534.55 549.98,524.69 550.18,524.69 554.41,534.65 560.85,549.07 562.2,552.09 562.18,552.09     "/>
	<path d="M634.28,538.34c2.27-3.52,3.41-7.7,3.41-12.57c0-7.75-2.7-13.35-8.08-16.8c-5.39-3.45-12.26-5.17-20.6-5.17h-16.46v72.43   h10.74v-27.2h2.76c2.36,0,5.05-0.07,8.08-0.2l14.58,27.4h12.71l-17.24-29.76C628.65,544.57,632.02,541.86,634.28,538.34z    M623.55,535.88c-2.4,2.8-6.82,4.19-13.26,4.19h-6.99v-27.1h6.6c11.5,0,17.25,4.3,17.25,12.91   C627.14,529.76,625.94,533.09,623.55,535.88z"/>
	<polygon points="696.12,562.04 702.33,576.24 715.05,576.24 680.16,503.7 679.08,503.7 644.39,576.24 656.7,576.24 662.92,562.04    667.41,552.09 667.35,552.09 675.23,534.55 679.57,524.69 679.77,524.69 684,534.65 690.72,549.69 691.78,552.09 691.77,552.09     "/>
	<path d="M763.57,561.22c-0.95-1.84-3.45-5.49-8.44-12.69c-0.02-0.03-0.04-0.05-0.06-0.09c-3.08-4.46-5.74-8.24-7.78-11.1   c-0.13-0.2-0.27-0.38-0.4-0.56c-0.13-0.2-0.27-0.38-0.4-0.57c-0.14-0.2-0.27-0.39-0.41-0.58l24.93-31.83h-13.21l-24.84,32.32V503.8   h-10.84v72.43h10.84v-25.13l5.91-7.29c6.47,8.98,11.69,16.88,15.73,23.27c2.66,4.21,4.72,7.63,4.25,12.05   c-0.71,6.66-6.68,10.93-8.37,12.04c-1.4,0.91-4.02,2.34-12.57,3.57c-4.49,0.65-10.82,1.24-18.54,0.93H376.21   c-31.68,0-57.46-24.99-57.46-55.71c0-14.86,5.96-28.83,16.78-39.34c10.85-10.56,25.3-16.37,40.68-16.37h394.46v-9.77H376.21   c-17.94,0-34.8,6.79-47.49,19.13c-12.73,12.37-19.74,28.83-19.74,46.35c0,36.1,30.16,65.48,67.23,65.48h332.83   c18.1,0,50.1,2.17,58.77-18.79c1.43-3.45,1.63-7.01,1.18-10.42C768.19,570.25,765.37,564.74,763.57,561.22z"/>
</g>
</svg>