<svg width="609" height="128" viewBox="0 0 609 128" fill="none" xmlns="http://www.w3.org/2000/svg">
<path fill-rule="evenodd" clip-rule="evenodd" d="M21.1715 32.2036C30.8916 19.1293 46.4569 10.6588 64.0004 10.6588C81.647 10.6588 97.2914 19.2292 107 32.4347C106.587 32.8596 106.21 33.2999 105.87 33.7398C104.091 36.0426 102.753 39.0089 101.681 42.0211C99.5227 48.0794 97.876 55.9928 96.3516 63.4031L96.2162 64.0693C94.695 71.4659 93.2812 78.3449 91.5718 83.4515C90.8038 85.7456 90.0754 87.3675 89.4296 88.4063C88.7558 87.3592 87.9911 85.7175 87.1818 83.3904C85.3534 78.1373 83.8158 70.992 82.1856 63.3628L82.1328 63.1129C80.5664 55.7847 78.9047 48.009 76.8329 42.0573C75.792 39.0675 74.5148 36.131 72.8445 33.8494C71.2051 31.6103 68.4763 29.0834 64.4853 29.0834C60.5193 29.0834 57.7779 31.5829 56.1149 33.7969C54.4122 36.0636 53.0848 38.9881 51.9913 41.9793C49.7892 48.0029 47.9888 55.8823 46.3132 63.3026L46.1401 64.0693C44.4809 71.42 42.9298 78.2922 41.1692 83.4085C40.497 85.3624 39.8628 86.8489 39.2887 87.9108C38.7276 86.8538 38.1092 85.3773 37.4554 83.4399C35.7662 78.4326 34.2866 71.7528 32.6974 64.5782L32.4192 63.3226C30.7726 55.8976 28.9862 48.0041 26.7527 41.9617C25.6429 38.9592 24.2856 36.0201 22.5291 33.7427C22.1314 33.2273 21.6794 32.704 21.1715 32.2036ZM15.2886 42.2426C15.7515 43.1568 16.2412 44.2898 16.7476 45.6598C18.6809 50.8899 20.3188 58.0267 22.0054 65.6321L22.3336 67.1139C23.8693 74.0535 25.4667 81.272 27.3482 86.8489C28.349 89.8151 29.5575 92.7203 31.1118 94.9781C32.5816 97.1136 35.2184 99.8718 39.273 99.8718C43.3158 99.8718 45.9589 97.1268 47.4388 95.0012C49.0063 92.7484 50.2346 89.8465 51.2557 86.8786C53.2128 81.1913 54.8792 73.8034 56.474 66.7332L56.7179 65.6521C58.4363 58.0421 60.0904 50.8911 62.0096 45.6419C62.8986 43.2099 63.731 41.5157 64.4556 40.4646C65.1425 41.5066 65.927 43.1739 66.7591 45.5642C68.5878 50.8174 70.1241 57.9626 71.7546 65.5919L71.808 65.8418C73.374 73.17 75.0357 80.9457 77.1075 86.8967C78.1484 89.8878 79.4256 92.8244 81.0959 95.1053C82.7356 97.3449 85.4641 99.8718 89.4544 99.8718C93.4662 99.8718 96.1848 97.3217 97.805 95.0623C99.45 92.7699 100.687 89.8234 101.686 86.8373C103.607 81.1017 105.135 73.6596 106.59 66.5798L106.8 65.5516C108.367 57.9316 109.872 50.8146 111.73 45.6002C112.133 44.4658 112.529 43.4986 112.907 42.6862C115.755 49.2119 117.334 56.4177 117.334 63.9922C117.334 93.447 93.4563 117.326 64.0004 117.326C34.545 117.326 10.6667 93.447 10.6667 63.9922C10.6667 56.2456 12.3183 48.8847 15.2886 42.2426ZM64.0004 -0.0078125C28.654 -0.0078125 0 28.646 0 63.9922C0 99.3384 28.654 127.992 64.0004 127.992C99.3476 127.992 128 99.3384 128 63.9922C128 28.646 99.3476 -0.0078125 64.0004 -0.0078125ZM65.2196 39.5718C65.2196 39.5731 65.2073 39.583 65.1823 39.5975C65.2071 39.5777 65.2196 39.5705 65.2196 39.5718ZM63.7454 39.579C63.7206 39.5638 63.7084 39.5534 63.7084 39.5521C63.7084 39.5508 63.7208 39.5584 63.7454 39.579ZM88.6435 89.4188C88.6435 89.4188 88.655 89.4072 88.6781 89.3923C88.655 89.4122 88.6435 89.4204 88.6435 89.4188ZM90.1943 89.3758C90.2191 89.3907 90.2323 89.4006 90.2323 89.4023C90.2323 89.4039 90.2191 89.3956 90.1943 89.3758ZM38.1799 89.5146C38.1798 89.5129 38.1951 89.498 38.2258 89.4766C38.1955 89.5047 38.1799 89.5162 38.1799 89.5146ZM40.3401 89.4865C40.3706 89.5079 40.3858 89.5228 40.3858 89.5245C40.3857 89.5261 40.3703 89.5162 40.3401 89.4865Z" fill="#1B1B1B"/>
<path d="M183.847 92.673L168 38.4688H181.88L191.278 77.4824L202.206 38.4688H217.723L228.653 77.4824L238.16 38.4688H252.039L236.084 92.673H221.55L209.965 52.1291L198.381 92.673H183.847Z" fill="#1B1B1B"/>
<path d="M272.405 93.9915C267.742 93.9915 263.917 93.2614 260.931 91.8044C257.944 90.2748 255.722 88.2715 254.265 85.7942C252.808 83.317 252.079 80.5851 252.079 77.5986C252.079 72.5716 254.045 68.4915 257.98 65.3588C261.914 62.2261 267.816 60.6597 275.684 60.6597H289.453V59.3482C289.453 55.6327 288.396 52.9007 286.285 51.1521C284.172 49.4035 281.548 48.5293 278.416 48.5293C275.575 48.5293 273.098 49.2214 270.985 50.6057C268.872 51.9172 267.56 53.8841 267.05 56.5069H253.389C253.755 52.5728 255.066 49.1485 257.324 46.2344C259.656 43.3202 262.642 41.0981 266.285 39.5683C269.929 37.9654 274.008 37.1641 278.524 37.1641C286.248 37.1641 292.33 39.0946 296.776 42.956C301.219 46.8172 303.442 52.2814 303.442 59.3482V92.6796H291.529L290.219 83.9376C288.615 86.8516 286.357 89.2546 283.443 91.1501C280.602 93.0438 276.922 93.9915 272.405 93.9915ZM275.575 83.0624C279.582 83.0624 282.678 81.7504 284.863 79.1281C287.121 76.5059 288.543 73.263 289.126 69.4022H277.214C273.497 69.4022 270.84 70.0944 269.236 71.4786C267.634 72.7892 266.831 74.43 266.831 76.3963C266.831 78.5093 267.634 80.1484 269.236 81.3136C270.84 82.4789 272.951 83.0624 275.575 83.0624Z" fill="#1B1B1B"/>
<path d="M325.462 92.673L305.573 38.4688H320.216L333.986 79.4504L347.755 38.4688H362.4L342.401 92.673H325.462Z" fill="#1B1B1B"/>
<path d="M390.519 93.9915C385.055 93.9915 380.21 92.8246 375.984 90.4941C371.76 88.1619 368.445 84.8836 366.04 80.6576C363.635 76.4334 362.435 71.5514 362.435 66.0145C362.435 60.4047 363.6 55.4141 365.93 51.0428C368.335 46.6715 371.613 43.2838 375.767 40.8796C379.991 38.4025 384.945 37.1641 390.628 37.1641C395.947 37.1641 400.647 38.3297 404.726 40.661C408.806 42.9924 411.976 46.198 414.234 50.2779C416.564 54.2848 417.731 58.7654 417.731 63.7195C417.731 64.5211 417.694 65.3588 417.622 66.233C417.622 67.1074 417.585 68.018 417.512 68.9651H376.313C376.605 73.1905 378.062 76.5059 380.684 78.9106C383.379 81.3136 386.622 82.516 390.411 82.516C393.251 82.516 395.62 81.8971 397.514 80.6576C399.48 79.3474 400.937 77.6711 401.885 75.6307H416.092C415.072 79.0556 413.359 82.1888 410.956 85.0303C408.623 87.7976 405.709 89.9831 402.212 91.5868C398.789 93.1888 394.89 93.9915 390.519 93.9915ZM390.628 48.5293C387.205 48.5293 384.182 49.513 381.558 51.4799C378.935 53.3742 377.259 56.2883 376.531 60.2226H403.524C403.305 56.6526 401.994 53.8113 399.59 51.6985C397.185 49.5858 394.198 48.5293 390.628 48.5293Z" fill="#1B1B1B"/>
<path d="M425.125 92.6756V13.9922H439.113V92.6756H425.125Z" fill="#1B1B1B"/>
<path d="M475.371 93.9915C469.908 93.9915 465.063 92.8246 460.837 90.4941C456.613 88.1619 453.297 84.8836 450.893 80.6576C448.488 76.4334 447.287 71.5514 447.287 66.0145C447.287 60.4047 448.452 55.4141 450.783 51.0428C453.188 46.6715 456.466 43.2838 460.619 40.8796C464.845 38.4025 469.798 37.1641 475.481 37.1641C480.8 37.1641 485.5 38.3297 489.579 40.661C493.658 42.9924 496.828 46.198 499.086 50.2779C501.417 54.2848 502.584 58.7654 502.584 63.7195C502.584 64.5211 502.547 65.3588 502.474 66.233C502.474 67.1074 502.437 68.018 502.365 68.9651H461.166C461.457 73.1905 462.914 76.5059 465.537 78.9106C468.231 81.3136 471.474 82.516 475.263 82.516C478.103 82.516 480.473 81.8971 482.366 80.6576C484.333 79.3474 485.79 77.6711 486.737 75.6307H500.945C499.925 79.0556 498.211 82.1888 495.808 85.0303C493.476 87.7976 490.562 89.9831 487.064 91.5868C483.641 93.1888 479.744 93.9915 475.371 93.9915ZM475.481 48.5293C472.058 48.5293 469.034 49.513 466.41 51.4799C463.788 53.3742 462.112 56.2883 461.383 60.2226H488.376C488.157 56.6526 486.847 53.8113 484.442 51.6985C482.038 49.5858 479.051 48.5293 475.481 48.5293Z" fill="#1B1B1B"/>
<path d="M532.38 93.9915C527.572 93.9915 523.346 93.2259 519.703 91.6964C516.059 90.0927 513.145 87.9072 510.96 85.1383C508.774 82.371 507.464 79.1652 507.025 75.5227H521.123C521.56 77.634 522.727 79.457 524.621 80.9865C526.587 82.4435 529.101 83.172 532.16 83.172C535.221 83.172 537.444 82.5531 538.826 81.3136C540.283 80.0759 541.012 78.6543 541.012 77.0523C541.012 74.72 539.993 73.1534 537.953 72.3524C535.912 71.4786 533.071 70.6408 529.428 69.8394C527.098 69.3293 524.73 68.7101 522.326 67.9816C519.921 67.2531 517.7 66.3423 515.659 65.2496C513.691 64.0838 512.089 62.6268 510.85 60.8782C509.612 59.0568 508.993 56.8347 508.993 54.2119C508.993 49.4035 510.887 45.3602 514.676 42.0818C518.536 38.8032 523.928 37.1641 530.85 37.1641C537.261 37.1641 542.361 38.6575 546.149 41.6445C550.01 44.6317 552.305 48.7479 553.034 53.9934H539.811C539.009 49.9865 535.985 47.9829 530.74 47.9829C528.118 47.9829 526.078 48.4929 524.621 49.513C523.236 50.5329 522.545 51.8077 522.545 53.3377C522.545 54.9406 523.6 56.2155 525.713 57.1627C527.826 58.1098 530.631 58.984 534.128 59.7855C537.916 60.6597 541.376 61.6431 544.509 62.7361C547.715 63.756 550.265 65.3224 552.16 67.4352C554.054 69.475 555 72.4249 555 76.2867C555.074 79.6391 554.199 82.661 552.378 85.3575C550.557 88.0522 547.934 90.1652 544.509 91.6964C541.086 93.2259 537.042 93.9915 532.38 93.9915Z" fill="#1B1B1B"/>
<path d="M585.423 93.9915C580.615 93.9915 576.389 93.2259 572.747 91.6964C569.104 90.0927 566.19 87.9072 564.005 85.1383C561.819 82.371 560.507 79.1652 560.07 75.5227H574.168C574.605 77.634 575.77 79.457 577.664 80.9865C579.632 82.4435 582.145 83.172 585.205 83.172C588.264 83.172 590.487 82.5531 591.871 81.3136C593.328 80.0759 594.057 78.6543 594.057 77.0523C594.057 74.72 593.037 73.1534 590.996 72.3524C588.957 71.4786 586.116 70.6408 582.473 69.8394C580.141 69.3293 577.774 68.7101 575.369 67.9816C572.966 67.2531 570.743 66.3423 568.703 65.2496C566.736 64.0838 565.133 62.6268 563.895 60.8782C562.655 59.0568 562.037 56.8347 562.037 54.2119C562.037 49.4035 563.932 45.3602 567.72 42.0818C571.581 38.8032 576.973 37.1641 583.893 37.1641C590.305 37.1641 595.404 38.6575 599.193 41.6445C603.053 44.6317 605.349 48.7479 606.077 53.9934H592.854C592.053 49.9865 589.03 47.9829 583.784 47.9829C581.161 47.9829 579.121 48.4929 577.664 49.513C576.279 50.5329 575.588 51.8077 575.588 53.3377C575.588 54.9406 576.644 56.2155 578.757 57.1627C580.87 58.1098 583.674 58.984 587.172 59.7855C590.961 60.6597 594.421 61.6431 597.554 62.7361C600.76 63.756 603.31 65.3224 605.204 67.4352C607.097 69.475 608.045 72.4249 608.045 76.2867C608.118 79.6391 607.244 82.661 605.423 85.3575C603.6 88.0522 600.978 90.1652 597.554 91.6964C594.129 93.2259 590.085 93.9915 585.423 93.9915Z" fill="#1B1B1B"/>
</svg>
