<svg xmlns="http://www.w3.org/2000/svg" xmlns:xlink="http://www.w3.org/1999/xlink" version="1.1" id="Layer_1" x="0px" y="0px" style="enable-background:new 0 0 1080 1080;" xml:space="preserve" viewBox="192.75 397.29 694 285.43">
<style type="text/css">
	.st0{stroke:#FFFFFF;stroke-miterlimit:10;}
</style>
<g>
	<g>
		<g>
			<g>
				<path d="M529.1,456.89L518.62,494h-5.1l-7.63-27.12c-0.33-1.16-0.53-2.42-0.6-3.78h-0.1c-0.1,1.28-0.33,2.52-0.67,3.73      L496.83,494h-5.05l-10.87-37.11h4.79l7.89,28.47c0.33,1.19,0.53,2.43,0.62,3.73h0.13c0.09-0.91,0.35-2.16,0.8-3.73l8.2-28.47      h4.17l7.87,28.67c0.28,0.98,0.48,2.14,0.62,3.47h0.1c0.07-0.9,0.3-2.09,0.7-3.57l7.58-28.57H529.1z"/>
				<path d="M562.23,494h-19.67v-37.11h18.84v3.93h-14.49v12.34h13.41v3.91h-13.41v12.99h15.32V494z"/>
				<path d="M606.31,494h-4.81l-3.93-10.4h-15.73l-3.7,10.4h-4.84l14.23-37.11h4.5L606.31,494z M596.14,479.69l-5.82-15.81      c-0.19-0.52-0.38-1.35-0.57-2.48h-0.1c-0.17,1.05-0.37,1.88-0.6,2.48l-5.77,15.81H596.14z"/>
				<path d="M638.97,494h-19.25v-37.11h4.35v33.18h14.91V494z"/>
				<path d="M671.64,460.82h-10.71V494h-4.35v-33.18h-10.69v-3.93h25.75V460.82z"/>
				<path d="M713.31,494h-4.35v-16.92h-19.2V494h-4.35v-37.11h4.35v16.28h19.2v-16.28h4.35V494z"/>
			</g>
		</g>
		<g>
			<g>
				<path d="M489.45,608.47v14.03h-4.35v-37.11h10.2c3.97,0,7.04,0.97,9.23,2.9c2.18,1.93,3.27,4.66,3.27,8.18s-1.21,6.4-3.64,8.64      c-2.42,2.24-5.7,3.36-9.82,3.36H489.45z M489.45,589.32v15.22h4.55c3,0,5.29-0.69,6.87-2.06c1.58-1.37,2.37-3.31,2.37-5.81      c0-4.9-2.9-7.35-8.7-7.35H489.45z"/>
				<path d="M547.38,622.49h-4.81l-3.93-10.4h-15.73l-3.7,10.4h-4.84l14.23-37.11h4.5L547.38,622.49z M537.21,608.18l-5.82-15.81      c-0.19-0.52-0.38-1.35-0.57-2.48h-0.1c-0.17,1.05-0.37,1.88-0.59,2.48l-5.77,15.81H537.21z"/>
				<path d="M587.39,622.49h-5.18l-6.21-10.4c-0.57-0.97-1.12-1.79-1.66-2.47c-0.54-0.68-1.08-1.24-1.64-1.67      c-0.56-0.43-1.16-0.75-1.81-0.94c-0.65-0.2-1.38-0.3-2.19-0.3h-3.57v15.79h-4.35v-37.11h11.08c1.62,0,3.12,0.2,4.49,0.61      c1.37,0.41,2.56,1.02,3.57,1.85c1.01,0.83,1.8,1.86,2.37,3.09c0.57,1.23,0.85,2.68,0.85,4.33c0,1.29-0.19,2.48-0.58,3.56      c-0.39,1.08-0.94,2.04-1.66,2.88c-0.72,0.85-1.58,1.57-2.59,2.16c-1.01,0.6-2.14,1.06-3.4,1.38v0.1      c0.62,0.28,1.16,0.59,1.62,0.94c0.46,0.35,0.89,0.77,1.31,1.26c0.41,0.48,0.82,1.03,1.23,1.64c0.41,0.61,0.86,1.32,1.36,2.13      L587.39,622.49z M565.13,589.32v13.46h5.9c1.09,0,2.09-0.16,3.01-0.49c0.92-0.33,1.72-0.8,2.39-1.41      c0.67-0.61,1.2-1.36,1.58-2.25s0.57-1.88,0.57-2.99c0-1.98-0.64-3.53-1.93-4.65c-1.29-1.11-3.14-1.67-5.58-1.67H565.13z"/>
				<path d="M621.01,589.32H610.3v33.18h-4.35v-33.18h-10.69v-3.93h25.75V589.32z"/>
				<path d="M664.7,622.49h-5.33l-19.1-29.58c-0.48-0.74-0.88-1.52-1.19-2.33h-0.16c0.14,0.79,0.21,2.49,0.21,5.1v26.81h-4.35      v-37.11h5.64l18.58,29.11c0.78,1.21,1.28,2.04,1.5,2.48h0.1c-0.17-1.07-0.26-2.89-0.26-5.46v-26.14h4.35V622.49z"/>
				<path d="M702.05,622.49h-19.67v-37.11h18.84v3.93h-14.49v12.34h13.41v3.91h-13.41v12.99h15.32V622.49z"/>
				<path d="M743.74,622.49h-5.18l-6.21-10.4c-0.57-0.97-1.12-1.79-1.66-2.47c-0.54-0.68-1.08-1.24-1.64-1.67      c-0.56-0.43-1.16-0.75-1.81-0.94c-0.65-0.2-1.38-0.3-2.19-0.3h-3.57v15.79h-4.35v-37.11h11.08c1.62,0,3.12,0.2,4.49,0.61      c1.37,0.41,2.56,1.02,3.57,1.85c1.01,0.83,1.8,1.86,2.37,3.09c0.57,1.23,0.85,2.68,0.85,4.33c0,1.29-0.19,2.48-0.58,3.56      c-0.39,1.08-0.94,2.04-1.66,2.88c-0.72,0.85-1.58,1.57-2.59,2.16c-1.01,0.6-2.14,1.06-3.4,1.38v0.1      c0.62,0.28,1.16,0.59,1.62,0.94c0.46,0.35,0.89,0.77,1.31,1.26c0.41,0.48,0.82,1.03,1.23,1.64c0.41,0.61,0.86,1.32,1.36,2.13      L743.74,622.49z M721.49,589.32v13.46h5.9c1.09,0,2.09-0.16,3.01-0.49c0.92-0.33,1.72-0.8,2.39-1.41      c0.67-0.61,1.2-1.36,1.58-2.25s0.57-1.88,0.57-2.99c0-1.98-0.64-3.53-1.93-4.65c-1.29-1.11-3.14-1.67-5.58-1.67H721.49z"/>
				<path d="M755.06,620.99v-5.12c0.59,0.52,1.29,0.98,2.11,1.4s1.68,0.76,2.59,1.05c0.91,0.29,1.82,0.5,2.73,0.66      s1.76,0.23,2.54,0.23c2.67,0,4.67-0.5,5.99-1.49c1.32-0.99,1.98-2.42,1.98-4.28c0-1-0.22-1.87-0.66-2.61      c-0.44-0.74-1.05-1.42-1.82-2.03c-0.78-0.61-1.7-1.2-2.76-1.76c-1.06-0.56-2.2-1.15-3.43-1.77c-1.29-0.66-2.5-1.32-3.62-1.99      c-1.12-0.67-2.1-1.41-2.92-2.22c-0.83-0.81-1.48-1.73-1.95-2.76c-0.47-1.03-0.71-2.23-0.71-3.61c0-1.69,0.37-3.16,1.11-4.41      c0.74-1.25,1.72-2.28,2.92-3.09c1.21-0.81,2.58-1.42,4.13-1.81c1.54-0.4,3.12-0.59,4.72-0.59c3.66,0,6.32,0.44,8,1.32v4.89      c-2.19-1.52-5-2.28-8.44-2.28c-0.95,0-1.9,0.1-2.85,0.3s-1.79,0.52-2.54,0.97c-0.74,0.45-1.35,1.03-1.81,1.73      c-0.47,0.71-0.7,1.57-0.7,2.59c0,0.95,0.18,1.77,0.53,2.46c0.35,0.69,0.88,1.32,1.57,1.89s1.53,1.12,2.52,1.66      c0.99,0.54,2.13,1.12,3.43,1.76c1.33,0.66,2.59,1.35,3.78,2.07s2.23,1.53,3.13,2.41c0.9,0.88,1.61,1.85,2.13,2.92      c0.53,1.07,0.79,2.29,0.79,3.67c0,1.83-0.36,3.38-1.07,4.65c-0.72,1.27-1.68,2.3-2.9,3.09c-1.22,0.79-2.62,1.37-4.21,1.72      s-3.26,0.53-5.02,0.53c-0.59,0-1.31-0.05-2.17-0.14s-1.74-0.23-2.64-0.41c-0.9-0.18-1.75-0.41-2.55-0.67      C756.18,621.62,755.54,621.32,755.06,620.99z"/>
				<path d="M830.32,623.11c-5.26,0-9.48-1.73-12.64-5.2c-3.17-3.47-4.75-7.98-4.75-13.54c0-5.97,1.61-10.73,4.84-14.29      c3.23-3.55,7.62-5.33,13.17-5.33c5.12,0,9.25,1.73,12.38,5.18c3.13,3.45,4.7,7.96,4.7,13.53c0,6.06-1.6,10.84-4.81,14.36      S835.71,623.11,830.32,623.11z M830.64,588.7c-3.9,0-7.06,1.41-9.5,4.22c-2.43,2.81-3.65,6.5-3.65,11.08      c0,4.57,1.19,8.25,3.56,11.04s5.46,4.18,9.28,4.18c4.07,0,7.28-1.33,9.63-3.98c2.35-2.66,3.52-6.38,3.52-11.15      c0-4.9-1.14-8.69-3.42-11.36C837.78,590.03,834.64,588.7,830.64,588.7z"/>
				<path d="M886.75,585.38l-12.24,23.39v13.72h-4.35v-13.61l-11.93-23.5h4.94l8.31,16.77c0.1,0.21,0.41,0.97,0.91,2.28h0.08      c0.17-0.59,0.5-1.35,0.98-2.28l8.7-16.77H886.75z"/>
			</g>
		</g>
		<g>
			<path d="M489.45,543.54v14.03h-4.35v-37.11h10.2c3.97,0,7.04,0.97,9.23,2.9c2.18,1.93,3.27,4.66,3.27,8.18s-1.21,6.4-3.64,8.64     c-2.42,2.24-5.7,3.36-9.82,3.36H489.45z M489.45,524.39v15.22h4.55c3,0,5.29-0.69,6.87-2.06c1.58-1.37,2.37-3.31,2.37-5.81     c0-4.9-2.9-7.35-8.7-7.35H489.45z"/>
			<path d="M541.99,557.56h-19.25v-37.11h4.35v33.18h14.91V557.56z"/>
			<path d="M585.89,557.56h-4.81l-3.93-10.4h-15.73l-3.7,10.4h-4.84l14.23-37.11h4.5L585.89,557.56z M575.72,543.25l-5.82-15.81     c-0.19-0.52-0.38-1.35-0.57-2.48h-0.1c-0.17,1.05-0.37,1.88-0.59,2.48l-5.77,15.81H575.72z"/>
			<path d="M629.22,557.56h-5.33l-19.1-29.58c-0.48-0.74-0.88-1.52-1.19-2.33h-0.16c0.14,0.79,0.21,2.49,0.21,5.1v26.81h-4.35     v-37.11h5.64l18.58,29.11c0.78,1.21,1.28,2.04,1.5,2.48h0.1c-0.17-1.07-0.26-2.89-0.26-5.46v-26.14h4.35V557.56z"/>
			<path d="M676.81,557.56h-5.33l-19.1-29.58c-0.48-0.74-0.88-1.52-1.19-2.33h-0.16c0.14,0.79,0.21,2.49,0.21,5.1v26.81h-4.35     v-37.11h5.64l18.58,29.11c0.78,1.21,1.28,2.04,1.5,2.48h0.1c-0.17-1.07-0.26-2.89-0.26-5.46v-26.14h4.35V557.56z"/>
			<path d="M698.84,557.56h-4.35v-37.11h4.35V557.56z"/>
			<path d="M746.46,557.56h-5.33l-19.1-29.58c-0.48-0.74-0.88-1.52-1.19-2.33h-0.16c0.14,0.79,0.21,2.49,0.21,5.1v26.81h-4.35     v-37.11h5.64l18.58,29.11c0.78,1.21,1.28,2.04,1.5,2.48h0.1c-0.17-1.07-0.26-2.89-0.26-5.46v-26.14h4.35V557.56z"/>
			<path d="M791.89,555.03c-3.73,2.1-7.87,3.16-12.42,3.16c-5.3,0-9.58-1.71-12.85-5.12c-3.27-3.42-4.9-7.94-4.9-13.56     c0-5.75,1.82-10.46,5.45-14.14s8.23-5.53,13.81-5.53c4.04,0,7.43,0.66,10.17,1.97v4.81c-3-1.9-6.56-2.85-10.66-2.85     c-4.16,0-7.57,1.43-10.22,4.3c-2.66,2.86-3.99,6.57-3.99,11.13c0,4.69,1.23,8.38,3.7,11.06c2.47,2.68,5.81,4.02,10.04,4.02     c2.9,0,5.41-0.58,7.53-1.73v-10.4h-8.13v-3.93h12.47V555.03z"/>
		</g>
	</g>
	<g>
		<rect x="436.18" y="397.29" width="4" height="285.43"/>
	</g>
	<g>
		<g>
			<g>
				<polygon class="st0" points="353.86,577.13 330.67,621.94 271,503.21 294.19,458.4     "/>
			</g>
			<g>
				<polygon class="st0" points="276.11,577.13 252.92,621.94 193.25,503.21 216.45,458.4     "/>
			</g>
			<g>
				<polygon class="st0" points="394.24,500.56 370.91,545.1 349.68,502.87 372.88,458.06     "/>
			</g>
		</g>
	</g>
</g>
</svg>