<svg width="16" height="15" viewBox="0 0 16 15" fill="none" xmlns="http://www.w3.org/2000/svg">
<path fill-rule="evenodd" clip-rule="evenodd" d="M13.4739 2.24967C12.0802 0.856205 10.2267 0.0884637 8.25209 0.0876465C4.18317 0.0876465 0.871662 3.39461 0.870026 7.45914C0.86948 8.75845 1.20936 10.0268 1.85539 11.1448L0.808105 14.9648L4.72145 13.9397C5.79974 14.5271 7.01369 14.8366 8.24909 14.837H8.25218C12.3206 14.837 15.6325 11.5298 15.6341 7.46505C15.6349 5.49516 14.8677 3.64305 13.4739 2.24967ZM8.25209 13.592H8.24955C7.14862 13.5915 6.06888 13.2961 5.12671 12.7379L4.90276 12.6051L2.58052 13.2134L3.20036 10.9523L3.05442 10.7205C2.44022 9.74493 2.11589 8.61734 2.11643 7.4596C2.11771 4.08126 4.87021 1.33274 8.25455 1.33274C9.89339 1.33329 11.4339 1.97145 12.5923 3.12965C13.7507 4.28784 14.3883 5.82732 14.3877 7.46459C14.3863 10.8432 11.634 13.592 8.25209 13.592V13.592ZM11.6176 9.00289C11.4332 8.91063 10.5263 8.46515 10.3572 8.40359C10.1883 8.34211 10.0651 8.31151 9.94231 8.49584C9.81928 8.68017 9.46586 9.09515 9.3582 9.218C9.25055 9.34095 9.14307 9.35639 8.95858 9.26413C8.7741 9.17196 8.17981 8.97737 7.47522 8.34983C6.92694 7.8614 6.55678 7.2582 6.44913 7.07387C6.34165 6.88935 6.44822 6.79928 6.53005 6.69794C6.72972 6.45032 6.92967 6.19071 6.99114 6.06786C7.05269 5.94491 7.02187 5.83731 6.97568 5.74514C6.92967 5.65298 6.56078 4.74631 6.40712 4.37737C6.25728 4.01834 6.10534 4.06683 5.99205 4.0612C5.88457 4.05584 5.76155 4.05475 5.63853 4.05475C5.5156 4.05475 5.31574 4.10079 5.14662 4.2853C4.97759 4.46972 4.50114 4.91529 4.50114 5.82196C4.50114 6.72863 5.16208 7.60452 5.25428 7.72747C5.34647 7.85041 6.55497 9.71097 8.40521 10.5088C8.84529 10.6987 9.18881 10.812 9.45676 10.8969C9.89866 11.0371 10.3006 11.0173 10.6185 10.9699C10.9729 10.9169 11.7097 10.5242 11.8636 10.094C12.0172 9.66366 12.0172 9.29491 11.971 9.218C11.925 9.14118 11.802 9.09515 11.6176 9.00289V9.00289Z" fill="white"/>
</svg>
