<svg xmlns="http://www.w3.org/2000/svg" fill="none" viewBox="13.61 13.48 32.78 33.04">
<g opacity="0.01" filter="url(#filter0_d)">
<path d="M22.275 41.8785L22.8109 42.1464C25.0437 43.4861 27.5444 44.1113 30.0451 44.1113C37.9044 44.1113 44.3348 37.6809 44.3348 29.8216C44.3348 26.0705 42.8165 22.4088 40.1372 19.7295C37.4579 17.0501 33.8854 15.5319 30.0451 15.5319C22.1857 15.5319 15.7554 21.9622 15.8447 29.9109C15.8447 32.5902 16.6485 35.1802 17.9881 37.413L18.3454 37.9488L16.9164 43.2182L22.275 41.8785Z" fill="#FF0000"/>
<path d="M41.6549 18.3003C38.6183 15.1744 34.4207 13.4775 30.1338 13.4775C21.0241 13.4775 13.7006 20.8903 13.7899 29.9107C13.7899 32.7687 14.5937 35.5373 15.9334 38.038L13.6113 46.5225L22.2745 44.2897C24.6859 45.6294 27.3652 46.2546 30.0445 46.2546C39.0649 46.2546 46.3884 38.8418 46.3884 29.8214C46.3884 25.4452 44.6915 21.3369 41.6549 18.3003V18.3003ZM30.1338 43.4859C27.7224 43.4859 25.311 42.8608 23.2569 41.6104L22.721 41.3425L17.541 42.6821L18.8807 37.5914L18.5234 37.0556C14.5937 30.7145 16.4693 22.3193 22.8996 18.3896C29.33 14.46 37.6359 16.3355 41.5656 22.7659C45.4952 29.1962 43.6197 37.5021 37.1894 41.4318C35.1352 42.7714 32.6345 43.4859 30.1338 43.4859V43.4859ZM37.9931 33.5724L37.0107 33.1259C37.0107 33.1259 35.5818 32.5007 34.6887 32.0542C34.5993 32.0542 34.51 31.9649 34.4207 31.9649C34.1528 31.9649 33.9742 32.0542 33.7955 32.1435C33.7955 32.1435 33.7062 32.2328 32.4559 33.6618C32.3666 33.8404 32.188 33.9297 32.0093 33.9297H31.92C31.8307 33.9297 31.6521 33.8404 31.5628 33.7511L31.1162 33.5724C30.1338 33.1259 29.2407 32.59 28.5262 31.8755C28.3476 31.6969 28.0797 31.5183 27.901 31.3397C27.2759 30.7145 26.6507 30 26.2041 29.1962L26.1148 29.0176C26.0255 28.9283 26.0255 28.839 25.9362 28.6604C25.9362 28.4817 25.9362 28.3031 26.0255 28.2138C26.0255 28.2138 26.3828 27.7673 26.6507 27.4993C26.8293 27.3207 26.9186 27.0528 27.0972 26.8741C27.2759 26.6062 27.3652 26.249 27.2759 25.981C27.1866 25.5345 26.1148 23.1231 25.8469 22.5872C25.6683 22.3193 25.4897 22.23 25.2217 22.1407H24.2393C24.0607 22.1407 23.8821 22.23 23.7034 22.23L23.6141 22.3193C23.4355 22.4086 23.2569 22.5872 23.0783 22.6765C22.8996 22.8552 22.8103 23.0338 22.6317 23.2124C22.0065 24.0162 21.6493 24.9986 21.6493 25.981C21.6493 26.6955 21.8279 27.41 22.0958 28.0352L22.1852 28.3031C22.989 30 24.0607 31.5183 25.4897 32.858L25.8469 33.2152C26.1148 33.4831 26.3828 33.6618 26.5614 33.9297C28.4369 35.5373 30.5804 36.6983 32.9918 37.3235C33.2597 37.4128 33.6169 37.4128 33.8849 37.5021H34.778C35.2245 37.5021 35.7604 37.3235 36.1176 37.1449C36.3856 36.9663 36.5642 36.9663 36.7428 36.7876L36.9214 36.609C37.1 36.4304 37.2787 36.3411 37.4573 36.1625C37.6359 35.9838 37.8145 35.8052 37.9038 35.6266C38.0825 35.2694 38.1718 34.8228 38.2611 34.3762V33.7511C38.2611 33.7511 38.1718 33.6618 37.9931 33.5724V33.5724Z" fill="#FF0000"/>
</g>
<path d="M22.275 41.8785L22.8109 42.1464C25.0437 43.4861 27.5444 44.1113 30.0451 44.1113C37.9044 44.1113 44.3348 37.6809 44.3348 29.8216C44.3348 26.0705 42.8165 22.4088 40.1372 19.7295C37.4579 17.0501 33.8854 15.5319 30.0451 15.5319C22.1857 15.5319 15.7554 21.9622 15.8447 29.9109C15.8447 32.5902 16.6485 35.1802 17.9881 37.413L18.3454 37.9488L16.9164 43.2182L22.275 41.8785Z" fill="#25D366"/>
<path d="M41.6549 18.3003C38.6183 15.1744 34.4207 13.4775 30.1338 13.4775C21.0241 13.4775 13.7006 20.8903 13.7899 29.9107C13.7899 32.7687 14.5937 35.5373 15.9334 38.038L13.6113 46.5225L22.2745 44.2897C24.6859 45.6294 27.3652 46.2546 30.0445 46.2546C39.0649 46.2546 46.3884 38.8418 46.3884 29.8214C46.3884 25.4452 44.6915 21.3369 41.6549 18.3003V18.3003ZM30.1338 43.4859C27.7224 43.4859 25.311 42.8608 23.2569 41.6104L22.721 41.3425L17.541 42.6821L18.8807 37.5914L18.5234 37.0556C14.5937 30.7145 16.4693 22.3193 22.8996 18.3896C29.33 14.46 37.6359 16.3355 41.5656 22.7659C45.4952 29.1962 43.6197 37.5021 37.1894 41.4318C35.1352 42.7714 32.6345 43.4859 30.1338 43.4859V43.4859ZM37.9931 33.5724L37.0107 33.1259C37.0107 33.1259 35.5818 32.5007 34.6887 32.0542C34.5993 32.0542 34.51 31.9649 34.4207 31.9649C34.1528 31.9649 33.9742 32.0542 33.7955 32.1435C33.7955 32.1435 33.7062 32.2328 32.4559 33.6618C32.3666 33.8404 32.188 33.9297 32.0093 33.9297H31.92C31.8307 33.9297 31.6521 33.8404 31.5628 33.7511L31.1162 33.5724C30.1338 33.1259 29.2407 32.59 28.5262 31.8755C28.3476 31.6969 28.0797 31.5183 27.901 31.3397C27.2759 30.7145 26.6507 30 26.2041 29.1962L26.1148 29.0176C26.0255 28.9283 26.0255 28.839 25.9362 28.6604C25.9362 28.4817 25.9362 28.3031 26.0255 28.2138C26.0255 28.2138 26.3828 27.7673 26.6507 27.4993C26.8293 27.3207 26.9186 27.0528 27.0972 26.8741C27.2759 26.6062 27.3652 26.249 27.2759 25.981C27.1866 25.5345 26.1148 23.1231 25.8469 22.5872C25.6683 22.3193 25.4897 22.23 25.2217 22.1407H24.2393C24.0607 22.1407 23.8821 22.23 23.7034 22.23L23.6141 22.3193C23.4355 22.4086 23.2569 22.5872 23.0783 22.6765C22.8996 22.8552 22.8103 23.0338 22.6317 23.2124C22.0065 24.0162 21.6493 24.9986 21.6493 25.981C21.6493 26.6955 21.8279 27.41 22.0958 28.0352L22.1852 28.3031C22.989 30 24.0607 31.5183 25.4897 32.858L25.8469 33.2152C26.1148 33.4831 26.3828 33.6618 26.5614 33.9297C28.4369 35.5373 30.5804 36.6983 32.9918 37.3235C33.2597 37.4128 33.6169 37.4128 33.8849 37.5021H34.778C35.2245 37.5021 35.7604 37.3235 36.1176 37.1449C36.3856 36.9663 36.5642 36.9663 36.7428 36.7876L36.9214 36.609C37.1 36.4304 37.2787 36.3411 37.4573 36.1625C37.6359 35.9838 37.8145 35.8052 37.9038 35.6266C38.0825 35.2694 38.1718 34.8228 38.2611 34.3762V33.7511C38.2611 33.7511 38.1718 33.6618 37.9931 33.5724V33.5724Z" fill="white"/>
<defs>
<filter id="filter0_d" x="10.6113" y="12.4775" width="38.777" height="39.045" filterUnits="userSpaceOnUse" color-interpolation-filters="sRGB">
<feFlood flood-opacity="0" result="BackgroundImageFix"/>
<feColorMatrix in="SourceAlpha" type="matrix" values="0 0 0 0 0 0 0 0 0 0 0 0 0 0 0 0 0 0 127 0"/>
<feOffset dy="2"/>
<feGaussianBlur stdDeviation="1.5"/>
<feColorMatrix type="matrix" values="0 0 0 0 0.0554688 0 0 0 0 0.295833 0 0 0 0 0.223724 0 0 0 0.54 0"/>
<feBlend mode="normal" in2="BackgroundImageFix" result="effect1_dropShadow"/>
<feBlend mode="normal" in="SourceGraphic" in2="effect1_dropShadow" result="shape"/>
</filter>
</defs>
</svg>